G04 EAGLE Gerber X2 export*
G75*
%MOMM*%
%FSLAX34Y34*%
%LPD*%
%AMOC8*
5,1,8,0,0,1.08239X$1,22.5*%
G01*
%ADD10C,0.750000*%
%ADD11C,1.200000*%
%ADD12C,0.553200*%
%ADD13C,0.152400*%
%ADD14C,0.406400*%

G36*
X587186Y104576D02*
X587186Y104576D01*
X587205Y104574D01*
X587307Y104596D01*
X587409Y104612D01*
X587426Y104622D01*
X587446Y104626D01*
X587535Y104679D01*
X587626Y104728D01*
X587640Y104742D01*
X587657Y104752D01*
X587724Y104831D01*
X587796Y104906D01*
X587804Y104924D01*
X587817Y104939D01*
X587856Y105035D01*
X587899Y105129D01*
X587901Y105149D01*
X587909Y105167D01*
X587927Y105334D01*
X587927Y190126D01*
X590814Y196120D01*
X596014Y200267D01*
X602500Y201748D01*
X604592Y201270D01*
X607927Y200509D01*
X607928Y200509D01*
X608986Y200267D01*
X614186Y196120D01*
X614766Y194916D01*
X614810Y194853D01*
X614846Y194786D01*
X614880Y194753D01*
X614907Y194714D01*
X614969Y194669D01*
X615024Y194617D01*
X615067Y194596D01*
X615105Y194568D01*
X615178Y194545D01*
X615247Y194513D01*
X615294Y194508D01*
X615339Y194493D01*
X615416Y194494D01*
X615491Y194486D01*
X615538Y194496D01*
X615585Y194497D01*
X615657Y194522D01*
X615732Y194538D01*
X615773Y194562D01*
X615817Y194578D01*
X615878Y194625D01*
X615943Y194664D01*
X615974Y194700D01*
X616011Y194730D01*
X616053Y194793D01*
X616103Y194851D01*
X616121Y194895D01*
X616147Y194935D01*
X616166Y195008D01*
X616195Y195079D01*
X616202Y195143D01*
X616210Y195173D01*
X616208Y195199D01*
X616213Y195246D01*
X616213Y197575D01*
X619035Y200397D01*
X623025Y200397D01*
X625847Y197575D01*
X625847Y193585D01*
X623025Y190763D01*
X619035Y190763D01*
X617826Y191972D01*
X617730Y192041D01*
X617635Y192111D01*
X617630Y192113D01*
X617627Y192115D01*
X617513Y192150D01*
X617401Y192186D01*
X617396Y192186D01*
X617392Y192188D01*
X617272Y192185D01*
X617155Y192183D01*
X617150Y192181D01*
X617146Y192181D01*
X617034Y192140D01*
X616923Y192101D01*
X616919Y192099D01*
X616915Y192097D01*
X616822Y192022D01*
X616729Y191950D01*
X616726Y191946D01*
X616723Y191943D01*
X616658Y191843D01*
X616593Y191745D01*
X616592Y191740D01*
X616590Y191736D01*
X616561Y191622D01*
X616530Y191507D01*
X616531Y191502D01*
X616530Y191498D01*
X616539Y191381D01*
X616546Y191261D01*
X616548Y191256D01*
X616549Y191253D01*
X616554Y191239D01*
X616602Y191103D01*
X617073Y190126D01*
X617073Y105334D01*
X617076Y105314D01*
X617074Y105295D01*
X617096Y105193D01*
X617112Y105091D01*
X617122Y105074D01*
X617126Y105054D01*
X617179Y104965D01*
X617228Y104874D01*
X617242Y104860D01*
X617252Y104843D01*
X617331Y104776D01*
X617406Y104704D01*
X617424Y104696D01*
X617439Y104683D01*
X617535Y104644D01*
X617629Y104601D01*
X617649Y104599D01*
X617667Y104591D01*
X617834Y104573D01*
X860000Y104573D01*
X860018Y104576D01*
X860050Y104574D01*
X864575Y104871D01*
X864598Y104876D01*
X864722Y104895D01*
X873463Y107237D01*
X873477Y107244D01*
X873493Y107246D01*
X873647Y107314D01*
X881484Y111838D01*
X881496Y111848D01*
X881511Y111855D01*
X881642Y111959D01*
X888041Y118358D01*
X888050Y118371D01*
X888062Y118381D01*
X888162Y118516D01*
X892686Y126353D01*
X892692Y126368D01*
X892702Y126381D01*
X892763Y126537D01*
X895105Y135278D01*
X895107Y135302D01*
X895129Y135425D01*
X895426Y139950D01*
X895424Y139969D01*
X895427Y140000D01*
X895427Y610000D01*
X895424Y610018D01*
X895426Y610050D01*
X895129Y614575D01*
X895124Y614598D01*
X895105Y614722D01*
X892763Y623463D01*
X892756Y623477D01*
X892754Y623493D01*
X892686Y623647D01*
X888162Y631484D01*
X888152Y631496D01*
X888145Y631511D01*
X888041Y631642D01*
X881642Y638041D01*
X881629Y638050D01*
X881619Y638062D01*
X881484Y638162D01*
X873647Y642686D01*
X873632Y642692D01*
X873619Y642702D01*
X873463Y642763D01*
X864722Y645105D01*
X864698Y645107D01*
X864575Y645129D01*
X860050Y645426D01*
X860031Y645424D01*
X860000Y645427D01*
X140000Y645427D01*
X139982Y645424D01*
X139950Y645426D01*
X135425Y645129D01*
X135402Y645124D01*
X135278Y645105D01*
X126537Y642763D01*
X126523Y642756D01*
X126507Y642754D01*
X126353Y642686D01*
X118516Y638162D01*
X118504Y638152D01*
X118489Y638145D01*
X118358Y638041D01*
X111959Y631642D01*
X111950Y631629D01*
X111938Y631619D01*
X111838Y631484D01*
X107314Y623647D01*
X107308Y623632D01*
X107298Y623619D01*
X107237Y623463D01*
X104895Y614722D01*
X104893Y614698D01*
X104871Y614575D01*
X104574Y610050D01*
X104576Y610031D01*
X104573Y610000D01*
X104573Y140000D01*
X104576Y139982D01*
X104574Y139950D01*
X104871Y135425D01*
X104876Y135402D01*
X104895Y135278D01*
X107237Y126537D01*
X107244Y126523D01*
X107246Y126507D01*
X107314Y126353D01*
X111838Y118516D01*
X111848Y118504D01*
X111855Y118489D01*
X111959Y118358D01*
X118358Y111959D01*
X118371Y111950D01*
X118381Y111938D01*
X118516Y111838D01*
X126353Y107314D01*
X126368Y107308D01*
X126381Y107298D01*
X126537Y107237D01*
X135278Y104895D01*
X135302Y104893D01*
X135425Y104871D01*
X139950Y104574D01*
X139969Y104576D01*
X140000Y104573D01*
X587166Y104573D01*
X587186Y104576D01*
G37*
%LPC*%
G36*
X506005Y500643D02*
X506005Y500643D01*
X503183Y503465D01*
X503183Y507455D01*
X506005Y510277D01*
X508524Y510277D01*
X508614Y510291D01*
X508705Y510299D01*
X508734Y510311D01*
X508766Y510316D01*
X508847Y510359D01*
X508931Y510395D01*
X508963Y510421D01*
X508984Y510432D01*
X509006Y510455D01*
X509062Y510500D01*
X512638Y514076D01*
X512680Y514134D01*
X512729Y514186D01*
X512751Y514233D01*
X512781Y514275D01*
X512803Y514344D01*
X512833Y514409D01*
X512839Y514461D01*
X512854Y514511D01*
X512852Y514582D01*
X512860Y514653D01*
X512849Y514704D01*
X512847Y514756D01*
X512823Y514824D01*
X512808Y514894D01*
X512781Y514939D01*
X512763Y514987D01*
X512718Y515043D01*
X512681Y515105D01*
X512642Y515139D01*
X512609Y515179D01*
X512549Y515218D01*
X512495Y515265D01*
X512446Y515284D01*
X512402Y515312D01*
X512333Y515330D01*
X512266Y515357D01*
X512195Y515365D01*
X512164Y515373D01*
X512141Y515371D01*
X512100Y515375D01*
X508037Y515375D01*
X505725Y517687D01*
X505709Y517698D01*
X505697Y517714D01*
X505609Y517770D01*
X505526Y517830D01*
X505507Y517836D01*
X505490Y517847D01*
X505389Y517872D01*
X505290Y517903D01*
X505271Y517902D01*
X505251Y517907D01*
X505148Y517899D01*
X505045Y517896D01*
X505026Y517889D01*
X505006Y517888D01*
X504911Y517848D01*
X504814Y517812D01*
X504798Y517799D01*
X504780Y517792D01*
X504649Y517687D01*
X502375Y515413D01*
X498385Y515413D01*
X495563Y518235D01*
X495563Y522225D01*
X497329Y523991D01*
X497340Y524007D01*
X497356Y524019D01*
X497412Y524107D01*
X497472Y524190D01*
X497478Y524209D01*
X497489Y524226D01*
X497514Y524327D01*
X497545Y524426D01*
X497544Y524445D01*
X497549Y524465D01*
X497541Y524568D01*
X497538Y524671D01*
X497531Y524690D01*
X497530Y524710D01*
X497490Y524805D01*
X497454Y524902D01*
X497441Y524918D01*
X497434Y524936D01*
X497329Y525067D01*
X496579Y525817D01*
X496579Y527595D01*
X496576Y527615D01*
X496578Y527635D01*
X496556Y527736D01*
X496540Y527838D01*
X496530Y527856D01*
X496526Y527875D01*
X496473Y527964D01*
X496424Y528055D01*
X496410Y528069D01*
X496400Y528086D01*
X496321Y528154D01*
X496246Y528225D01*
X496228Y528233D01*
X496213Y528246D01*
X496117Y528285D01*
X496023Y528328D01*
X496003Y528331D01*
X495985Y528338D01*
X495818Y528357D01*
X494040Y528357D01*
X491218Y531178D01*
X491218Y535168D01*
X494040Y537990D01*
X495798Y537990D01*
X495869Y538002D01*
X495941Y538003D01*
X495990Y538021D01*
X496041Y538030D01*
X496104Y538063D01*
X496172Y538088D01*
X496212Y538121D01*
X496258Y538145D01*
X496308Y538197D01*
X496364Y538242D01*
X496392Y538285D01*
X496428Y538323D01*
X496458Y538388D01*
X496497Y538449D01*
X496509Y538499D01*
X496531Y538546D01*
X496539Y538618D01*
X496557Y538687D01*
X496553Y538739D01*
X496559Y538791D01*
X496543Y538861D01*
X496538Y538932D01*
X496517Y538980D01*
X496506Y539031D01*
X496469Y539093D01*
X496441Y539159D01*
X496397Y539215D01*
X496380Y539242D01*
X496362Y539257D01*
X496337Y539290D01*
X483390Y552236D01*
X483316Y552289D01*
X483246Y552349D01*
X483216Y552361D01*
X483190Y552380D01*
X483103Y552407D01*
X483018Y552441D01*
X482977Y552445D01*
X482955Y552452D01*
X482923Y552451D01*
X482852Y552459D01*
X482129Y552459D01*
X479307Y555281D01*
X479307Y559271D01*
X482129Y562093D01*
X486119Y562093D01*
X488941Y559271D01*
X488941Y558548D01*
X488955Y558458D01*
X488963Y558367D01*
X488975Y558338D01*
X488980Y558306D01*
X489023Y558225D01*
X489059Y558141D01*
X489085Y558109D01*
X489096Y558088D01*
X489119Y558066D01*
X489164Y558010D01*
X514115Y533059D01*
X514115Y531886D01*
X514126Y531816D01*
X514128Y531744D01*
X514146Y531695D01*
X514154Y531644D01*
X514188Y531580D01*
X514213Y531513D01*
X514245Y531472D01*
X514270Y531426D01*
X514322Y531377D01*
X514366Y531321D01*
X514410Y531293D01*
X514448Y531257D01*
X514513Y531227D01*
X514573Y531188D01*
X514624Y531175D01*
X514671Y531153D01*
X514742Y531145D01*
X514812Y531128D01*
X514864Y531132D01*
X514915Y531126D01*
X514986Y531141D01*
X515057Y531147D01*
X515105Y531167D01*
X515156Y531178D01*
X515217Y531215D01*
X515283Y531243D01*
X515339Y531288D01*
X515367Y531305D01*
X515382Y531322D01*
X515414Y531348D01*
X515697Y531631D01*
X586228Y531631D01*
X587773Y530086D01*
X587847Y530033D01*
X587916Y529973D01*
X587946Y529961D01*
X587972Y529942D01*
X588059Y529915D01*
X588144Y529881D01*
X588185Y529877D01*
X588208Y529870D01*
X588240Y529871D01*
X588311Y529863D01*
X590046Y529863D01*
X590136Y529877D01*
X590227Y529885D01*
X590256Y529897D01*
X590288Y529902D01*
X590369Y529945D01*
X590453Y529981D01*
X590485Y530007D01*
X590506Y530018D01*
X590528Y530041D01*
X590584Y530086D01*
X591095Y530597D01*
X595085Y530597D01*
X597907Y527775D01*
X597907Y523785D01*
X596062Y521940D01*
X596051Y521924D01*
X596035Y521912D01*
X595979Y521824D01*
X595919Y521741D01*
X595913Y521722D01*
X595902Y521705D01*
X595877Y521604D01*
X595846Y521505D01*
X595847Y521486D01*
X595842Y521466D01*
X595850Y521363D01*
X595853Y521260D01*
X595860Y521241D01*
X595861Y521221D01*
X595901Y521126D01*
X595937Y521029D01*
X595950Y521013D01*
X595957Y520995D01*
X596062Y520864D01*
X596733Y520193D01*
X596733Y516203D01*
X593911Y513381D01*
X589921Y513381D01*
X587099Y516203D01*
X587099Y517450D01*
X587088Y517520D01*
X587086Y517592D01*
X587068Y517641D01*
X587060Y517692D01*
X587026Y517756D01*
X587001Y517823D01*
X586969Y517864D01*
X586944Y517910D01*
X586892Y517959D01*
X586848Y518015D01*
X586804Y518043D01*
X586766Y518079D01*
X586701Y518109D01*
X586641Y518148D01*
X586590Y518161D01*
X586543Y518183D01*
X586472Y518191D01*
X586402Y518208D01*
X586350Y518204D01*
X586299Y518210D01*
X586228Y518195D01*
X586157Y518189D01*
X586109Y518169D01*
X586058Y518158D01*
X585997Y518121D01*
X585931Y518093D01*
X585875Y518048D01*
X585847Y518031D01*
X585832Y518014D01*
X585800Y517988D01*
X583695Y515883D01*
X579705Y515883D01*
X577924Y517664D01*
X577850Y517717D01*
X577780Y517777D01*
X577750Y517789D01*
X577724Y517808D01*
X577637Y517835D01*
X577552Y517869D01*
X577511Y517873D01*
X577489Y517880D01*
X577457Y517879D01*
X577386Y517887D01*
X524720Y517887D01*
X524630Y517873D01*
X524539Y517865D01*
X524510Y517853D01*
X524478Y517848D01*
X524397Y517805D01*
X524313Y517769D01*
X524281Y517743D01*
X524260Y517732D01*
X524238Y517709D01*
X524182Y517664D01*
X513040Y506522D01*
X512987Y506448D01*
X512927Y506378D01*
X512915Y506348D01*
X512896Y506322D01*
X512869Y506235D01*
X512835Y506150D01*
X512831Y506109D01*
X512824Y506087D01*
X512825Y506055D01*
X512817Y505984D01*
X512817Y503465D01*
X509995Y500643D01*
X506005Y500643D01*
G37*
%LPD*%
%LPC*%
G36*
X755958Y589679D02*
X755958Y589679D01*
X748489Y592773D01*
X742773Y598489D01*
X739679Y605958D01*
X739679Y614042D01*
X742773Y621511D01*
X748489Y627227D01*
X755958Y630321D01*
X764042Y630321D01*
X771511Y627227D01*
X777227Y621511D01*
X780321Y614042D01*
X780321Y605958D01*
X777227Y598489D01*
X771511Y592773D01*
X764042Y589679D01*
X755958Y589679D01*
G37*
%LPD*%
%LPC*%
G36*
X135958Y589679D02*
X135958Y589679D01*
X128489Y592773D01*
X122773Y598489D01*
X119679Y605958D01*
X119679Y614042D01*
X122773Y621511D01*
X128489Y627227D01*
X135958Y630321D01*
X144042Y630321D01*
X151511Y627227D01*
X157227Y621511D01*
X160321Y614042D01*
X160321Y605958D01*
X157227Y598489D01*
X151511Y592773D01*
X144042Y589679D01*
X135958Y589679D01*
G37*
%LPD*%
%LPC*%
G36*
X755958Y119679D02*
X755958Y119679D01*
X748489Y122773D01*
X742773Y128489D01*
X739679Y135958D01*
X739679Y144042D01*
X742773Y151511D01*
X748489Y157227D01*
X755958Y160321D01*
X764042Y160321D01*
X771511Y157227D01*
X777227Y151511D01*
X780321Y144042D01*
X780321Y135958D01*
X777227Y128489D01*
X771511Y122773D01*
X764042Y119679D01*
X755958Y119679D01*
G37*
%LPD*%
%LPC*%
G36*
X135958Y119679D02*
X135958Y119679D01*
X128489Y122773D01*
X122773Y128489D01*
X119679Y135958D01*
X119679Y144042D01*
X122773Y151511D01*
X128489Y157227D01*
X135958Y160321D01*
X144042Y160321D01*
X151511Y157227D01*
X157227Y151511D01*
X160321Y144042D01*
X160321Y135958D01*
X157227Y128489D01*
X151511Y122773D01*
X144042Y119679D01*
X135958Y119679D01*
G37*
%LPD*%
%LPC*%
G36*
X624115Y410473D02*
X624115Y410473D01*
X621293Y413295D01*
X621293Y417285D01*
X622072Y418064D01*
X622114Y418122D01*
X622163Y418174D01*
X622185Y418221D01*
X622215Y418263D01*
X622236Y418332D01*
X622267Y418397D01*
X622272Y418449D01*
X622288Y418499D01*
X622286Y418570D01*
X622294Y418641D01*
X622283Y418692D01*
X622281Y418744D01*
X622257Y418812D01*
X622242Y418882D01*
X622215Y418927D01*
X622197Y418975D01*
X622152Y419031D01*
X622115Y419093D01*
X622076Y419127D01*
X622043Y419167D01*
X621983Y419206D01*
X621928Y419253D01*
X621880Y419272D01*
X621836Y419300D01*
X621767Y419318D01*
X621700Y419345D01*
X621629Y419353D01*
X621598Y419361D01*
X621579Y419359D01*
X618753Y422185D01*
X618753Y426175D01*
X620534Y427956D01*
X620587Y428030D01*
X620647Y428100D01*
X620659Y428130D01*
X620678Y428156D01*
X620705Y428243D01*
X620739Y428328D01*
X620743Y428369D01*
X620750Y428391D01*
X620749Y428423D01*
X620757Y428494D01*
X620757Y430772D01*
X620743Y430862D01*
X620735Y430953D01*
X620723Y430982D01*
X620718Y431014D01*
X620675Y431095D01*
X620639Y431179D01*
X620613Y431211D01*
X620602Y431232D01*
X620579Y431254D01*
X620534Y431310D01*
X604161Y447683D01*
X604145Y447695D01*
X604133Y447710D01*
X604066Y447753D01*
X604027Y447786D01*
X604006Y447795D01*
X603962Y447826D01*
X603943Y447832D01*
X603926Y447843D01*
X603825Y447868D01*
X603816Y447871D01*
X603799Y447878D01*
X603791Y447879D01*
X603727Y447899D01*
X603707Y447898D01*
X603687Y447903D01*
X603584Y447895D01*
X603481Y447892D01*
X603462Y447886D01*
X603442Y447884D01*
X603382Y447859D01*
X603371Y447857D01*
X603344Y447842D01*
X603250Y447808D01*
X603234Y447795D01*
X603216Y447788D01*
X603167Y447749D01*
X603154Y447742D01*
X603139Y447726D01*
X603085Y447683D01*
X600165Y444763D01*
X596128Y444763D01*
X596108Y444760D01*
X596089Y444762D01*
X595987Y444740D01*
X595885Y444724D01*
X595868Y444714D01*
X595848Y444710D01*
X595759Y444657D01*
X595668Y444608D01*
X595654Y444594D01*
X595637Y444584D01*
X595570Y444505D01*
X595498Y444430D01*
X595490Y444412D01*
X595477Y444397D01*
X595438Y444301D01*
X595395Y444207D01*
X595393Y444187D01*
X595385Y444169D01*
X595367Y444002D01*
X595367Y439965D01*
X592545Y437143D01*
X588555Y437143D01*
X585733Y439965D01*
X585733Y443955D01*
X588555Y446777D01*
X592592Y446777D01*
X592612Y446780D01*
X592631Y446778D01*
X592733Y446800D01*
X592835Y446816D01*
X592852Y446826D01*
X592872Y446830D01*
X592961Y446883D01*
X593052Y446932D01*
X593066Y446946D01*
X593083Y446956D01*
X593150Y447035D01*
X593222Y447110D01*
X593230Y447128D01*
X593243Y447143D01*
X593282Y447239D01*
X593325Y447333D01*
X593327Y447353D01*
X593335Y447371D01*
X593353Y447538D01*
X593353Y451575D01*
X594008Y452230D01*
X594019Y452246D01*
X594035Y452258D01*
X594091Y452345D01*
X594151Y452429D01*
X594157Y452448D01*
X594168Y452465D01*
X594193Y452565D01*
X594224Y452664D01*
X594223Y452684D01*
X594228Y452704D01*
X594220Y452807D01*
X594217Y452910D01*
X594210Y452929D01*
X594209Y452949D01*
X594168Y453044D01*
X594133Y453141D01*
X594120Y453157D01*
X594112Y453175D01*
X594008Y453306D01*
X592824Y454490D01*
X589779Y457534D01*
X589779Y461750D01*
X589765Y461840D01*
X589757Y461931D01*
X589745Y461960D01*
X589740Y461992D01*
X589697Y462073D01*
X589661Y462157D01*
X589635Y462189D01*
X589624Y462210D01*
X589601Y462232D01*
X589556Y462288D01*
X587802Y464042D01*
X587728Y464095D01*
X587658Y464155D01*
X587628Y464167D01*
X587602Y464186D01*
X587515Y464213D01*
X587430Y464247D01*
X587389Y464251D01*
X587367Y464258D01*
X587335Y464257D01*
X587264Y464265D01*
X584745Y464265D01*
X581923Y467087D01*
X581923Y471077D01*
X584745Y473899D01*
X588735Y473899D01*
X591557Y471077D01*
X591557Y468558D01*
X591571Y468468D01*
X591579Y468377D01*
X591591Y468348D01*
X591596Y468316D01*
X591639Y468235D01*
X591675Y468151D01*
X591701Y468119D01*
X591712Y468098D01*
X591735Y468076D01*
X591780Y468020D01*
X593534Y466266D01*
X594536Y465264D01*
X594552Y465252D01*
X594564Y465237D01*
X594651Y465181D01*
X594735Y465121D01*
X594754Y465115D01*
X594771Y465104D01*
X594872Y465079D01*
X594970Y465048D01*
X594990Y465049D01*
X595010Y465044D01*
X595113Y465052D01*
X595216Y465055D01*
X595235Y465061D01*
X595255Y465063D01*
X595350Y465103D01*
X595447Y465139D01*
X595463Y465152D01*
X595481Y465159D01*
X595612Y465264D01*
X596175Y465827D01*
X597672Y465827D01*
X597692Y465830D01*
X597711Y465828D01*
X597813Y465850D01*
X597915Y465866D01*
X597932Y465876D01*
X597952Y465880D01*
X598041Y465933D01*
X598132Y465982D01*
X598146Y465996D01*
X598163Y466006D01*
X598230Y466085D01*
X598302Y466160D01*
X598310Y466178D01*
X598323Y466193D01*
X598362Y466289D01*
X598405Y466383D01*
X598407Y466403D01*
X598415Y466421D01*
X598433Y466588D01*
X598433Y469355D01*
X601255Y472177D01*
X605245Y472177D01*
X607138Y470284D01*
X607154Y470273D01*
X607166Y470257D01*
X607254Y470201D01*
X607337Y470141D01*
X607356Y470135D01*
X607373Y470124D01*
X607474Y470099D01*
X607573Y470068D01*
X607592Y470069D01*
X607612Y470064D01*
X607715Y470072D01*
X607818Y470075D01*
X607837Y470082D01*
X607857Y470083D01*
X607952Y470123D01*
X608049Y470159D01*
X608065Y470172D01*
X608083Y470179D01*
X608214Y470284D01*
X608837Y470907D01*
X611408Y470907D01*
X611428Y470910D01*
X611447Y470908D01*
X611549Y470930D01*
X611651Y470946D01*
X611668Y470956D01*
X611688Y470960D01*
X611777Y471013D01*
X611868Y471062D01*
X611882Y471076D01*
X611899Y471086D01*
X611966Y471165D01*
X612038Y471240D01*
X612046Y471258D01*
X612059Y471273D01*
X612098Y471369D01*
X612141Y471463D01*
X612143Y471483D01*
X612151Y471501D01*
X612169Y471668D01*
X612169Y475705D01*
X614991Y478527D01*
X618981Y478527D01*
X621803Y475705D01*
X621803Y475297D01*
X621806Y475279D01*
X621804Y475262D01*
X621804Y475261D01*
X621804Y475258D01*
X621826Y475157D01*
X621842Y475055D01*
X621852Y475037D01*
X621856Y475018D01*
X621909Y474929D01*
X621958Y474837D01*
X621972Y474824D01*
X621982Y474806D01*
X622061Y474739D01*
X622136Y474668D01*
X622154Y474660D01*
X622169Y474647D01*
X622265Y474608D01*
X622359Y474564D01*
X622379Y474562D01*
X622397Y474555D01*
X622564Y474536D01*
X625713Y474536D01*
X628535Y471715D01*
X628535Y467724D01*
X625713Y464903D01*
X621723Y464903D01*
X618901Y467724D01*
X618901Y468132D01*
X618898Y468152D01*
X618900Y468171D01*
X618878Y468273D01*
X618862Y468375D01*
X618852Y468392D01*
X618848Y468412D01*
X618795Y468501D01*
X618746Y468592D01*
X618732Y468606D01*
X618722Y468623D01*
X618643Y468690D01*
X618568Y468762D01*
X618550Y468770D01*
X618535Y468783D01*
X618439Y468822D01*
X618345Y468865D01*
X618325Y468867D01*
X618307Y468875D01*
X618140Y468893D01*
X616410Y468893D01*
X616390Y468890D01*
X616371Y468892D01*
X616269Y468870D01*
X616167Y468854D01*
X616150Y468844D01*
X616130Y468840D01*
X616041Y468787D01*
X615950Y468738D01*
X615936Y468724D01*
X615919Y468714D01*
X615852Y468635D01*
X615780Y468560D01*
X615772Y468542D01*
X615759Y468527D01*
X615720Y468431D01*
X615677Y468337D01*
X615675Y468317D01*
X615667Y468299D01*
X615649Y468132D01*
X615649Y464095D01*
X612827Y461273D01*
X608837Y461273D01*
X606944Y463166D01*
X606928Y463177D01*
X606916Y463193D01*
X606828Y463249D01*
X606745Y463309D01*
X606726Y463315D01*
X606709Y463326D01*
X606608Y463351D01*
X606509Y463382D01*
X606490Y463381D01*
X606470Y463386D01*
X606367Y463378D01*
X606264Y463375D01*
X606245Y463368D01*
X606225Y463367D01*
X606130Y463327D01*
X606033Y463291D01*
X606017Y463278D01*
X605999Y463271D01*
X605868Y463166D01*
X605245Y462543D01*
X603748Y462543D01*
X603728Y462540D01*
X603709Y462542D01*
X603607Y462520D01*
X603505Y462504D01*
X603488Y462494D01*
X603468Y462490D01*
X603379Y462437D01*
X603288Y462388D01*
X603274Y462374D01*
X603257Y462364D01*
X603190Y462285D01*
X603118Y462210D01*
X603110Y462192D01*
X603097Y462177D01*
X603058Y462080D01*
X603015Y461987D01*
X603013Y461967D01*
X603005Y461949D01*
X602987Y461782D01*
X602987Y459015D01*
X602424Y458452D01*
X602412Y458436D01*
X602397Y458424D01*
X602341Y458336D01*
X602281Y458253D01*
X602275Y458234D01*
X602264Y458217D01*
X602239Y458116D01*
X602208Y458017D01*
X602209Y457997D01*
X602204Y457978D01*
X602212Y457875D01*
X602215Y457772D01*
X602221Y457753D01*
X602223Y457733D01*
X602263Y457638D01*
X602299Y457541D01*
X602312Y457525D01*
X602319Y457507D01*
X602424Y457376D01*
X626383Y433417D01*
X626383Y428494D01*
X626397Y428404D01*
X626405Y428313D01*
X626417Y428284D01*
X626422Y428252D01*
X626465Y428171D01*
X626501Y428087D01*
X626527Y428055D01*
X626538Y428034D01*
X626561Y428012D01*
X626606Y427956D01*
X628387Y426175D01*
X628387Y422185D01*
X627608Y421406D01*
X627566Y421348D01*
X627517Y421296D01*
X627495Y421249D01*
X627465Y421207D01*
X627444Y421138D01*
X627413Y421073D01*
X627408Y421021D01*
X627392Y420971D01*
X627394Y420900D01*
X627386Y420829D01*
X627397Y420778D01*
X627399Y420726D01*
X627423Y420658D01*
X627438Y420588D01*
X627465Y420543D01*
X627483Y420495D01*
X627528Y420439D01*
X627565Y420377D01*
X627604Y420343D01*
X627637Y420303D01*
X627697Y420264D01*
X627752Y420217D01*
X627800Y420198D01*
X627844Y420170D01*
X627913Y420152D01*
X627980Y420125D01*
X628051Y420117D01*
X628082Y420109D01*
X628101Y420111D01*
X630927Y417285D01*
X630927Y413295D01*
X628105Y410473D01*
X624115Y410473D01*
G37*
%LPD*%
%LPC*%
G36*
X555535Y425713D02*
X555535Y425713D01*
X552713Y428535D01*
X552713Y432525D01*
X555535Y435347D01*
X559572Y435347D01*
X559592Y435350D01*
X559611Y435348D01*
X559713Y435370D01*
X559815Y435386D01*
X559832Y435396D01*
X559852Y435400D01*
X559941Y435453D01*
X560032Y435502D01*
X560046Y435516D01*
X560063Y435526D01*
X560130Y435605D01*
X560202Y435680D01*
X560210Y435698D01*
X560223Y435713D01*
X560262Y435809D01*
X560305Y435903D01*
X560307Y435923D01*
X560315Y435941D01*
X560333Y436108D01*
X560333Y437605D01*
X560576Y437848D01*
X560618Y437906D01*
X560667Y437958D01*
X560689Y438005D01*
X560719Y438047D01*
X560740Y438116D01*
X560771Y438181D01*
X560776Y438233D01*
X560792Y438283D01*
X560790Y438354D01*
X560798Y438425D01*
X560787Y438476D01*
X560785Y438528D01*
X560761Y438596D01*
X560746Y438666D01*
X560719Y438711D01*
X560701Y438759D01*
X560656Y438815D01*
X560619Y438877D01*
X560580Y438911D01*
X560547Y438951D01*
X560487Y438990D01*
X560432Y439037D01*
X560384Y439056D01*
X560340Y439084D01*
X560271Y439102D01*
X560204Y439129D01*
X560133Y439137D01*
X560102Y439145D01*
X560079Y439143D01*
X560038Y439147D01*
X555839Y439147D01*
X553224Y441762D01*
X513616Y481370D01*
X513542Y481423D01*
X513472Y481483D01*
X513442Y481495D01*
X513416Y481514D01*
X513329Y481541D01*
X513244Y481575D01*
X513203Y481579D01*
X513181Y481586D01*
X513149Y481585D01*
X513078Y481593D01*
X512355Y481593D01*
X512348Y481600D01*
X512332Y481611D01*
X512320Y481627D01*
X512232Y481683D01*
X512149Y481743D01*
X512130Y481749D01*
X512113Y481760D01*
X512012Y481785D01*
X511913Y481816D01*
X511894Y481815D01*
X511874Y481820D01*
X511771Y481812D01*
X511668Y481809D01*
X511649Y481802D01*
X511629Y481801D01*
X511534Y481761D01*
X511437Y481725D01*
X511421Y481712D01*
X511403Y481705D01*
X511272Y481600D01*
X508725Y479053D01*
X504735Y479053D01*
X501913Y481875D01*
X501913Y485865D01*
X504735Y488687D01*
X508725Y488687D01*
X508732Y488680D01*
X508748Y488669D01*
X508760Y488653D01*
X508847Y488597D01*
X508931Y488537D01*
X508950Y488531D01*
X508967Y488520D01*
X509068Y488495D01*
X509166Y488464D01*
X509186Y488465D01*
X509206Y488460D01*
X509309Y488468D01*
X509412Y488471D01*
X509431Y488477D01*
X509451Y488479D01*
X509546Y488519D01*
X509643Y488555D01*
X509659Y488568D01*
X509677Y488575D01*
X509808Y488680D01*
X512355Y491227D01*
X516345Y491227D01*
X519167Y488405D01*
X519167Y487682D01*
X519181Y487592D01*
X519189Y487501D01*
X519201Y487472D01*
X519206Y487440D01*
X519249Y487359D01*
X519285Y487275D01*
X519311Y487243D01*
X519322Y487222D01*
X519345Y487200D01*
X519390Y487144D01*
X558998Y447536D01*
X559072Y447483D01*
X559142Y447423D01*
X559172Y447411D01*
X559198Y447392D01*
X559285Y447365D01*
X559370Y447331D01*
X559411Y447327D01*
X559433Y447320D01*
X559465Y447321D01*
X559536Y447313D01*
X560836Y447313D01*
X560926Y447327D01*
X561017Y447335D01*
X561046Y447347D01*
X561078Y447352D01*
X561159Y447395D01*
X561243Y447431D01*
X561275Y447457D01*
X561296Y447468D01*
X561318Y447491D01*
X561374Y447536D01*
X561885Y448047D01*
X565875Y448047D01*
X568697Y445225D01*
X568697Y441235D01*
X568055Y440593D01*
X568044Y440577D01*
X568028Y440565D01*
X567972Y440477D01*
X567912Y440394D01*
X567906Y440375D01*
X567895Y440358D01*
X567870Y440257D01*
X567839Y440158D01*
X567840Y440139D01*
X567835Y440119D01*
X567843Y440016D01*
X567846Y439913D01*
X567853Y439894D01*
X567854Y439874D01*
X567894Y439779D01*
X567930Y439682D01*
X567943Y439666D01*
X567950Y439648D01*
X568055Y439517D01*
X569194Y438378D01*
X569252Y438336D01*
X569304Y438287D01*
X569351Y438265D01*
X569393Y438235D01*
X569462Y438214D01*
X569527Y438183D01*
X569579Y438178D01*
X569629Y438162D01*
X569700Y438164D01*
X569771Y438156D01*
X569822Y438167D01*
X569874Y438169D01*
X569942Y438193D01*
X570012Y438208D01*
X570056Y438235D01*
X570105Y438253D01*
X570161Y438298D01*
X570223Y438335D01*
X570257Y438374D01*
X570297Y438407D01*
X570336Y438467D01*
X570383Y438522D01*
X570402Y438570D01*
X570430Y438614D01*
X570448Y438683D01*
X570475Y438750D01*
X570483Y438821D01*
X570491Y438852D01*
X570489Y438875D01*
X570493Y438916D01*
X570493Y442685D01*
X573315Y445507D01*
X577305Y445507D01*
X580127Y442685D01*
X580127Y438695D01*
X577305Y435873D01*
X573315Y435873D01*
X571266Y437922D01*
X571208Y437964D01*
X571156Y438013D01*
X571109Y438035D01*
X571067Y438065D01*
X570998Y438086D01*
X570933Y438117D01*
X570881Y438122D01*
X570831Y438138D01*
X570760Y438136D01*
X570689Y438144D01*
X570638Y438133D01*
X570586Y438131D01*
X570518Y438107D01*
X570448Y438092D01*
X570403Y438065D01*
X570355Y438047D01*
X570299Y438002D01*
X570237Y437965D01*
X570203Y437926D01*
X570163Y437893D01*
X570124Y437833D01*
X570077Y437778D01*
X570058Y437730D01*
X570030Y437686D01*
X570012Y437617D01*
X569985Y437550D01*
X569977Y437479D01*
X569969Y437448D01*
X569971Y437425D01*
X569967Y437384D01*
X569967Y433615D01*
X567145Y430793D01*
X563108Y430793D01*
X563088Y430790D01*
X563069Y430792D01*
X562967Y430770D01*
X562865Y430754D01*
X562848Y430744D01*
X562828Y430740D01*
X562739Y430687D01*
X562648Y430638D01*
X562634Y430624D01*
X562617Y430614D01*
X562550Y430535D01*
X562478Y430460D01*
X562470Y430442D01*
X562457Y430427D01*
X562418Y430331D01*
X562375Y430237D01*
X562373Y430217D01*
X562365Y430199D01*
X562347Y430032D01*
X562347Y428535D01*
X559525Y425713D01*
X555535Y425713D01*
G37*
%LPD*%
%LPC*%
G36*
X536542Y377510D02*
X536542Y377510D01*
X533720Y380332D01*
X533720Y384322D01*
X536542Y387144D01*
X537265Y387144D01*
X537355Y387158D01*
X537446Y387166D01*
X537475Y387178D01*
X537507Y387183D01*
X537588Y387226D01*
X537672Y387262D01*
X537704Y387288D01*
X537725Y387299D01*
X537747Y387322D01*
X537803Y387367D01*
X553299Y402863D01*
X617641Y402863D01*
X617954Y402550D01*
X618028Y402496D01*
X618098Y402437D01*
X618128Y402425D01*
X618154Y402406D01*
X618241Y402379D01*
X618326Y402345D01*
X618367Y402341D01*
X618389Y402334D01*
X618421Y402335D01*
X618492Y402327D01*
X619215Y402327D01*
X622037Y399505D01*
X622037Y395515D01*
X619215Y392693D01*
X615225Y392693D01*
X613444Y394474D01*
X613370Y394527D01*
X613300Y394587D01*
X613270Y394599D01*
X613244Y394618D01*
X613157Y394645D01*
X613072Y394679D01*
X613031Y394683D01*
X613009Y394690D01*
X612977Y394689D01*
X612906Y394697D01*
X556996Y394697D01*
X556906Y394683D01*
X556815Y394675D01*
X556786Y394663D01*
X556754Y394658D01*
X556673Y394615D01*
X556589Y394579D01*
X556557Y394553D01*
X556536Y394542D01*
X556514Y394519D01*
X556458Y394474D01*
X543577Y381593D01*
X543524Y381519D01*
X543464Y381449D01*
X543452Y381419D01*
X543433Y381393D01*
X543406Y381306D01*
X543372Y381221D01*
X543368Y381180D01*
X543361Y381158D01*
X543362Y381126D01*
X543354Y381055D01*
X543354Y380332D01*
X540532Y377510D01*
X536542Y377510D01*
G37*
%LPD*%
%LPC*%
G36*
X396785Y475243D02*
X396785Y475243D01*
X396274Y475754D01*
X396200Y475807D01*
X396130Y475867D01*
X396100Y475879D01*
X396074Y475898D01*
X395987Y475925D01*
X395902Y475959D01*
X395861Y475963D01*
X395839Y475970D01*
X395807Y475969D01*
X395736Y475977D01*
X357719Y475977D01*
X353596Y480100D01*
X353522Y480153D01*
X353452Y480213D01*
X353422Y480225D01*
X353396Y480244D01*
X353309Y480271D01*
X353224Y480305D01*
X353183Y480309D01*
X353161Y480316D01*
X353129Y480315D01*
X353058Y480323D01*
X352335Y480323D01*
X349513Y483145D01*
X349513Y487135D01*
X352335Y489957D01*
X356325Y489957D01*
X359147Y487135D01*
X359147Y486412D01*
X359161Y486323D01*
X359169Y486231D01*
X359181Y486202D01*
X359186Y486170D01*
X359229Y486089D01*
X359265Y486005D01*
X359291Y485973D01*
X359302Y485952D01*
X359325Y485930D01*
X359370Y485874D01*
X359644Y485600D01*
X359702Y485558D01*
X359754Y485509D01*
X359801Y485487D01*
X359843Y485457D01*
X359912Y485435D01*
X359977Y485405D01*
X360029Y485400D01*
X360079Y485384D01*
X360150Y485386D01*
X360221Y485378D01*
X360272Y485389D01*
X360324Y485391D01*
X360392Y485415D01*
X360462Y485430D01*
X360507Y485457D01*
X360555Y485475D01*
X360611Y485520D01*
X360673Y485557D01*
X360707Y485596D01*
X360747Y485629D01*
X360786Y485689D01*
X360833Y485744D01*
X360852Y485792D01*
X360880Y485836D01*
X360898Y485905D01*
X360925Y485972D01*
X360933Y486043D01*
X360941Y486074D01*
X360939Y486097D01*
X360943Y486138D01*
X360943Y489675D01*
X363765Y492497D01*
X367026Y492497D01*
X367096Y492508D01*
X367168Y492510D01*
X367217Y492528D01*
X367268Y492536D01*
X367332Y492570D01*
X367399Y492595D01*
X367440Y492627D01*
X367486Y492652D01*
X367535Y492704D01*
X367591Y492748D01*
X367619Y492792D01*
X367655Y492830D01*
X367685Y492895D01*
X367724Y492955D01*
X367737Y493006D01*
X367759Y493053D01*
X367767Y493124D01*
X367784Y493194D01*
X367780Y493246D01*
X367786Y493297D01*
X367771Y493368D01*
X367765Y493439D01*
X367745Y493487D01*
X367734Y493538D01*
X367697Y493599D01*
X367669Y493665D01*
X367624Y493721D01*
X367607Y493749D01*
X367590Y493764D01*
X367564Y493796D01*
X365515Y495845D01*
X365515Y499835D01*
X368337Y502657D01*
X372327Y502657D01*
X372334Y502650D01*
X372350Y502639D01*
X372362Y502623D01*
X372450Y502567D01*
X372533Y502507D01*
X372552Y502501D01*
X372569Y502490D01*
X372670Y502465D01*
X372769Y502434D01*
X372788Y502435D01*
X372808Y502430D01*
X372911Y502438D01*
X373014Y502441D01*
X373033Y502448D01*
X373053Y502449D01*
X373148Y502489D01*
X373245Y502525D01*
X373261Y502538D01*
X373279Y502545D01*
X373410Y502650D01*
X375957Y505197D01*
X379947Y505197D01*
X382769Y502375D01*
X382769Y498385D01*
X379947Y495563D01*
X375957Y495563D01*
X375950Y495570D01*
X375934Y495581D01*
X375922Y495597D01*
X375835Y495653D01*
X375751Y495713D01*
X375732Y495719D01*
X375715Y495730D01*
X375614Y495755D01*
X375516Y495786D01*
X375496Y495785D01*
X375476Y495790D01*
X375373Y495782D01*
X375270Y495779D01*
X375251Y495773D01*
X375231Y495771D01*
X375136Y495731D01*
X375039Y495695D01*
X375023Y495682D01*
X375005Y495675D01*
X374874Y495570D01*
X372327Y493023D01*
X369066Y493023D01*
X368996Y493012D01*
X368924Y493010D01*
X368875Y492992D01*
X368824Y492984D01*
X368760Y492950D01*
X368693Y492925D01*
X368652Y492893D01*
X368606Y492868D01*
X368557Y492816D01*
X368501Y492772D01*
X368473Y492728D01*
X368437Y492690D01*
X368407Y492625D01*
X368368Y492565D01*
X368355Y492514D01*
X368333Y492467D01*
X368325Y492396D01*
X368308Y492326D01*
X368312Y492274D01*
X368306Y492223D01*
X368321Y492152D01*
X368327Y492081D01*
X368347Y492033D01*
X368358Y491982D01*
X368395Y491921D01*
X368423Y491855D01*
X368468Y491799D01*
X368485Y491771D01*
X368502Y491756D01*
X368528Y491724D01*
X370577Y489675D01*
X370577Y485685D01*
X370334Y485442D01*
X370292Y485384D01*
X370243Y485332D01*
X370221Y485285D01*
X370191Y485243D01*
X370170Y485174D01*
X370139Y485109D01*
X370134Y485057D01*
X370118Y485007D01*
X370120Y484936D01*
X370112Y484865D01*
X370123Y484814D01*
X370125Y484762D01*
X370149Y484694D01*
X370164Y484624D01*
X370191Y484579D01*
X370209Y484531D01*
X370254Y484475D01*
X370291Y484413D01*
X370330Y484379D01*
X370363Y484339D01*
X370423Y484300D01*
X370478Y484253D01*
X370526Y484234D01*
X370570Y484206D01*
X370639Y484188D01*
X370706Y484161D01*
X370777Y484153D01*
X370808Y484145D01*
X370831Y484147D01*
X370872Y484143D01*
X395736Y484143D01*
X395826Y484157D01*
X395917Y484165D01*
X395946Y484177D01*
X395978Y484182D01*
X396059Y484225D01*
X396143Y484261D01*
X396175Y484287D01*
X396196Y484298D01*
X396218Y484321D01*
X396274Y484366D01*
X396785Y484877D01*
X400775Y484877D01*
X403597Y482055D01*
X403597Y478065D01*
X400775Y475243D01*
X396785Y475243D01*
G37*
%LPD*%
%LPC*%
G36*
X706665Y609863D02*
X706665Y609863D01*
X703843Y612685D01*
X703843Y616722D01*
X703840Y616742D01*
X703842Y616761D01*
X703820Y616863D01*
X703804Y616965D01*
X703794Y616982D01*
X703790Y617002D01*
X703737Y617091D01*
X703688Y617182D01*
X703674Y617196D01*
X703664Y617213D01*
X703585Y617280D01*
X703510Y617352D01*
X703492Y617360D01*
X703477Y617373D01*
X703381Y617412D01*
X703287Y617455D01*
X703267Y617457D01*
X703249Y617465D01*
X703082Y617483D01*
X699365Y617483D01*
X698088Y618760D01*
X698072Y618771D01*
X698060Y618787D01*
X697972Y618843D01*
X697889Y618903D01*
X697870Y618909D01*
X697853Y618920D01*
X697752Y618945D01*
X697653Y618976D01*
X697634Y618975D01*
X697614Y618980D01*
X697511Y618972D01*
X697408Y618969D01*
X697389Y618962D01*
X697369Y618961D01*
X697274Y618921D01*
X697177Y618885D01*
X697161Y618872D01*
X697143Y618865D01*
X697012Y618760D01*
X695735Y617483D01*
X691745Y617483D01*
X689833Y619395D01*
X689817Y619406D01*
X689805Y619422D01*
X689718Y619478D01*
X689634Y619538D01*
X689615Y619544D01*
X689598Y619555D01*
X689497Y619580D01*
X689398Y619611D01*
X689379Y619610D01*
X689359Y619615D01*
X689256Y619607D01*
X689153Y619604D01*
X689134Y619597D01*
X689114Y619596D01*
X689019Y619556D01*
X688922Y619520D01*
X688906Y619507D01*
X688888Y619500D01*
X688757Y619395D01*
X686845Y617483D01*
X682855Y617483D01*
X681597Y618741D01*
X681581Y618752D01*
X681569Y618768D01*
X681481Y618824D01*
X681398Y618884D01*
X681379Y618890D01*
X681362Y618901D01*
X681261Y618926D01*
X681162Y618957D01*
X681143Y618956D01*
X681123Y618961D01*
X681020Y618953D01*
X680917Y618950D01*
X680898Y618943D01*
X680878Y618942D01*
X680783Y618902D01*
X680686Y618866D01*
X680670Y618853D01*
X680652Y618846D01*
X680521Y618741D01*
X679263Y617483D01*
X675273Y617483D01*
X673977Y618779D01*
X673961Y618790D01*
X673949Y618806D01*
X673862Y618862D01*
X673778Y618922D01*
X673759Y618928D01*
X673742Y618939D01*
X673641Y618964D01*
X673542Y618995D01*
X673523Y618994D01*
X673503Y618999D01*
X673400Y618991D01*
X673297Y618988D01*
X673278Y618981D01*
X673258Y618980D01*
X673163Y618940D01*
X673066Y618904D01*
X673050Y618891D01*
X673032Y618884D01*
X672901Y618779D01*
X671605Y617483D01*
X667615Y617483D01*
X666338Y618760D01*
X666322Y618771D01*
X666310Y618787D01*
X666222Y618843D01*
X666139Y618903D01*
X666120Y618909D01*
X666103Y618920D01*
X666002Y618945D01*
X665903Y618976D01*
X665884Y618975D01*
X665864Y618980D01*
X665761Y618972D01*
X665658Y618969D01*
X665639Y618962D01*
X665619Y618961D01*
X665524Y618921D01*
X665427Y618885D01*
X665411Y618872D01*
X665393Y618865D01*
X665262Y618760D01*
X663985Y617483D01*
X659995Y617483D01*
X658718Y618760D01*
X658702Y618771D01*
X658690Y618787D01*
X658602Y618843D01*
X658519Y618903D01*
X658500Y618909D01*
X658483Y618920D01*
X658382Y618945D01*
X658283Y618976D01*
X658264Y618975D01*
X658244Y618980D01*
X658141Y618972D01*
X658038Y618969D01*
X658019Y618962D01*
X657999Y618961D01*
X657904Y618921D01*
X657807Y618885D01*
X657791Y618872D01*
X657773Y618865D01*
X657642Y618760D01*
X656365Y617483D01*
X652375Y617483D01*
X649553Y620305D01*
X649553Y624295D01*
X652375Y627117D01*
X656365Y627117D01*
X657642Y625840D01*
X657658Y625829D01*
X657670Y625813D01*
X657758Y625757D01*
X657841Y625697D01*
X657860Y625691D01*
X657877Y625680D01*
X657978Y625655D01*
X658077Y625624D01*
X658096Y625625D01*
X658116Y625620D01*
X658219Y625628D01*
X658322Y625631D01*
X658341Y625638D01*
X658361Y625639D01*
X658456Y625679D01*
X658553Y625715D01*
X658569Y625728D01*
X658587Y625735D01*
X658718Y625840D01*
X659995Y627117D01*
X663985Y627117D01*
X665262Y625840D01*
X665278Y625829D01*
X665290Y625813D01*
X665378Y625757D01*
X665461Y625697D01*
X665480Y625691D01*
X665497Y625680D01*
X665598Y625655D01*
X665697Y625624D01*
X665716Y625625D01*
X665736Y625620D01*
X665839Y625628D01*
X665942Y625631D01*
X665961Y625638D01*
X665981Y625639D01*
X666076Y625679D01*
X666173Y625715D01*
X666189Y625728D01*
X666207Y625735D01*
X666338Y625840D01*
X667615Y627117D01*
X671605Y627117D01*
X672901Y625821D01*
X672917Y625810D01*
X672929Y625794D01*
X673017Y625738D01*
X673100Y625678D01*
X673119Y625672D01*
X673136Y625661D01*
X673237Y625636D01*
X673336Y625605D01*
X673355Y625606D01*
X673375Y625601D01*
X673478Y625609D01*
X673581Y625612D01*
X673600Y625619D01*
X673620Y625620D01*
X673715Y625660D01*
X673812Y625696D01*
X673828Y625709D01*
X673846Y625716D01*
X673977Y625821D01*
X675273Y627117D01*
X679263Y627117D01*
X680521Y625859D01*
X680537Y625848D01*
X680549Y625832D01*
X680637Y625776D01*
X680720Y625716D01*
X680739Y625710D01*
X680756Y625699D01*
X680857Y625674D01*
X680956Y625643D01*
X680975Y625644D01*
X680995Y625639D01*
X681098Y625647D01*
X681201Y625650D01*
X681220Y625657D01*
X681240Y625658D01*
X681335Y625698D01*
X681432Y625734D01*
X681448Y625747D01*
X681466Y625754D01*
X681597Y625859D01*
X682855Y627117D01*
X686845Y627117D01*
X688757Y625205D01*
X688773Y625194D01*
X688785Y625178D01*
X688873Y625122D01*
X688956Y625062D01*
X688975Y625056D01*
X688992Y625045D01*
X689093Y625020D01*
X689192Y624989D01*
X689211Y624990D01*
X689231Y624985D01*
X689334Y624993D01*
X689437Y624996D01*
X689456Y625003D01*
X689476Y625004D01*
X689571Y625044D01*
X689668Y625080D01*
X689684Y625093D01*
X689702Y625100D01*
X689833Y625205D01*
X691745Y627117D01*
X695735Y627117D01*
X697012Y625840D01*
X697028Y625829D01*
X697040Y625813D01*
X697128Y625757D01*
X697211Y625697D01*
X697230Y625691D01*
X697247Y625680D01*
X697348Y625655D01*
X697447Y625624D01*
X697466Y625625D01*
X697486Y625620D01*
X697589Y625628D01*
X697692Y625631D01*
X697711Y625638D01*
X697731Y625639D01*
X697826Y625679D01*
X697923Y625715D01*
X697939Y625728D01*
X697957Y625735D01*
X698088Y625840D01*
X699365Y627117D01*
X703355Y627117D01*
X706177Y624295D01*
X706177Y620258D01*
X706180Y620238D01*
X706178Y620219D01*
X706200Y620117D01*
X706216Y620015D01*
X706226Y619998D01*
X706230Y619978D01*
X706283Y619889D01*
X706332Y619798D01*
X706346Y619784D01*
X706356Y619767D01*
X706435Y619700D01*
X706510Y619628D01*
X706528Y619620D01*
X706543Y619607D01*
X706639Y619568D01*
X706733Y619525D01*
X706753Y619523D01*
X706771Y619515D01*
X706938Y619497D01*
X710655Y619497D01*
X713477Y616675D01*
X713477Y612685D01*
X710655Y609863D01*
X706665Y609863D01*
G37*
%LPD*%
%LPC*%
G36*
X472985Y462543D02*
X472985Y462543D01*
X470163Y465365D01*
X470163Y466088D01*
X470149Y466178D01*
X470141Y466269D01*
X470129Y466298D01*
X470124Y466330D01*
X470081Y466411D01*
X470045Y466495D01*
X470019Y466527D01*
X470008Y466548D01*
X469985Y466570D01*
X469940Y466626D01*
X464622Y471944D01*
X464548Y471997D01*
X464478Y472057D01*
X464448Y472069D01*
X464422Y472088D01*
X464335Y472115D01*
X464250Y472149D01*
X464209Y472153D01*
X464187Y472160D01*
X464155Y472159D01*
X464084Y472167D01*
X443734Y472167D01*
X443644Y472153D01*
X443553Y472145D01*
X443524Y472133D01*
X443492Y472128D01*
X443411Y472085D01*
X443327Y472049D01*
X443295Y472023D01*
X443274Y472012D01*
X443252Y471989D01*
X443196Y471944D01*
X442685Y471433D01*
X438695Y471433D01*
X435873Y474255D01*
X435873Y478245D01*
X438695Y481067D01*
X442685Y481067D01*
X443196Y480556D01*
X443270Y480503D01*
X443340Y480443D01*
X443370Y480431D01*
X443396Y480412D01*
X443483Y480385D01*
X443568Y480351D01*
X443609Y480347D01*
X443631Y480340D01*
X443663Y480341D01*
X443734Y480333D01*
X467781Y480333D01*
X475714Y472400D01*
X475788Y472347D01*
X475858Y472287D01*
X475888Y472275D01*
X475914Y472256D01*
X476001Y472229D01*
X476086Y472195D01*
X476127Y472191D01*
X476149Y472184D01*
X476181Y472185D01*
X476252Y472177D01*
X476754Y472177D01*
X476824Y472188D01*
X476896Y472190D01*
X476945Y472208D01*
X476996Y472216D01*
X477060Y472250D01*
X477127Y472275D01*
X477168Y472307D01*
X477214Y472332D01*
X477263Y472384D01*
X477319Y472428D01*
X477347Y472472D01*
X477383Y472510D01*
X477413Y472575D01*
X477452Y472635D01*
X477465Y472686D01*
X477487Y472733D01*
X477495Y472804D01*
X477512Y472874D01*
X477508Y472926D01*
X477514Y472977D01*
X477499Y473048D01*
X477493Y473119D01*
X477473Y473167D01*
X477462Y473218D01*
X477425Y473279D01*
X477397Y473345D01*
X477352Y473401D01*
X477335Y473429D01*
X477318Y473444D01*
X477292Y473476D01*
X476259Y474509D01*
X476259Y478499D01*
X479081Y481321D01*
X479802Y481321D01*
X479872Y481332D01*
X479944Y481334D01*
X479993Y481352D01*
X480044Y481360D01*
X480108Y481394D01*
X480175Y481419D01*
X480216Y481451D01*
X480262Y481476D01*
X480311Y481527D01*
X480367Y481572D01*
X480395Y481616D01*
X480431Y481654D01*
X480461Y481719D01*
X480500Y481779D01*
X480513Y481830D01*
X480535Y481877D01*
X480543Y481948D01*
X480560Y482018D01*
X480556Y482070D01*
X480562Y482121D01*
X480547Y482192D01*
X480541Y482263D01*
X480521Y482311D01*
X480510Y482362D01*
X480473Y482423D01*
X480445Y482489D01*
X480400Y482545D01*
X480383Y482573D01*
X480366Y482588D01*
X480340Y482620D01*
X480323Y482637D01*
X480323Y486627D01*
X483145Y489449D01*
X487135Y489449D01*
X489957Y486627D01*
X489957Y482637D01*
X487135Y479815D01*
X486414Y479815D01*
X486344Y479804D01*
X486272Y479802D01*
X486223Y479784D01*
X486172Y479776D01*
X486108Y479742D01*
X486041Y479717D01*
X486000Y479685D01*
X485954Y479660D01*
X485905Y479609D01*
X485849Y479564D01*
X485821Y479520D01*
X485785Y479482D01*
X485755Y479417D01*
X485716Y479357D01*
X485703Y479306D01*
X485681Y479259D01*
X485673Y479188D01*
X485656Y479118D01*
X485660Y479066D01*
X485654Y479015D01*
X485669Y478944D01*
X485675Y478873D01*
X485695Y478825D01*
X485706Y478774D01*
X485743Y478713D01*
X485771Y478647D01*
X485816Y478591D01*
X485833Y478563D01*
X485850Y478548D01*
X485876Y478516D01*
X485893Y478499D01*
X485893Y474509D01*
X483071Y471687D01*
X479302Y471687D01*
X479232Y471676D01*
X479160Y471674D01*
X479111Y471656D01*
X479060Y471648D01*
X478996Y471614D01*
X478929Y471589D01*
X478888Y471557D01*
X478842Y471532D01*
X478793Y471480D01*
X478737Y471436D01*
X478709Y471392D01*
X478673Y471354D01*
X478643Y471289D01*
X478604Y471229D01*
X478591Y471178D01*
X478569Y471131D01*
X478561Y471060D01*
X478544Y470990D01*
X478548Y470938D01*
X478542Y470887D01*
X478557Y470816D01*
X478563Y470745D01*
X478583Y470697D01*
X478594Y470646D01*
X478631Y470585D01*
X478659Y470519D01*
X478704Y470463D01*
X478721Y470435D01*
X478738Y470420D01*
X478764Y470388D01*
X479797Y469355D01*
X479797Y465365D01*
X476975Y462543D01*
X472985Y462543D01*
G37*
%LPD*%
%LPC*%
G36*
X326935Y207273D02*
X326935Y207273D01*
X324113Y210095D01*
X324113Y214085D01*
X326162Y216134D01*
X326204Y216192D01*
X326253Y216244D01*
X326275Y216291D01*
X326305Y216333D01*
X326326Y216402D01*
X326357Y216467D01*
X326362Y216519D01*
X326378Y216569D01*
X326376Y216640D01*
X326384Y216711D01*
X326373Y216762D01*
X326371Y216814D01*
X326347Y216882D01*
X326332Y216952D01*
X326305Y216997D01*
X326287Y217045D01*
X326242Y217101D01*
X326205Y217163D01*
X326166Y217197D01*
X326133Y217237D01*
X326073Y217276D01*
X326018Y217323D01*
X325970Y217342D01*
X325926Y217370D01*
X325857Y217388D01*
X325790Y217415D01*
X325719Y217423D01*
X325688Y217431D01*
X325665Y217429D01*
X325624Y217433D01*
X324395Y217433D01*
X321573Y220255D01*
X321573Y224245D01*
X324395Y227067D01*
X325892Y227067D01*
X325912Y227070D01*
X325931Y227068D01*
X326033Y227090D01*
X326135Y227106D01*
X326152Y227116D01*
X326172Y227120D01*
X326261Y227173D01*
X326352Y227222D01*
X326366Y227236D01*
X326383Y227246D01*
X326450Y227325D01*
X326522Y227400D01*
X326530Y227418D01*
X326543Y227433D01*
X326582Y227529D01*
X326625Y227623D01*
X326627Y227643D01*
X326635Y227661D01*
X326653Y227828D01*
X326653Y230642D01*
X326650Y230662D01*
X326652Y230681D01*
X326630Y230783D01*
X326614Y230885D01*
X326604Y230902D01*
X326600Y230922D01*
X326547Y231011D01*
X326498Y231102D01*
X326484Y231116D01*
X326474Y231133D01*
X326395Y231200D01*
X326320Y231272D01*
X326302Y231280D01*
X326287Y231293D01*
X326191Y231332D01*
X326097Y231375D01*
X326077Y231377D01*
X326059Y231385D01*
X325892Y231403D01*
X325157Y231403D01*
X322335Y234225D01*
X322335Y236765D01*
X322332Y236785D01*
X322334Y236805D01*
X322312Y236906D01*
X322296Y237008D01*
X322286Y237026D01*
X322282Y237045D01*
X322229Y237134D01*
X322180Y237225D01*
X322166Y237239D01*
X322156Y237256D01*
X322077Y237324D01*
X322002Y237395D01*
X321984Y237403D01*
X321969Y237416D01*
X321873Y237455D01*
X321779Y237498D01*
X321759Y237501D01*
X321741Y237508D01*
X321574Y237527D01*
X320538Y237527D01*
X320518Y237523D01*
X320499Y237526D01*
X320397Y237504D01*
X320295Y237487D01*
X320278Y237478D01*
X320258Y237473D01*
X320169Y237420D01*
X320078Y237372D01*
X320064Y237357D01*
X320047Y237347D01*
X319980Y237268D01*
X319908Y237193D01*
X319900Y237175D01*
X319887Y237160D01*
X319848Y237064D01*
X319805Y236970D01*
X319803Y236951D01*
X319795Y236932D01*
X319777Y236765D01*
X316955Y233943D01*
X312965Y233943D01*
X310143Y236765D01*
X310143Y240755D01*
X312965Y243577D01*
X316521Y243577D01*
X316541Y243580D01*
X316561Y243578D01*
X316662Y243600D01*
X316764Y243616D01*
X316782Y243626D01*
X316801Y243630D01*
X316890Y243683D01*
X316981Y243732D01*
X316995Y243746D01*
X317012Y243756D01*
X317080Y243835D01*
X317151Y243910D01*
X317159Y243928D01*
X317172Y243943D01*
X317211Y244039D01*
X317254Y244133D01*
X317257Y244153D01*
X317264Y244171D01*
X317283Y244338D01*
X320104Y247160D01*
X324094Y247160D01*
X326916Y244338D01*
X326916Y241798D01*
X326919Y241778D01*
X326917Y241759D01*
X326939Y241657D01*
X326956Y241555D01*
X326965Y241538D01*
X326969Y241518D01*
X327023Y241429D01*
X327071Y241338D01*
X327085Y241324D01*
X327096Y241307D01*
X327174Y241240D01*
X327249Y241168D01*
X327267Y241160D01*
X327282Y241147D01*
X327379Y241108D01*
X327472Y241065D01*
X327492Y241063D01*
X327511Y241055D01*
X327677Y241037D01*
X329147Y241037D01*
X331969Y238215D01*
X331969Y234178D01*
X331972Y234158D01*
X331970Y234139D01*
X331992Y234037D01*
X332008Y233935D01*
X332018Y233918D01*
X332022Y233898D01*
X332075Y233809D01*
X332124Y233718D01*
X332138Y233704D01*
X332148Y233687D01*
X332227Y233620D01*
X332302Y233548D01*
X332320Y233540D01*
X332335Y233527D01*
X332431Y233488D01*
X332525Y233445D01*
X332545Y233443D01*
X332563Y233435D01*
X332730Y233417D01*
X333465Y233417D01*
X336287Y230595D01*
X336287Y226605D01*
X333465Y223783D01*
X331968Y223783D01*
X331948Y223780D01*
X331929Y223782D01*
X331827Y223760D01*
X331725Y223744D01*
X331708Y223734D01*
X331688Y223730D01*
X331599Y223677D01*
X331508Y223628D01*
X331494Y223614D01*
X331477Y223604D01*
X331410Y223525D01*
X331338Y223450D01*
X331330Y223432D01*
X331317Y223417D01*
X331278Y223321D01*
X331235Y223227D01*
X331233Y223207D01*
X331225Y223189D01*
X331207Y223022D01*
X331207Y220255D01*
X329158Y218206D01*
X329116Y218148D01*
X329067Y218096D01*
X329045Y218049D01*
X329015Y218007D01*
X328994Y217938D01*
X328963Y217873D01*
X328958Y217821D01*
X328942Y217771D01*
X328944Y217700D01*
X328936Y217629D01*
X328947Y217578D01*
X328949Y217526D01*
X328973Y217458D01*
X328988Y217388D01*
X329015Y217343D01*
X329033Y217295D01*
X329078Y217239D01*
X329115Y217177D01*
X329154Y217143D01*
X329187Y217103D01*
X329247Y217064D01*
X329302Y217017D01*
X329350Y216998D01*
X329394Y216970D01*
X329463Y216952D01*
X329530Y216925D01*
X329601Y216917D01*
X329632Y216909D01*
X329655Y216911D01*
X329696Y216907D01*
X330925Y216907D01*
X332974Y214858D01*
X333032Y214816D01*
X333084Y214767D01*
X333131Y214745D01*
X333173Y214715D01*
X333242Y214694D01*
X333307Y214663D01*
X333359Y214658D01*
X333409Y214642D01*
X333480Y214644D01*
X333551Y214636D01*
X333602Y214647D01*
X333654Y214649D01*
X333722Y214673D01*
X333792Y214688D01*
X333837Y214715D01*
X333885Y214733D01*
X333941Y214778D01*
X334003Y214815D01*
X334037Y214854D01*
X334077Y214887D01*
X334116Y214947D01*
X334163Y215002D01*
X334182Y215050D01*
X334210Y215094D01*
X334228Y215163D01*
X334255Y215230D01*
X334263Y215301D01*
X334271Y215332D01*
X334269Y215355D01*
X334273Y215396D01*
X334273Y216625D01*
X337095Y219447D01*
X341085Y219447D01*
X343907Y216625D01*
X343907Y212635D01*
X341085Y209813D01*
X337095Y209813D01*
X335046Y211862D01*
X334988Y211904D01*
X334936Y211953D01*
X334889Y211975D01*
X334847Y212005D01*
X334778Y212026D01*
X334713Y212057D01*
X334661Y212062D01*
X334611Y212078D01*
X334540Y212076D01*
X334469Y212084D01*
X334418Y212073D01*
X334366Y212071D01*
X334298Y212047D01*
X334228Y212032D01*
X334183Y212005D01*
X334135Y211987D01*
X334079Y211942D01*
X334017Y211905D01*
X333983Y211866D01*
X333943Y211833D01*
X333904Y211773D01*
X333857Y211718D01*
X333838Y211670D01*
X333810Y211626D01*
X333792Y211557D01*
X333765Y211490D01*
X333757Y211419D01*
X333749Y211388D01*
X333751Y211365D01*
X333747Y211324D01*
X333747Y210095D01*
X330925Y207273D01*
X326935Y207273D01*
G37*
%LPD*%
%LPC*%
G36*
X170217Y498611D02*
X170217Y498611D01*
X168178Y500650D01*
X168162Y500661D01*
X168150Y500677D01*
X168062Y500733D01*
X167979Y500793D01*
X167960Y500799D01*
X167943Y500810D01*
X167842Y500835D01*
X167743Y500866D01*
X167724Y500865D01*
X167704Y500870D01*
X167601Y500862D01*
X167498Y500859D01*
X167479Y500852D01*
X167459Y500851D01*
X167364Y500811D01*
X167267Y500775D01*
X167251Y500762D01*
X167233Y500755D01*
X167102Y500650D01*
X166079Y499627D01*
X162089Y499627D01*
X159267Y502449D01*
X159267Y506439D01*
X162089Y509261D01*
X166079Y509261D01*
X168118Y507222D01*
X168134Y507211D01*
X168146Y507195D01*
X168234Y507139D01*
X168317Y507079D01*
X168337Y507073D01*
X168353Y507062D01*
X168454Y507037D01*
X168553Y507006D01*
X168573Y507007D01*
X168592Y507002D01*
X168695Y507010D01*
X168798Y507013D01*
X168817Y507020D01*
X168837Y507021D01*
X168932Y507061D01*
X169029Y507097D01*
X169045Y507110D01*
X169063Y507117D01*
X169194Y507222D01*
X169434Y507462D01*
X169445Y507478D01*
X169461Y507490D01*
X169517Y507578D01*
X169577Y507662D01*
X169583Y507680D01*
X169594Y507697D01*
X169619Y507798D01*
X169650Y507897D01*
X169649Y507916D01*
X169654Y507936D01*
X169646Y508039D01*
X169643Y508142D01*
X169636Y508161D01*
X169635Y508181D01*
X169595Y508276D01*
X169559Y508373D01*
X169546Y508389D01*
X169539Y508407D01*
X169434Y508538D01*
X167903Y510069D01*
X167903Y512074D01*
X167900Y512094D01*
X167902Y512113D01*
X167880Y512215D01*
X167864Y512317D01*
X167854Y512334D01*
X167850Y512354D01*
X167797Y512443D01*
X167748Y512534D01*
X167734Y512548D01*
X167724Y512565D01*
X167645Y512632D01*
X167570Y512704D01*
X167552Y512712D01*
X167537Y512725D01*
X167441Y512764D01*
X167347Y512807D01*
X167327Y512809D01*
X167309Y512817D01*
X167142Y512835D01*
X164629Y512835D01*
X161807Y515657D01*
X161807Y519647D01*
X163338Y521178D01*
X163349Y521194D01*
X163365Y521206D01*
X163421Y521294D01*
X163481Y521377D01*
X163487Y521396D01*
X163498Y521413D01*
X163523Y521514D01*
X163554Y521613D01*
X163553Y521632D01*
X163558Y521652D01*
X163550Y521755D01*
X163547Y521858D01*
X163540Y521877D01*
X163539Y521897D01*
X163499Y521992D01*
X163463Y522089D01*
X163450Y522105D01*
X163443Y522123D01*
X163363Y522223D01*
X163360Y522229D01*
X163356Y522232D01*
X163338Y522254D01*
X162315Y523277D01*
X162315Y527267D01*
X165137Y530089D01*
X167650Y530089D01*
X167670Y530092D01*
X167689Y530090D01*
X167791Y530112D01*
X167893Y530128D01*
X167910Y530138D01*
X167930Y530142D01*
X168019Y530195D01*
X168110Y530244D01*
X168124Y530258D01*
X168141Y530268D01*
X168208Y530347D01*
X168280Y530422D01*
X168288Y530440D01*
X168301Y530455D01*
X168340Y530551D01*
X168383Y530645D01*
X168385Y530665D01*
X168393Y530683D01*
X168411Y530850D01*
X168411Y531839D01*
X171233Y534661D01*
X175223Y534661D01*
X178045Y531839D01*
X178045Y527849D01*
X175223Y525027D01*
X172710Y525027D01*
X172690Y525024D01*
X172671Y525026D01*
X172569Y525004D01*
X172467Y524988D01*
X172450Y524978D01*
X172430Y524974D01*
X172341Y524921D01*
X172250Y524872D01*
X172236Y524858D01*
X172219Y524848D01*
X172152Y524769D01*
X172080Y524694D01*
X172072Y524676D01*
X172059Y524661D01*
X172020Y524565D01*
X171977Y524471D01*
X171975Y524451D01*
X171967Y524433D01*
X171949Y524266D01*
X171949Y523277D01*
X170418Y521746D01*
X170407Y521730D01*
X170391Y521718D01*
X170335Y521630D01*
X170275Y521547D01*
X170269Y521528D01*
X170258Y521511D01*
X170233Y521410D01*
X170202Y521311D01*
X170203Y521292D01*
X170198Y521272D01*
X170206Y521169D01*
X170209Y521066D01*
X170216Y521047D01*
X170217Y521027D01*
X170257Y520932D01*
X170293Y520835D01*
X170306Y520819D01*
X170313Y520801D01*
X170418Y520670D01*
X171441Y519647D01*
X171441Y517642D01*
X171444Y517622D01*
X171442Y517603D01*
X171464Y517501D01*
X171480Y517399D01*
X171490Y517382D01*
X171494Y517362D01*
X171547Y517273D01*
X171596Y517182D01*
X171610Y517168D01*
X171620Y517151D01*
X171699Y517084D01*
X171774Y517012D01*
X171792Y517004D01*
X171807Y516991D01*
X171903Y516952D01*
X171997Y516909D01*
X172017Y516907D01*
X172035Y516899D01*
X172202Y516881D01*
X174715Y516881D01*
X177537Y514059D01*
X177537Y510069D01*
X175498Y508030D01*
X175487Y508014D01*
X175471Y508002D01*
X175415Y507914D01*
X175355Y507831D01*
X175349Y507812D01*
X175338Y507795D01*
X175313Y507694D01*
X175282Y507595D01*
X175283Y507576D01*
X175278Y507556D01*
X175286Y507453D01*
X175289Y507350D01*
X175296Y507331D01*
X175297Y507311D01*
X175337Y507216D01*
X175373Y507119D01*
X175386Y507103D01*
X175393Y507085D01*
X175498Y506954D01*
X177029Y505423D01*
X177029Y501433D01*
X174207Y498611D01*
X170217Y498611D01*
G37*
%LPD*%
%LPC*%
G36*
X392975Y393963D02*
X392975Y393963D01*
X390153Y396785D01*
X390153Y397508D01*
X390139Y397598D01*
X390131Y397689D01*
X390119Y397718D01*
X390114Y397750D01*
X390071Y397831D01*
X390035Y397915D01*
X390009Y397947D01*
X389998Y397968D01*
X389975Y397990D01*
X389930Y398046D01*
X376992Y410984D01*
X376918Y411037D01*
X376848Y411097D01*
X376818Y411109D01*
X376792Y411128D01*
X376705Y411155D01*
X376620Y411189D01*
X376579Y411193D01*
X376557Y411200D01*
X376525Y411199D01*
X376454Y411207D01*
X364496Y411207D01*
X364406Y411193D01*
X364315Y411185D01*
X364286Y411173D01*
X364254Y411168D01*
X364173Y411125D01*
X364089Y411089D01*
X364057Y411063D01*
X364036Y411052D01*
X364014Y411029D01*
X363958Y410984D01*
X363447Y410473D01*
X359457Y410473D01*
X356635Y413295D01*
X356635Y417285D01*
X359457Y420107D01*
X363447Y420107D01*
X363958Y419596D01*
X364032Y419543D01*
X364102Y419483D01*
X364132Y419471D01*
X364158Y419452D01*
X364245Y419425D01*
X364330Y419391D01*
X364371Y419387D01*
X364393Y419380D01*
X364425Y419381D01*
X364496Y419373D01*
X380151Y419373D01*
X395704Y403820D01*
X395778Y403767D01*
X395848Y403707D01*
X395878Y403695D01*
X395904Y403676D01*
X395991Y403649D01*
X396076Y403615D01*
X396117Y403611D01*
X396139Y403604D01*
X396171Y403605D01*
X396242Y403597D01*
X396965Y403597D01*
X399787Y400775D01*
X399787Y396785D01*
X396965Y393963D01*
X392975Y393963D01*
G37*
%LPD*%
%LPC*%
G36*
X345985Y532647D02*
X345985Y532647D01*
X343163Y535469D01*
X343163Y539459D01*
X345985Y542281D01*
X349975Y542281D01*
X351008Y541248D01*
X351066Y541206D01*
X351118Y541157D01*
X351165Y541135D01*
X351207Y541105D01*
X351276Y541084D01*
X351341Y541053D01*
X351393Y541048D01*
X351443Y541032D01*
X351514Y541034D01*
X351585Y541026D01*
X351636Y541037D01*
X351688Y541039D01*
X351756Y541063D01*
X351826Y541078D01*
X351871Y541105D01*
X351919Y541123D01*
X351975Y541168D01*
X352037Y541205D01*
X352071Y541244D01*
X352111Y541277D01*
X352145Y541329D01*
X355129Y544313D01*
X356907Y544313D01*
X356927Y544316D01*
X356947Y544314D01*
X357048Y544336D01*
X357150Y544352D01*
X357168Y544362D01*
X357187Y544366D01*
X357276Y544419D01*
X357367Y544468D01*
X357381Y544482D01*
X357398Y544492D01*
X357466Y544571D01*
X357537Y544646D01*
X357545Y544664D01*
X357558Y544679D01*
X357597Y544775D01*
X357640Y544869D01*
X357643Y544889D01*
X357650Y544907D01*
X357669Y545074D01*
X357669Y546852D01*
X360490Y549674D01*
X364480Y549674D01*
X364724Y549431D01*
X364782Y549389D01*
X364834Y549340D01*
X364881Y549318D01*
X364923Y549287D01*
X364992Y549266D01*
X365057Y549236D01*
X365109Y549230D01*
X365159Y549215D01*
X365230Y549217D01*
X365301Y549209D01*
X365352Y549220D01*
X365404Y549221D01*
X365472Y549246D01*
X365542Y549261D01*
X365587Y549288D01*
X365635Y549306D01*
X365691Y549350D01*
X365753Y549387D01*
X365787Y549427D01*
X365827Y549459D01*
X365866Y549520D01*
X365913Y549574D01*
X365932Y549623D01*
X365960Y549666D01*
X365978Y549736D01*
X366005Y549802D01*
X366013Y549874D01*
X366021Y549905D01*
X366019Y549928D01*
X366023Y549969D01*
X366023Y550635D01*
X368845Y553457D01*
X372835Y553457D01*
X374884Y551408D01*
X374942Y551366D01*
X374994Y551317D01*
X375041Y551295D01*
X375083Y551265D01*
X375152Y551244D01*
X375217Y551213D01*
X375269Y551208D01*
X375319Y551192D01*
X375390Y551194D01*
X375461Y551186D01*
X375512Y551197D01*
X375564Y551199D01*
X375632Y551223D01*
X375702Y551238D01*
X375747Y551265D01*
X375795Y551283D01*
X375851Y551328D01*
X375913Y551365D01*
X375947Y551404D01*
X375987Y551437D01*
X376026Y551497D01*
X376073Y551552D01*
X376092Y551600D01*
X376120Y551644D01*
X376138Y551713D01*
X376165Y551780D01*
X376173Y551851D01*
X376181Y551882D01*
X376179Y551905D01*
X376183Y551946D01*
X376183Y555715D01*
X379005Y558537D01*
X382995Y558537D01*
X385817Y555715D01*
X385817Y551725D01*
X382995Y548903D01*
X379005Y548903D01*
X376956Y550952D01*
X376898Y550994D01*
X376846Y551043D01*
X376799Y551065D01*
X376757Y551095D01*
X376688Y551116D01*
X376623Y551147D01*
X376571Y551152D01*
X376521Y551168D01*
X376450Y551166D01*
X376379Y551174D01*
X376328Y551163D01*
X376276Y551161D01*
X376208Y551137D01*
X376138Y551122D01*
X376093Y551095D01*
X376045Y551077D01*
X375989Y551032D01*
X375927Y550995D01*
X375893Y550956D01*
X375853Y550923D01*
X375814Y550863D01*
X375767Y550808D01*
X375748Y550760D01*
X375720Y550716D01*
X375702Y550647D01*
X375675Y550580D01*
X375667Y550509D01*
X375659Y550478D01*
X375661Y550455D01*
X375657Y550414D01*
X375657Y546645D01*
X372835Y543823D01*
X368845Y543823D01*
X368602Y544067D01*
X368543Y544108D01*
X368491Y544158D01*
X368444Y544180D01*
X368402Y544210D01*
X368333Y544231D01*
X368268Y544261D01*
X368217Y544267D01*
X368167Y544282D01*
X368095Y544281D01*
X368024Y544288D01*
X367973Y544277D01*
X367921Y544276D01*
X367854Y544251D01*
X367783Y544236D01*
X367739Y544210D01*
X367690Y544192D01*
X367634Y544147D01*
X367572Y544110D01*
X367539Y544070D01*
X367498Y544038D01*
X367459Y543978D01*
X367412Y543923D01*
X367393Y543875D01*
X367365Y543831D01*
X367347Y543762D01*
X367321Y543695D01*
X367313Y543624D01*
X367305Y543593D01*
X367307Y543569D01*
X367302Y543528D01*
X367302Y542862D01*
X364480Y540041D01*
X362702Y540041D01*
X362682Y540037D01*
X362663Y540040D01*
X362561Y540018D01*
X362459Y540001D01*
X362442Y539992D01*
X362422Y539987D01*
X362333Y539934D01*
X362242Y539886D01*
X362228Y539871D01*
X362211Y539861D01*
X362144Y539782D01*
X362072Y539707D01*
X362064Y539689D01*
X362051Y539674D01*
X362012Y539578D01*
X361969Y539484D01*
X361967Y539465D01*
X361959Y539446D01*
X361941Y539279D01*
X361941Y537501D01*
X359119Y534679D01*
X355129Y534679D01*
X354096Y535712D01*
X354038Y535754D01*
X353986Y535803D01*
X353939Y535825D01*
X353897Y535855D01*
X353828Y535876D01*
X353763Y535907D01*
X353711Y535912D01*
X353661Y535928D01*
X353590Y535926D01*
X353519Y535934D01*
X353468Y535923D01*
X353416Y535921D01*
X353348Y535897D01*
X353278Y535882D01*
X353233Y535855D01*
X353185Y535837D01*
X353129Y535792D01*
X353067Y535755D01*
X353033Y535716D01*
X352993Y535683D01*
X352959Y535631D01*
X349975Y532647D01*
X345985Y532647D01*
G37*
%LPD*%
%LPC*%
G36*
X589544Y563862D02*
X589544Y563862D01*
X586722Y566684D01*
X586722Y570674D01*
X589544Y573495D01*
X591322Y573495D01*
X591342Y573499D01*
X591361Y573496D01*
X591463Y573518D01*
X591565Y573535D01*
X591582Y573544D01*
X591602Y573549D01*
X591691Y573602D01*
X591782Y573650D01*
X591796Y573665D01*
X591813Y573675D01*
X591880Y573754D01*
X591952Y573829D01*
X591960Y573847D01*
X591973Y573862D01*
X592012Y573958D01*
X592055Y574052D01*
X592057Y574071D01*
X592065Y574090D01*
X592083Y574257D01*
X592083Y576035D01*
X594905Y578857D01*
X598942Y578857D01*
X598962Y578860D01*
X598981Y578858D01*
X599083Y578880D01*
X599185Y578896D01*
X599202Y578906D01*
X599222Y578910D01*
X599311Y578963D01*
X599402Y579012D01*
X599416Y579026D01*
X599433Y579036D01*
X599500Y579115D01*
X599572Y579190D01*
X599580Y579208D01*
X599593Y579223D01*
X599632Y579319D01*
X599675Y579413D01*
X599677Y579433D01*
X599685Y579451D01*
X599703Y579618D01*
X599703Y579845D01*
X602525Y582667D01*
X606515Y582667D01*
X608427Y580755D01*
X608443Y580744D01*
X608455Y580728D01*
X608543Y580672D01*
X608626Y580612D01*
X608645Y580606D01*
X608662Y580595D01*
X608763Y580570D01*
X608862Y580539D01*
X608881Y580540D01*
X608901Y580535D01*
X609004Y580543D01*
X609107Y580546D01*
X609126Y580553D01*
X609146Y580554D01*
X609241Y580594D01*
X609338Y580630D01*
X609354Y580643D01*
X609372Y580650D01*
X609503Y580755D01*
X611415Y582667D01*
X615405Y582667D01*
X616028Y582044D01*
X616044Y582033D01*
X616056Y582017D01*
X616144Y581961D01*
X616227Y581901D01*
X616246Y581895D01*
X616263Y581884D01*
X616364Y581859D01*
X616463Y581828D01*
X616482Y581829D01*
X616502Y581824D01*
X616605Y581832D01*
X616708Y581835D01*
X616727Y581842D01*
X616747Y581843D01*
X616842Y581883D01*
X616939Y581919D01*
X616955Y581932D01*
X616973Y581939D01*
X617104Y582044D01*
X618997Y583937D01*
X622987Y583937D01*
X625809Y581115D01*
X625809Y577125D01*
X622987Y574303D01*
X618997Y574303D01*
X618374Y574926D01*
X618358Y574937D01*
X618346Y574953D01*
X618258Y575009D01*
X618175Y575069D01*
X618156Y575075D01*
X618139Y575086D01*
X618038Y575111D01*
X617939Y575142D01*
X617920Y575141D01*
X617900Y575146D01*
X617797Y575138D01*
X617694Y575135D01*
X617675Y575128D01*
X617655Y575127D01*
X617560Y575087D01*
X617463Y575051D01*
X617447Y575038D01*
X617429Y575031D01*
X617298Y574926D01*
X615405Y573033D01*
X611415Y573033D01*
X609503Y574945D01*
X609487Y574956D01*
X609475Y574972D01*
X609387Y575028D01*
X609304Y575088D01*
X609285Y575094D01*
X609268Y575105D01*
X609167Y575130D01*
X609068Y575161D01*
X609049Y575160D01*
X609029Y575165D01*
X608926Y575157D01*
X608823Y575154D01*
X608804Y575147D01*
X608784Y575146D01*
X608689Y575106D01*
X608592Y575070D01*
X608576Y575057D01*
X608558Y575050D01*
X608427Y574945D01*
X606515Y573033D01*
X602478Y573033D01*
X602458Y573030D01*
X602439Y573032D01*
X602337Y573010D01*
X602235Y572994D01*
X602218Y572984D01*
X602198Y572980D01*
X602109Y572927D01*
X602018Y572878D01*
X602004Y572864D01*
X601987Y572854D01*
X601920Y572775D01*
X601848Y572700D01*
X601840Y572682D01*
X601827Y572667D01*
X601788Y572571D01*
X601745Y572477D01*
X601743Y572457D01*
X601735Y572439D01*
X601717Y572272D01*
X601717Y572045D01*
X598895Y569223D01*
X597117Y569223D01*
X597097Y569220D01*
X597077Y569222D01*
X596976Y569200D01*
X596874Y569184D01*
X596856Y569174D01*
X596837Y569170D01*
X596748Y569117D01*
X596657Y569068D01*
X596643Y569054D01*
X596626Y569044D01*
X596558Y568965D01*
X596487Y568890D01*
X596479Y568872D01*
X596466Y568857D01*
X596427Y568761D01*
X596384Y568667D01*
X596381Y568647D01*
X596374Y568629D01*
X596355Y568462D01*
X596355Y566684D01*
X593534Y563862D01*
X589544Y563862D01*
G37*
%LPD*%
%LPC*%
G36*
X510325Y606091D02*
X510325Y606091D01*
X507503Y608913D01*
X507503Y610417D01*
X507500Y610437D01*
X507502Y610457D01*
X507480Y610558D01*
X507464Y610660D01*
X507454Y610678D01*
X507450Y610697D01*
X507397Y610786D01*
X507348Y610877D01*
X507334Y610891D01*
X507324Y610908D01*
X507245Y610976D01*
X507170Y611047D01*
X507152Y611055D01*
X507137Y611068D01*
X507041Y611107D01*
X506947Y611150D01*
X506927Y611153D01*
X506909Y611160D01*
X506742Y611179D01*
X504690Y611179D01*
X501868Y614000D01*
X501868Y617990D01*
X504690Y620812D01*
X508680Y620812D01*
X508751Y620741D01*
X508767Y620730D01*
X508779Y620714D01*
X508867Y620658D01*
X508950Y620598D01*
X508969Y620592D01*
X508986Y620581D01*
X509087Y620556D01*
X509186Y620525D01*
X509205Y620526D01*
X509225Y620521D01*
X509328Y620529D01*
X509431Y620532D01*
X509450Y620539D01*
X509470Y620540D01*
X509565Y620580D01*
X509662Y620616D01*
X509678Y620629D01*
X509696Y620636D01*
X509827Y620741D01*
X512393Y623307D01*
X516383Y623307D01*
X517006Y622684D01*
X517022Y622673D01*
X517034Y622657D01*
X517122Y622601D01*
X517205Y622541D01*
X517224Y622535D01*
X517241Y622524D01*
X517342Y622499D01*
X517441Y622468D01*
X517460Y622469D01*
X517480Y622464D01*
X517583Y622472D01*
X517686Y622475D01*
X517705Y622482D01*
X517725Y622483D01*
X517820Y622523D01*
X517917Y622559D01*
X517933Y622572D01*
X517951Y622579D01*
X518082Y622684D01*
X519975Y624577D01*
X523965Y624577D01*
X526787Y621755D01*
X526787Y618988D01*
X526790Y618968D01*
X526788Y618949D01*
X526810Y618847D01*
X526826Y618745D01*
X526836Y618728D01*
X526840Y618708D01*
X526893Y618619D01*
X526942Y618528D01*
X526956Y618514D01*
X526966Y618497D01*
X527045Y618430D01*
X527120Y618358D01*
X527138Y618350D01*
X527153Y618337D01*
X527249Y618298D01*
X527343Y618255D01*
X527363Y618253D01*
X527381Y618245D01*
X527548Y618227D01*
X529045Y618227D01*
X531867Y615405D01*
X531867Y611415D01*
X529045Y608593D01*
X525055Y608593D01*
X522233Y611415D01*
X522233Y614182D01*
X522230Y614202D01*
X522232Y614221D01*
X522210Y614323D01*
X522194Y614425D01*
X522184Y614442D01*
X522180Y614462D01*
X522127Y614551D01*
X522078Y614642D01*
X522064Y614656D01*
X522054Y614673D01*
X521975Y614740D01*
X521900Y614812D01*
X521882Y614820D01*
X521867Y614833D01*
X521771Y614872D01*
X521677Y614915D01*
X521657Y614917D01*
X521639Y614925D01*
X521472Y614943D01*
X519975Y614943D01*
X519352Y615566D01*
X519336Y615577D01*
X519324Y615593D01*
X519236Y615649D01*
X519153Y615709D01*
X519134Y615715D01*
X519117Y615726D01*
X519016Y615751D01*
X518917Y615782D01*
X518898Y615781D01*
X518878Y615786D01*
X518775Y615778D01*
X518672Y615775D01*
X518653Y615768D01*
X518633Y615767D01*
X518538Y615727D01*
X518441Y615691D01*
X518425Y615678D01*
X518407Y615671D01*
X518276Y615566D01*
X516913Y614203D01*
X516902Y614187D01*
X516886Y614175D01*
X516830Y614087D01*
X516770Y614004D01*
X516764Y613985D01*
X516753Y613968D01*
X516728Y613867D01*
X516697Y613768D01*
X516698Y613749D01*
X516693Y613729D01*
X516701Y613626D01*
X516704Y613523D01*
X516711Y613504D01*
X516712Y613484D01*
X516752Y613389D01*
X516788Y613292D01*
X516801Y613276D01*
X516808Y613258D01*
X516913Y613127D01*
X517137Y612903D01*
X517137Y608913D01*
X514315Y606091D01*
X510325Y606091D01*
G37*
%LPD*%
%LPC*%
G36*
X622845Y514613D02*
X622845Y514613D01*
X620095Y517363D01*
X620079Y517375D01*
X620066Y517390D01*
X619979Y517446D01*
X619896Y517506D01*
X619876Y517512D01*
X619859Y517523D01*
X619759Y517548D01*
X619660Y517579D01*
X619640Y517578D01*
X619621Y517583D01*
X619518Y517575D01*
X619415Y517572D01*
X619396Y517565D01*
X619376Y517564D01*
X619365Y517559D01*
X615225Y517559D01*
X612403Y520381D01*
X612403Y524012D01*
X612400Y524032D01*
X612402Y524051D01*
X612380Y524153D01*
X612364Y524255D01*
X612354Y524272D01*
X612350Y524292D01*
X612297Y524381D01*
X612248Y524472D01*
X612234Y524486D01*
X612224Y524503D01*
X612145Y524570D01*
X612070Y524642D01*
X612052Y524650D01*
X612037Y524663D01*
X611941Y524702D01*
X611847Y524745D01*
X611827Y524747D01*
X611809Y524755D01*
X611642Y524773D01*
X610098Y524773D01*
X610078Y524770D01*
X610059Y524772D01*
X609957Y524750D01*
X609855Y524734D01*
X609838Y524724D01*
X609818Y524720D01*
X609729Y524667D01*
X609638Y524618D01*
X609624Y524604D01*
X609607Y524594D01*
X609540Y524515D01*
X609468Y524440D01*
X609460Y524422D01*
X609447Y524407D01*
X609408Y524311D01*
X609365Y524217D01*
X609363Y524197D01*
X609355Y524179D01*
X609337Y524012D01*
X609337Y522515D01*
X606515Y519693D01*
X602525Y519693D01*
X599703Y522515D01*
X599703Y526505D01*
X602525Y529327D01*
X605292Y529327D01*
X605312Y529330D01*
X605331Y529328D01*
X605433Y529350D01*
X605535Y529366D01*
X605552Y529376D01*
X605572Y529380D01*
X605661Y529433D01*
X605752Y529482D01*
X605766Y529496D01*
X605783Y529506D01*
X605850Y529585D01*
X605922Y529660D01*
X605930Y529678D01*
X605943Y529693D01*
X605982Y529789D01*
X606025Y529883D01*
X606027Y529903D01*
X606035Y529921D01*
X606053Y530088D01*
X606053Y531585D01*
X608875Y534407D01*
X612865Y534407D01*
X615687Y531585D01*
X615687Y527954D01*
X615690Y527934D01*
X615688Y527915D01*
X615710Y527813D01*
X615726Y527711D01*
X615736Y527694D01*
X615740Y527674D01*
X615793Y527585D01*
X615842Y527494D01*
X615856Y527480D01*
X615866Y527463D01*
X615945Y527396D01*
X616020Y527324D01*
X616038Y527316D01*
X616053Y527303D01*
X616149Y527264D01*
X616243Y527221D01*
X616263Y527219D01*
X616281Y527211D01*
X616448Y527193D01*
X619215Y527193D01*
X621965Y524443D01*
X621981Y524432D01*
X621993Y524416D01*
X622081Y524360D01*
X622164Y524300D01*
X622183Y524294D01*
X622200Y524283D01*
X622301Y524258D01*
X622400Y524227D01*
X622419Y524228D01*
X622439Y524223D01*
X622542Y524231D01*
X622645Y524234D01*
X622664Y524241D01*
X622684Y524242D01*
X622695Y524247D01*
X626835Y524247D01*
X629657Y521425D01*
X629657Y517435D01*
X626835Y514613D01*
X622845Y514613D01*
G37*
%LPD*%
%LPC*%
G36*
X252513Y454923D02*
X252513Y454923D01*
X249691Y457745D01*
X249691Y461735D01*
X251730Y463774D01*
X251741Y463790D01*
X251757Y463802D01*
X251813Y463890D01*
X251873Y463973D01*
X251879Y463992D01*
X251890Y464009D01*
X251915Y464110D01*
X251946Y464209D01*
X251945Y464228D01*
X251950Y464248D01*
X251942Y464351D01*
X251939Y464454D01*
X251932Y464473D01*
X251931Y464493D01*
X251891Y464588D01*
X251855Y464685D01*
X251842Y464701D01*
X251835Y464719D01*
X251730Y464850D01*
X250707Y465873D01*
X250707Y467610D01*
X250696Y467681D01*
X250694Y467753D01*
X250676Y467801D01*
X250668Y467852D01*
X250634Y467916D01*
X250609Y467984D01*
X250577Y468024D01*
X250552Y468070D01*
X250500Y468119D01*
X250455Y468176D01*
X250411Y468204D01*
X250374Y468239D01*
X250309Y468269D01*
X250248Y468308D01*
X250198Y468321D01*
X250151Y468343D01*
X250079Y468351D01*
X250009Y468368D01*
X249958Y468364D01*
X249907Y468370D01*
X249852Y468358D01*
X245628Y468358D01*
X242806Y471180D01*
X242806Y475170D01*
X245628Y477991D01*
X245882Y477991D01*
X245902Y477995D01*
X245921Y477992D01*
X246023Y478014D01*
X246125Y478031D01*
X246142Y478040D01*
X246162Y478045D01*
X246251Y478098D01*
X246342Y478146D01*
X246356Y478161D01*
X246373Y478171D01*
X246440Y478250D01*
X246512Y478325D01*
X246520Y478343D01*
X246533Y478358D01*
X246572Y478454D01*
X246615Y478548D01*
X246617Y478567D01*
X246625Y478586D01*
X246643Y478753D01*
X246643Y482055D01*
X249465Y484877D01*
X253455Y484877D01*
X256277Y482055D01*
X256277Y478065D01*
X253455Y475243D01*
X253201Y475243D01*
X253181Y475240D01*
X253161Y475242D01*
X253060Y475220D01*
X252958Y475204D01*
X252940Y475194D01*
X252921Y475190D01*
X252832Y475137D01*
X252741Y475088D01*
X252727Y475074D01*
X252710Y475064D01*
X252642Y474985D01*
X252571Y474910D01*
X252563Y474892D01*
X252550Y474877D01*
X252511Y474781D01*
X252468Y474687D01*
X252465Y474667D01*
X252458Y474649D01*
X252439Y474482D01*
X252439Y473433D01*
X252451Y473362D01*
X252453Y473290D01*
X252471Y473241D01*
X252479Y473190D01*
X252513Y473127D01*
X252538Y473059D01*
X252570Y473019D01*
X252594Y472973D01*
X252646Y472923D01*
X252692Y472867D01*
X252735Y472839D01*
X252773Y472804D01*
X252838Y472773D01*
X252899Y472734D01*
X252949Y472722D01*
X252996Y472700D01*
X253067Y472692D01*
X253137Y472674D01*
X253189Y472679D01*
X253240Y472673D01*
X253295Y472685D01*
X257519Y472685D01*
X260341Y469863D01*
X260341Y465873D01*
X258302Y463834D01*
X258291Y463818D01*
X258275Y463806D01*
X258219Y463718D01*
X258159Y463635D01*
X258153Y463616D01*
X258142Y463599D01*
X258117Y463498D01*
X258086Y463399D01*
X258087Y463380D01*
X258082Y463360D01*
X258090Y463257D01*
X258093Y463154D01*
X258100Y463135D01*
X258101Y463115D01*
X258141Y463020D01*
X258177Y462923D01*
X258190Y462907D01*
X258197Y462889D01*
X258302Y462758D01*
X259325Y461735D01*
X259325Y457745D01*
X256503Y454923D01*
X252513Y454923D01*
G37*
%LPD*%
%LPC*%
G36*
X635545Y434603D02*
X635545Y434603D01*
X632723Y437425D01*
X632723Y441415D01*
X635545Y444237D01*
X637042Y444237D01*
X637062Y444240D01*
X637081Y444238D01*
X637183Y444260D01*
X637285Y444276D01*
X637302Y444286D01*
X637322Y444290D01*
X637411Y444343D01*
X637502Y444392D01*
X637516Y444406D01*
X637533Y444416D01*
X637600Y444495D01*
X637672Y444570D01*
X637680Y444588D01*
X637693Y444603D01*
X637732Y444699D01*
X637775Y444793D01*
X637777Y444813D01*
X637785Y444831D01*
X637803Y444998D01*
X637803Y449035D01*
X640625Y451857D01*
X643673Y451857D01*
X643693Y451860D01*
X643713Y451858D01*
X643814Y451880D01*
X643916Y451896D01*
X643934Y451906D01*
X643953Y451910D01*
X644042Y451963D01*
X644133Y452012D01*
X644147Y452026D01*
X644164Y452036D01*
X644232Y452115D01*
X644303Y452190D01*
X644311Y452208D01*
X644324Y452223D01*
X644363Y452319D01*
X644406Y452413D01*
X644409Y452433D01*
X644416Y452451D01*
X644435Y452618D01*
X644435Y453126D01*
X647256Y455948D01*
X650305Y455948D01*
X650324Y455951D01*
X650344Y455949D01*
X650445Y455971D01*
X650547Y455988D01*
X650565Y455997D01*
X650584Y456001D01*
X650673Y456055D01*
X650765Y456103D01*
X650778Y456117D01*
X650796Y456128D01*
X650863Y456206D01*
X650934Y456281D01*
X650943Y456299D01*
X650955Y456314D01*
X650994Y456411D01*
X651038Y456504D01*
X651040Y456524D01*
X651047Y456543D01*
X651066Y456709D01*
X651066Y457218D01*
X653887Y460039D01*
X657878Y460039D01*
X660699Y457218D01*
X660699Y453227D01*
X657878Y450406D01*
X654829Y450406D01*
X654810Y450403D01*
X654790Y450405D01*
X654689Y450383D01*
X654587Y450366D01*
X654569Y450357D01*
X654549Y450353D01*
X654460Y450299D01*
X654369Y450251D01*
X654355Y450237D01*
X654338Y450226D01*
X654271Y450148D01*
X654200Y450073D01*
X654191Y450055D01*
X654178Y450040D01*
X654140Y449943D01*
X654096Y449850D01*
X654094Y449830D01*
X654087Y449811D01*
X654068Y449645D01*
X654068Y449136D01*
X651246Y446315D01*
X648198Y446315D01*
X648178Y446311D01*
X648159Y446314D01*
X648057Y446292D01*
X647955Y446275D01*
X647938Y446266D01*
X647918Y446261D01*
X647829Y446208D01*
X647738Y446160D01*
X647724Y446145D01*
X647707Y446135D01*
X647640Y446056D01*
X647568Y445981D01*
X647560Y445963D01*
X647547Y445948D01*
X647508Y445852D01*
X647465Y445758D01*
X647463Y445739D01*
X647455Y445720D01*
X647437Y445553D01*
X647437Y445045D01*
X644615Y442223D01*
X643118Y442223D01*
X643098Y442220D01*
X643079Y442222D01*
X642977Y442200D01*
X642875Y442184D01*
X642858Y442174D01*
X642838Y442170D01*
X642749Y442117D01*
X642658Y442068D01*
X642644Y442054D01*
X642627Y442044D01*
X642560Y441965D01*
X642488Y441890D01*
X642480Y441872D01*
X642467Y441857D01*
X642428Y441761D01*
X642385Y441667D01*
X642383Y441647D01*
X642375Y441629D01*
X642357Y441462D01*
X642357Y437425D01*
X639535Y434603D01*
X635545Y434603D01*
G37*
%LPD*%
%LPC*%
G36*
X560334Y594342D02*
X560334Y594342D01*
X557512Y597164D01*
X557512Y601154D01*
X560334Y603975D01*
X560842Y603975D01*
X560862Y603979D01*
X560881Y603976D01*
X560983Y603998D01*
X561085Y604015D01*
X561102Y604024D01*
X561122Y604029D01*
X561211Y604082D01*
X561302Y604130D01*
X561316Y604145D01*
X561333Y604155D01*
X561400Y604234D01*
X561472Y604309D01*
X561480Y604327D01*
X561493Y604342D01*
X561532Y604438D01*
X561575Y604532D01*
X561577Y604551D01*
X561585Y604570D01*
X561603Y604737D01*
X561603Y607785D01*
X564425Y610607D01*
X566203Y610607D01*
X566223Y610610D01*
X566243Y610608D01*
X566344Y610630D01*
X566446Y610646D01*
X566464Y610656D01*
X566483Y610660D01*
X566572Y610713D01*
X566663Y610762D01*
X566677Y610776D01*
X566694Y610786D01*
X566762Y610865D01*
X566833Y610940D01*
X566841Y610958D01*
X566854Y610973D01*
X566893Y611069D01*
X566936Y611163D01*
X566939Y611183D01*
X566946Y611201D01*
X566965Y611368D01*
X566965Y613146D01*
X569786Y615968D01*
X573542Y615968D01*
X573562Y615971D01*
X573581Y615969D01*
X573683Y615991D01*
X573785Y616008D01*
X573802Y616017D01*
X573822Y616021D01*
X573911Y616075D01*
X574002Y616123D01*
X574016Y616137D01*
X574033Y616148D01*
X574100Y616226D01*
X574172Y616301D01*
X574180Y616319D01*
X574193Y616334D01*
X574232Y616431D01*
X574275Y616524D01*
X574277Y616544D01*
X574285Y616563D01*
X574303Y616729D01*
X574303Y619215D01*
X577125Y622037D01*
X581115Y622037D01*
X583937Y619215D01*
X583937Y615225D01*
X581115Y612403D01*
X577359Y612403D01*
X577340Y612400D01*
X577320Y612402D01*
X577219Y612380D01*
X577117Y612364D01*
X577099Y612354D01*
X577079Y612350D01*
X576990Y612297D01*
X576899Y612248D01*
X576885Y612234D01*
X576868Y612224D01*
X576801Y612145D01*
X576730Y612070D01*
X576721Y612052D01*
X576708Y612037D01*
X576670Y611941D01*
X576626Y611847D01*
X576624Y611827D01*
X576617Y611809D01*
X576598Y611642D01*
X576598Y609156D01*
X573776Y606335D01*
X571998Y606335D01*
X571978Y606331D01*
X571959Y606334D01*
X571857Y606312D01*
X571755Y606295D01*
X571738Y606286D01*
X571718Y606281D01*
X571629Y606228D01*
X571538Y606180D01*
X571524Y606165D01*
X571507Y606155D01*
X571440Y606076D01*
X571368Y606001D01*
X571360Y605983D01*
X571347Y605968D01*
X571308Y605872D01*
X571265Y605778D01*
X571263Y605759D01*
X571255Y605740D01*
X571237Y605573D01*
X571237Y603795D01*
X568415Y600973D01*
X567907Y600973D01*
X567887Y600970D01*
X567867Y600972D01*
X567766Y600950D01*
X567664Y600934D01*
X567646Y600924D01*
X567627Y600920D01*
X567538Y600867D01*
X567447Y600818D01*
X567433Y600804D01*
X567416Y600794D01*
X567348Y600715D01*
X567277Y600640D01*
X567269Y600622D01*
X567256Y600607D01*
X567217Y600511D01*
X567174Y600417D01*
X567171Y600397D01*
X567164Y600379D01*
X567145Y600212D01*
X567145Y597164D01*
X564324Y594342D01*
X560334Y594342D01*
G37*
%LPD*%
%LPC*%
G36*
X192047Y116029D02*
X192047Y116029D01*
X188809Y117371D01*
X186331Y119849D01*
X184989Y123087D01*
X184989Y126593D01*
X186331Y129831D01*
X188809Y132309D01*
X192047Y133651D01*
X195553Y133651D01*
X198791Y132309D01*
X201269Y129831D01*
X202611Y126593D01*
X202611Y123087D01*
X201269Y119849D01*
X198791Y117371D01*
X195553Y116029D01*
X192047Y116029D01*
G37*
%LPD*%
%LPC*%
G36*
X192047Y136349D02*
X192047Y136349D01*
X188809Y137691D01*
X186331Y140169D01*
X184989Y143407D01*
X184989Y146913D01*
X186331Y150151D01*
X188809Y152629D01*
X192047Y153971D01*
X195553Y153971D01*
X198791Y152629D01*
X201269Y150151D01*
X202611Y146913D01*
X202611Y143407D01*
X201269Y140169D01*
X198791Y137691D01*
X195553Y136349D01*
X192047Y136349D01*
G37*
%LPD*%
%LPC*%
G36*
X268247Y126189D02*
X268247Y126189D01*
X265009Y127531D01*
X262531Y130009D01*
X261189Y133247D01*
X261189Y136753D01*
X262531Y139991D01*
X265009Y142469D01*
X268247Y143811D01*
X271753Y143811D01*
X274991Y142469D01*
X277469Y139991D01*
X278811Y136753D01*
X278811Y133247D01*
X277469Y130009D01*
X274991Y127531D01*
X271753Y126189D01*
X268247Y126189D01*
G37*
%LPD*%
%LPC*%
G36*
X686345Y269503D02*
X686345Y269503D01*
X683523Y272325D01*
X683523Y276315D01*
X686345Y279137D01*
X690335Y279137D01*
X691114Y278358D01*
X691172Y278316D01*
X691224Y278267D01*
X691243Y278258D01*
X691255Y278248D01*
X691282Y278237D01*
X691313Y278215D01*
X691382Y278194D01*
X691447Y278163D01*
X691472Y278161D01*
X691483Y278156D01*
X691515Y278153D01*
X691549Y278142D01*
X691597Y278144D01*
X691649Y278138D01*
X691652Y278138D01*
X691662Y278139D01*
X691691Y278136D01*
X691742Y278147D01*
X691794Y278149D01*
X691856Y278171D01*
X691895Y278177D01*
X691904Y278182D01*
X691932Y278188D01*
X691977Y278215D01*
X692025Y278233D01*
X692076Y278273D01*
X692112Y278293D01*
X692120Y278301D01*
X692143Y278315D01*
X692177Y278354D01*
X692217Y278387D01*
X692251Y278439D01*
X692282Y278471D01*
X692287Y278483D01*
X692303Y278502D01*
X692322Y278550D01*
X692350Y278594D01*
X692365Y278650D01*
X692385Y278694D01*
X692387Y278710D01*
X692395Y278730D01*
X692403Y278801D01*
X692411Y278832D01*
X692409Y278851D01*
X695235Y281677D01*
X699225Y281677D01*
X700004Y280898D01*
X700062Y280856D01*
X700114Y280807D01*
X700161Y280785D01*
X700203Y280755D01*
X700272Y280734D01*
X700337Y280703D01*
X700389Y280698D01*
X700439Y280682D01*
X700510Y280684D01*
X700581Y280676D01*
X700632Y280687D01*
X700684Y280689D01*
X700752Y280713D01*
X700822Y280728D01*
X700867Y280755D01*
X700915Y280773D01*
X700971Y280818D01*
X701033Y280855D01*
X701067Y280894D01*
X701107Y280927D01*
X701146Y280987D01*
X701193Y281042D01*
X701212Y281090D01*
X701240Y281134D01*
X701258Y281203D01*
X701285Y281270D01*
X701293Y281341D01*
X701301Y281372D01*
X701299Y281395D01*
X701303Y281436D01*
X701303Y282665D01*
X704125Y285487D01*
X708115Y285487D01*
X710937Y282665D01*
X710937Y278675D01*
X708115Y275853D01*
X704125Y275853D01*
X703346Y276632D01*
X703288Y276674D01*
X703236Y276723D01*
X703189Y276745D01*
X703147Y276775D01*
X703078Y276796D01*
X703013Y276827D01*
X702961Y276832D01*
X702911Y276848D01*
X702840Y276846D01*
X702769Y276854D01*
X702718Y276843D01*
X702666Y276841D01*
X702598Y276817D01*
X702528Y276802D01*
X702483Y276775D01*
X702435Y276757D01*
X702379Y276712D01*
X702317Y276675D01*
X702283Y276636D01*
X702243Y276603D01*
X702204Y276543D01*
X702157Y276488D01*
X702138Y276440D01*
X702110Y276396D01*
X702092Y276327D01*
X702065Y276260D01*
X702057Y276189D01*
X702049Y276158D01*
X702051Y276135D01*
X702047Y276094D01*
X702047Y274865D01*
X699225Y272043D01*
X695235Y272043D01*
X694456Y272822D01*
X694398Y272864D01*
X694346Y272913D01*
X694299Y272935D01*
X694257Y272965D01*
X694188Y272986D01*
X694123Y273017D01*
X694071Y273022D01*
X694021Y273038D01*
X693950Y273036D01*
X693879Y273044D01*
X693828Y273033D01*
X693776Y273031D01*
X693708Y273007D01*
X693638Y272992D01*
X693593Y272965D01*
X693545Y272947D01*
X693489Y272902D01*
X693427Y272865D01*
X693393Y272826D01*
X693353Y272793D01*
X693314Y272733D01*
X693267Y272678D01*
X693248Y272630D01*
X693220Y272586D01*
X693202Y272517D01*
X693175Y272450D01*
X693167Y272379D01*
X693159Y272348D01*
X693161Y272329D01*
X690335Y269503D01*
X686345Y269503D01*
G37*
%LPD*%
%LPC*%
G36*
X204761Y517915D02*
X204761Y517915D01*
X201939Y520737D01*
X201939Y524727D01*
X204740Y527528D01*
X204751Y527544D01*
X204767Y527556D01*
X204823Y527644D01*
X204883Y527727D01*
X204889Y527746D01*
X204900Y527763D01*
X204925Y527864D01*
X204956Y527963D01*
X204955Y527982D01*
X204960Y528002D01*
X204952Y528105D01*
X204949Y528208D01*
X204942Y528227D01*
X204941Y528247D01*
X204901Y528342D01*
X204865Y528439D01*
X204852Y528455D01*
X204845Y528473D01*
X204740Y528604D01*
X202955Y530389D01*
X202955Y534379D01*
X205777Y537201D01*
X209052Y537201D01*
X209072Y537204D01*
X209091Y537202D01*
X209193Y537224D01*
X209295Y537240D01*
X209312Y537250D01*
X209332Y537254D01*
X209421Y537307D01*
X209512Y537356D01*
X209526Y537370D01*
X209543Y537380D01*
X209610Y537459D01*
X209682Y537534D01*
X209690Y537552D01*
X209703Y537567D01*
X209742Y537663D01*
X209785Y537757D01*
X209787Y537777D01*
X209795Y537795D01*
X209813Y537962D01*
X209813Y540343D01*
X212635Y543165D01*
X216625Y543165D01*
X219447Y540343D01*
X219447Y536353D01*
X216625Y533531D01*
X213350Y533531D01*
X213330Y533528D01*
X213311Y533530D01*
X213209Y533508D01*
X213107Y533492D01*
X213090Y533482D01*
X213070Y533478D01*
X212981Y533425D01*
X212890Y533376D01*
X212876Y533362D01*
X212859Y533352D01*
X212792Y533273D01*
X212720Y533198D01*
X212712Y533180D01*
X212699Y533165D01*
X212660Y533069D01*
X212617Y532975D01*
X212615Y532955D01*
X212607Y532937D01*
X212589Y532770D01*
X212589Y530389D01*
X209788Y527588D01*
X209777Y527572D01*
X209761Y527560D01*
X209731Y527513D01*
X209713Y527495D01*
X209700Y527466D01*
X209645Y527389D01*
X209639Y527370D01*
X209628Y527353D01*
X209603Y527252D01*
X209572Y527153D01*
X209573Y527134D01*
X209568Y527114D01*
X209576Y527011D01*
X209579Y526908D01*
X209586Y526889D01*
X209587Y526869D01*
X209627Y526774D01*
X209663Y526677D01*
X209676Y526661D01*
X209683Y526643D01*
X209788Y526512D01*
X211573Y524727D01*
X211573Y520737D01*
X208751Y517915D01*
X204761Y517915D01*
G37*
%LPD*%
%LPC*%
G36*
X263435Y437143D02*
X263435Y437143D01*
X260613Y439965D01*
X260613Y443955D01*
X263435Y446777D01*
X266202Y446777D01*
X266222Y446780D01*
X266241Y446778D01*
X266343Y446800D01*
X266445Y446816D01*
X266462Y446826D01*
X266482Y446830D01*
X266571Y446883D01*
X266662Y446932D01*
X266676Y446946D01*
X266693Y446956D01*
X266760Y447035D01*
X266832Y447110D01*
X266840Y447128D01*
X266853Y447143D01*
X266892Y447239D01*
X266935Y447333D01*
X266937Y447353D01*
X266945Y447371D01*
X266963Y447538D01*
X266963Y449035D01*
X269785Y451857D01*
X273775Y451857D01*
X275824Y449808D01*
X275882Y449766D01*
X275934Y449717D01*
X275981Y449695D01*
X276023Y449665D01*
X276092Y449644D01*
X276157Y449613D01*
X276209Y449608D01*
X276259Y449592D01*
X276330Y449594D01*
X276401Y449586D01*
X276452Y449597D01*
X276504Y449599D01*
X276572Y449623D01*
X276642Y449638D01*
X276687Y449665D01*
X276735Y449683D01*
X276791Y449728D01*
X276853Y449765D01*
X276887Y449804D01*
X276927Y449837D01*
X276966Y449897D01*
X277013Y449952D01*
X277032Y450000D01*
X277060Y450044D01*
X277078Y450113D01*
X277105Y450180D01*
X277113Y450251D01*
X277121Y450282D01*
X277119Y450305D01*
X277123Y450346D01*
X277123Y451575D01*
X279945Y454397D01*
X283935Y454397D01*
X286757Y451575D01*
X286757Y447585D01*
X283935Y444763D01*
X279945Y444763D01*
X277896Y446812D01*
X277838Y446854D01*
X277786Y446903D01*
X277739Y446925D01*
X277697Y446955D01*
X277628Y446976D01*
X277563Y447007D01*
X277511Y447012D01*
X277461Y447028D01*
X277390Y447026D01*
X277319Y447034D01*
X277268Y447023D01*
X277216Y447021D01*
X277148Y446997D01*
X277078Y446982D01*
X277033Y446955D01*
X276985Y446937D01*
X276929Y446892D01*
X276867Y446855D01*
X276833Y446816D01*
X276793Y446783D01*
X276754Y446723D01*
X276707Y446668D01*
X276688Y446620D01*
X276660Y446576D01*
X276642Y446507D01*
X276615Y446440D01*
X276607Y446369D01*
X276599Y446338D01*
X276601Y446315D01*
X276597Y446274D01*
X276597Y445045D01*
X273775Y442223D01*
X271008Y442223D01*
X270988Y442220D01*
X270969Y442222D01*
X270867Y442200D01*
X270765Y442184D01*
X270748Y442174D01*
X270728Y442170D01*
X270639Y442117D01*
X270548Y442068D01*
X270534Y442054D01*
X270517Y442044D01*
X270450Y441965D01*
X270378Y441890D01*
X270370Y441872D01*
X270357Y441857D01*
X270318Y441761D01*
X270275Y441667D01*
X270273Y441647D01*
X270265Y441629D01*
X270247Y441462D01*
X270247Y439965D01*
X267425Y437143D01*
X263435Y437143D01*
G37*
%LPD*%
%LPC*%
G36*
X503465Y588273D02*
X503465Y588273D01*
X501205Y590533D01*
X501189Y590544D01*
X501177Y590560D01*
X501089Y590616D01*
X501006Y590676D01*
X500987Y590682D01*
X500970Y590693D01*
X500869Y590718D01*
X500770Y590749D01*
X500751Y590748D01*
X500731Y590753D01*
X500628Y590745D01*
X500525Y590742D01*
X500506Y590735D01*
X500486Y590734D01*
X500391Y590694D01*
X500294Y590658D01*
X500278Y590645D01*
X500260Y590638D01*
X500129Y590533D01*
X499873Y590277D01*
X495883Y590277D01*
X494992Y591168D01*
X494976Y591179D01*
X494964Y591195D01*
X494876Y591251D01*
X494793Y591311D01*
X494774Y591317D01*
X494757Y591328D01*
X494656Y591353D01*
X494557Y591384D01*
X494538Y591383D01*
X494518Y591388D01*
X494415Y591380D01*
X494312Y591377D01*
X494293Y591370D01*
X494273Y591369D01*
X494178Y591329D01*
X494081Y591293D01*
X494065Y591280D01*
X494047Y591273D01*
X493916Y591168D01*
X492291Y589543D01*
X488301Y589543D01*
X485479Y592365D01*
X485479Y596355D01*
X488301Y599177D01*
X492291Y599177D01*
X493182Y598286D01*
X493198Y598275D01*
X493210Y598259D01*
X493298Y598203D01*
X493381Y598143D01*
X493400Y598137D01*
X493417Y598126D01*
X493518Y598101D01*
X493617Y598070D01*
X493636Y598071D01*
X493656Y598066D01*
X493759Y598074D01*
X493862Y598077D01*
X493881Y598084D01*
X493901Y598085D01*
X493996Y598125D01*
X494093Y598161D01*
X494109Y598174D01*
X494127Y598181D01*
X494258Y598286D01*
X495883Y599911D01*
X499873Y599911D01*
X502133Y597651D01*
X502149Y597640D01*
X502161Y597624D01*
X502248Y597568D01*
X502332Y597508D01*
X502351Y597502D01*
X502368Y597491D01*
X502469Y597466D01*
X502568Y597435D01*
X502588Y597436D01*
X502607Y597431D01*
X502710Y597439D01*
X502813Y597442D01*
X502832Y597449D01*
X502852Y597450D01*
X502947Y597490D01*
X503044Y597526D01*
X503060Y597539D01*
X503078Y597546D01*
X503209Y597651D01*
X503465Y597907D01*
X507455Y597907D01*
X510277Y595085D01*
X510277Y591095D01*
X507455Y588273D01*
X503465Y588273D01*
G37*
%LPD*%
%LPC*%
G36*
X868399Y576949D02*
X868399Y576949D01*
X865440Y578175D01*
X863175Y580440D01*
X861949Y583399D01*
X861949Y586601D01*
X863175Y589560D01*
X865440Y591825D01*
X868399Y593051D01*
X871601Y593051D01*
X874560Y591825D01*
X876825Y589560D01*
X878051Y586601D01*
X878051Y583399D01*
X876825Y580440D01*
X874560Y578175D01*
X871601Y576949D01*
X868399Y576949D01*
G37*
%LPD*%
%LPC*%
G36*
X848399Y576949D02*
X848399Y576949D01*
X845440Y578175D01*
X843175Y580440D01*
X841949Y583399D01*
X841949Y586601D01*
X843175Y589560D01*
X845440Y591825D01*
X848399Y593051D01*
X851601Y593051D01*
X854560Y591825D01*
X856825Y589560D01*
X858051Y586601D01*
X858051Y583399D01*
X856825Y580440D01*
X854560Y578175D01*
X851601Y576949D01*
X848399Y576949D01*
G37*
%LPD*%
%LPC*%
G36*
X868399Y556949D02*
X868399Y556949D01*
X865440Y558175D01*
X863175Y560440D01*
X861949Y563399D01*
X861949Y566601D01*
X863175Y569560D01*
X865440Y571825D01*
X868399Y573051D01*
X871601Y573051D01*
X874560Y571825D01*
X876825Y569560D01*
X878051Y566601D01*
X878051Y563399D01*
X876825Y560440D01*
X874560Y558175D01*
X871601Y556949D01*
X868399Y556949D01*
G37*
%LPD*%
%LPC*%
G36*
X848399Y556949D02*
X848399Y556949D01*
X845440Y558175D01*
X843175Y560440D01*
X841949Y563399D01*
X841949Y566601D01*
X843175Y569560D01*
X845440Y571825D01*
X848399Y573051D01*
X851601Y573051D01*
X854560Y571825D01*
X856825Y569560D01*
X858051Y566601D01*
X858051Y563399D01*
X856825Y560440D01*
X854560Y558175D01*
X851601Y556949D01*
X848399Y556949D01*
G37*
%LPD*%
%LPC*%
G36*
X868399Y256949D02*
X868399Y256949D01*
X865440Y258175D01*
X863175Y260440D01*
X861949Y263399D01*
X861949Y266601D01*
X863175Y269560D01*
X865440Y271825D01*
X868399Y273051D01*
X871601Y273051D01*
X874560Y271825D01*
X876825Y269560D01*
X878051Y266601D01*
X878051Y263399D01*
X876825Y260440D01*
X874560Y258175D01*
X871601Y256949D01*
X868399Y256949D01*
G37*
%LPD*%
%LPC*%
G36*
X848399Y256949D02*
X848399Y256949D01*
X845440Y258175D01*
X843175Y260440D01*
X841949Y263399D01*
X841949Y266601D01*
X843175Y269560D01*
X845440Y271825D01*
X848399Y273051D01*
X851601Y273051D01*
X854560Y271825D01*
X856825Y269560D01*
X858051Y266601D01*
X858051Y263399D01*
X856825Y260440D01*
X854560Y258175D01*
X851601Y256949D01*
X848399Y256949D01*
G37*
%LPD*%
%LPC*%
G36*
X868399Y536949D02*
X868399Y536949D01*
X865440Y538175D01*
X863175Y540440D01*
X861949Y543399D01*
X861949Y546601D01*
X863175Y549560D01*
X865440Y551825D01*
X868399Y553051D01*
X871601Y553051D01*
X874560Y551825D01*
X876825Y549560D01*
X878051Y546601D01*
X878051Y543399D01*
X876825Y540440D01*
X874560Y538175D01*
X871601Y536949D01*
X868399Y536949D01*
G37*
%LPD*%
%LPC*%
G36*
X848399Y536949D02*
X848399Y536949D01*
X845440Y538175D01*
X843175Y540440D01*
X841949Y543399D01*
X841949Y546601D01*
X843175Y549560D01*
X845440Y551825D01*
X848399Y553051D01*
X851601Y553051D01*
X854560Y551825D01*
X856825Y549560D01*
X858051Y546601D01*
X858051Y543399D01*
X856825Y540440D01*
X854560Y538175D01*
X851601Y536949D01*
X848399Y536949D01*
G37*
%LPD*%
%LPC*%
G36*
X848399Y376949D02*
X848399Y376949D01*
X845440Y378175D01*
X843175Y380440D01*
X841949Y383399D01*
X841949Y386601D01*
X843175Y389560D01*
X845440Y391825D01*
X848399Y393051D01*
X851601Y393051D01*
X854560Y391825D01*
X856825Y389560D01*
X858051Y386601D01*
X858051Y383399D01*
X856825Y380440D01*
X854560Y378175D01*
X851601Y376949D01*
X848399Y376949D01*
G37*
%LPD*%
%LPC*%
G36*
X868399Y376949D02*
X868399Y376949D01*
X865440Y378175D01*
X863175Y380440D01*
X861949Y383399D01*
X861949Y386601D01*
X863175Y389560D01*
X865440Y391825D01*
X868399Y393051D01*
X871601Y393051D01*
X874560Y391825D01*
X876825Y389560D01*
X878051Y386601D01*
X878051Y383399D01*
X876825Y380440D01*
X874560Y378175D01*
X871601Y376949D01*
X868399Y376949D01*
G37*
%LPD*%
%LPC*%
G36*
X868399Y236949D02*
X868399Y236949D01*
X865440Y238175D01*
X863175Y240440D01*
X861949Y243399D01*
X861949Y246601D01*
X863175Y249560D01*
X865440Y251825D01*
X868399Y253051D01*
X871601Y253051D01*
X874560Y251825D01*
X876825Y249560D01*
X878051Y246601D01*
X878051Y243399D01*
X876825Y240440D01*
X874560Y238175D01*
X871601Y236949D01*
X868399Y236949D01*
G37*
%LPD*%
%LPC*%
G36*
X868399Y516949D02*
X868399Y516949D01*
X865440Y518175D01*
X863175Y520440D01*
X861949Y523399D01*
X861949Y526601D01*
X863175Y529560D01*
X865440Y531825D01*
X868399Y533051D01*
X871601Y533051D01*
X874560Y531825D01*
X876825Y529560D01*
X878051Y526601D01*
X878051Y523399D01*
X876825Y520440D01*
X874560Y518175D01*
X871601Y516949D01*
X868399Y516949D01*
G37*
%LPD*%
%LPC*%
G36*
X848399Y516949D02*
X848399Y516949D01*
X845440Y518175D01*
X843175Y520440D01*
X841949Y523399D01*
X841949Y526601D01*
X843175Y529560D01*
X845440Y531825D01*
X848399Y533051D01*
X851601Y533051D01*
X854560Y531825D01*
X856825Y529560D01*
X858051Y526601D01*
X858051Y523399D01*
X856825Y520440D01*
X854560Y518175D01*
X851601Y516949D01*
X848399Y516949D01*
G37*
%LPD*%
%LPC*%
G36*
X868399Y456949D02*
X868399Y456949D01*
X865440Y458175D01*
X863175Y460440D01*
X861949Y463399D01*
X861949Y466601D01*
X863175Y469560D01*
X865440Y471825D01*
X868399Y473051D01*
X871601Y473051D01*
X874560Y471825D01*
X876825Y469560D01*
X878051Y466601D01*
X878051Y463399D01*
X876825Y460440D01*
X874560Y458175D01*
X871601Y456949D01*
X868399Y456949D01*
G37*
%LPD*%
%LPC*%
G36*
X848399Y456949D02*
X848399Y456949D01*
X845440Y458175D01*
X843175Y460440D01*
X841949Y463399D01*
X841949Y466601D01*
X843175Y469560D01*
X845440Y471825D01*
X848399Y473051D01*
X851601Y473051D01*
X854560Y471825D01*
X856825Y469560D01*
X858051Y466601D01*
X858051Y463399D01*
X856825Y460440D01*
X854560Y458175D01*
X851601Y456949D01*
X848399Y456949D01*
G37*
%LPD*%
%LPC*%
G36*
X868399Y416949D02*
X868399Y416949D01*
X865440Y418175D01*
X863175Y420440D01*
X861949Y423399D01*
X861949Y426601D01*
X863175Y429560D01*
X865440Y431825D01*
X868399Y433051D01*
X871601Y433051D01*
X874560Y431825D01*
X876825Y429560D01*
X878051Y426601D01*
X878051Y423399D01*
X876825Y420440D01*
X874560Y418175D01*
X871601Y416949D01*
X868399Y416949D01*
G37*
%LPD*%
%LPC*%
G36*
X848399Y276949D02*
X848399Y276949D01*
X845440Y278175D01*
X843175Y280440D01*
X841949Y283399D01*
X841949Y286601D01*
X843175Y289560D01*
X845440Y291825D01*
X848399Y293051D01*
X851601Y293051D01*
X854560Y291825D01*
X856825Y289560D01*
X858051Y286601D01*
X858051Y283399D01*
X856825Y280440D01*
X854560Y278175D01*
X851601Y276949D01*
X848399Y276949D01*
G37*
%LPD*%
%LPC*%
G36*
X868399Y496949D02*
X868399Y496949D01*
X865440Y498175D01*
X863175Y500440D01*
X861949Y503399D01*
X861949Y506601D01*
X863175Y509560D01*
X865440Y511825D01*
X868399Y513051D01*
X871601Y513051D01*
X874560Y511825D01*
X876825Y509560D01*
X878051Y506601D01*
X878051Y503399D01*
X876825Y500440D01*
X874560Y498175D01*
X871601Y496949D01*
X868399Y496949D01*
G37*
%LPD*%
%LPC*%
G36*
X848399Y496949D02*
X848399Y496949D01*
X845440Y498175D01*
X843175Y500440D01*
X841949Y503399D01*
X841949Y506601D01*
X843175Y509560D01*
X845440Y511825D01*
X848399Y513051D01*
X851601Y513051D01*
X854560Y511825D01*
X856825Y509560D01*
X858051Y506601D01*
X858051Y503399D01*
X856825Y500440D01*
X854560Y498175D01*
X851601Y496949D01*
X848399Y496949D01*
G37*
%LPD*%
%LPC*%
G36*
X848399Y416949D02*
X848399Y416949D01*
X845440Y418175D01*
X843175Y420440D01*
X841949Y423399D01*
X841949Y426601D01*
X843175Y429560D01*
X845440Y431825D01*
X848399Y433051D01*
X851601Y433051D01*
X854560Y431825D01*
X856825Y429560D01*
X858051Y426601D01*
X858051Y423399D01*
X856825Y420440D01*
X854560Y418175D01*
X851601Y416949D01*
X848399Y416949D01*
G37*
%LPD*%
%LPC*%
G36*
X868399Y396949D02*
X868399Y396949D01*
X865440Y398175D01*
X863175Y400440D01*
X861949Y403399D01*
X861949Y406601D01*
X863175Y409560D01*
X865440Y411825D01*
X868399Y413051D01*
X871601Y413051D01*
X874560Y411825D01*
X876825Y409560D01*
X878051Y406601D01*
X878051Y403399D01*
X876825Y400440D01*
X874560Y398175D01*
X871601Y396949D01*
X868399Y396949D01*
G37*
%LPD*%
%LPC*%
G36*
X848399Y436949D02*
X848399Y436949D01*
X845440Y438175D01*
X843175Y440440D01*
X841949Y443399D01*
X841949Y446601D01*
X843175Y449560D01*
X845440Y451825D01*
X848399Y453051D01*
X851601Y453051D01*
X854560Y451825D01*
X856825Y449560D01*
X858051Y446601D01*
X858051Y443399D01*
X856825Y440440D01*
X854560Y438175D01*
X851601Y436949D01*
X848399Y436949D01*
G37*
%LPD*%
%LPC*%
G36*
X868399Y476949D02*
X868399Y476949D01*
X865440Y478175D01*
X863175Y480440D01*
X861949Y483399D01*
X861949Y486601D01*
X863175Y489560D01*
X865440Y491825D01*
X868399Y493051D01*
X871601Y493051D01*
X874560Y491825D01*
X876825Y489560D01*
X878051Y486601D01*
X878051Y483399D01*
X876825Y480440D01*
X874560Y478175D01*
X871601Y476949D01*
X868399Y476949D01*
G37*
%LPD*%
%LPC*%
G36*
X848399Y476949D02*
X848399Y476949D01*
X845440Y478175D01*
X843175Y480440D01*
X841949Y483399D01*
X841949Y486601D01*
X843175Y489560D01*
X845440Y491825D01*
X848399Y493051D01*
X851601Y493051D01*
X854560Y491825D01*
X856825Y489560D01*
X858051Y486601D01*
X858051Y483399D01*
X856825Y480440D01*
X854560Y478175D01*
X851601Y476949D01*
X848399Y476949D01*
G37*
%LPD*%
%LPC*%
G36*
X848399Y396949D02*
X848399Y396949D01*
X845440Y398175D01*
X843175Y400440D01*
X841949Y403399D01*
X841949Y406601D01*
X843175Y409560D01*
X845440Y411825D01*
X848399Y413051D01*
X851601Y413051D01*
X854560Y411825D01*
X856825Y409560D01*
X858051Y406601D01*
X858051Y403399D01*
X856825Y400440D01*
X854560Y398175D01*
X851601Y396949D01*
X848399Y396949D01*
G37*
%LPD*%
%LPC*%
G36*
X848399Y236949D02*
X848399Y236949D01*
X845440Y238175D01*
X843175Y240440D01*
X841949Y243399D01*
X841949Y246601D01*
X843175Y249560D01*
X845440Y251825D01*
X848399Y253051D01*
X851601Y253051D01*
X854560Y251825D01*
X856825Y249560D01*
X858051Y246601D01*
X858051Y243399D01*
X856825Y240440D01*
X854560Y238175D01*
X851601Y236949D01*
X848399Y236949D01*
G37*
%LPD*%
%LPC*%
G36*
X868399Y216949D02*
X868399Y216949D01*
X865440Y218175D01*
X863175Y220440D01*
X861949Y223399D01*
X861949Y226601D01*
X863175Y229560D01*
X865440Y231825D01*
X868399Y233051D01*
X871601Y233051D01*
X874560Y231825D01*
X876825Y229560D01*
X878051Y226601D01*
X878051Y223399D01*
X876825Y220440D01*
X874560Y218175D01*
X871601Y216949D01*
X868399Y216949D01*
G37*
%LPD*%
%LPC*%
G36*
X868399Y436949D02*
X868399Y436949D01*
X865440Y438175D01*
X863175Y440440D01*
X861949Y443399D01*
X861949Y446601D01*
X863175Y449560D01*
X865440Y451825D01*
X868399Y453051D01*
X871601Y453051D01*
X874560Y451825D01*
X876825Y449560D01*
X878051Y446601D01*
X878051Y443399D01*
X876825Y440440D01*
X874560Y438175D01*
X871601Y436949D01*
X868399Y436949D01*
G37*
%LPD*%
%LPC*%
G36*
X868399Y196949D02*
X868399Y196949D01*
X865440Y198175D01*
X863175Y200440D01*
X861949Y203399D01*
X861949Y206601D01*
X863175Y209560D01*
X865440Y211825D01*
X868399Y213051D01*
X871601Y213051D01*
X874560Y211825D01*
X876825Y209560D01*
X878051Y206601D01*
X878051Y203399D01*
X876825Y200440D01*
X874560Y198175D01*
X871601Y196949D01*
X868399Y196949D01*
G37*
%LPD*%
%LPC*%
G36*
X848399Y196949D02*
X848399Y196949D01*
X845440Y198175D01*
X843175Y200440D01*
X841949Y203399D01*
X841949Y206601D01*
X843175Y209560D01*
X845440Y211825D01*
X848399Y213051D01*
X851601Y213051D01*
X854560Y211825D01*
X856825Y209560D01*
X858051Y206601D01*
X858051Y203399D01*
X856825Y200440D01*
X854560Y198175D01*
X851601Y196949D01*
X848399Y196949D01*
G37*
%LPD*%
%LPC*%
G36*
X868399Y176949D02*
X868399Y176949D01*
X865440Y178175D01*
X863175Y180440D01*
X861949Y183399D01*
X861949Y186601D01*
X863175Y189560D01*
X865440Y191825D01*
X868399Y193051D01*
X871601Y193051D01*
X874560Y191825D01*
X876825Y189560D01*
X878051Y186601D01*
X878051Y183399D01*
X876825Y180440D01*
X874560Y178175D01*
X871601Y176949D01*
X868399Y176949D01*
G37*
%LPD*%
%LPC*%
G36*
X848399Y176949D02*
X848399Y176949D01*
X845440Y178175D01*
X843175Y180440D01*
X841949Y183399D01*
X841949Y186601D01*
X843175Y189560D01*
X845440Y191825D01*
X848399Y193051D01*
X851601Y193051D01*
X854560Y191825D01*
X856825Y189560D01*
X858051Y186601D01*
X858051Y183399D01*
X856825Y180440D01*
X854560Y178175D01*
X851601Y176949D01*
X848399Y176949D01*
G37*
%LPD*%
%LPC*%
G36*
X868399Y276949D02*
X868399Y276949D01*
X865440Y278175D01*
X863175Y280440D01*
X861949Y283399D01*
X861949Y286601D01*
X863175Y289560D01*
X865440Y291825D01*
X868399Y293051D01*
X871601Y293051D01*
X874560Y291825D01*
X876825Y289560D01*
X878051Y286601D01*
X878051Y283399D01*
X876825Y280440D01*
X874560Y278175D01*
X871601Y276949D01*
X868399Y276949D01*
G37*
%LPD*%
%LPC*%
G36*
X848399Y296949D02*
X848399Y296949D01*
X845440Y298175D01*
X843175Y300440D01*
X841949Y303399D01*
X841949Y306601D01*
X843175Y309560D01*
X845440Y311825D01*
X848399Y313051D01*
X851601Y313051D01*
X854560Y311825D01*
X856825Y309560D01*
X858051Y306601D01*
X858051Y303399D01*
X856825Y300440D01*
X854560Y298175D01*
X851601Y296949D01*
X848399Y296949D01*
G37*
%LPD*%
%LPC*%
G36*
X868399Y296949D02*
X868399Y296949D01*
X865440Y298175D01*
X863175Y300440D01*
X861949Y303399D01*
X861949Y306601D01*
X863175Y309560D01*
X865440Y311825D01*
X868399Y313051D01*
X871601Y313051D01*
X874560Y311825D01*
X876825Y309560D01*
X878051Y306601D01*
X878051Y303399D01*
X876825Y300440D01*
X874560Y298175D01*
X871601Y296949D01*
X868399Y296949D01*
G37*
%LPD*%
%LPC*%
G36*
X848399Y216949D02*
X848399Y216949D01*
X845440Y218175D01*
X843175Y220440D01*
X841949Y223399D01*
X841949Y226601D01*
X843175Y229560D01*
X845440Y231825D01*
X848399Y233051D01*
X851601Y233051D01*
X854560Y231825D01*
X856825Y229560D01*
X858051Y226601D01*
X858051Y223399D01*
X856825Y220440D01*
X854560Y218175D01*
X851601Y216949D01*
X848399Y216949D01*
G37*
%LPD*%
%LPC*%
G36*
X190096Y553939D02*
X190096Y553939D01*
X187500Y555014D01*
X185514Y557000D01*
X184439Y559596D01*
X184439Y561005D01*
X184428Y561076D01*
X184426Y561148D01*
X184408Y561196D01*
X184400Y561248D01*
X184366Y561311D01*
X184341Y561379D01*
X184309Y561419D01*
X184284Y561465D01*
X184232Y561515D01*
X184188Y561571D01*
X184144Y561599D01*
X184106Y561635D01*
X184041Y561665D01*
X183981Y561704D01*
X183930Y561716D01*
X183883Y561738D01*
X183812Y561746D01*
X183742Y561764D01*
X183690Y561760D01*
X183639Y561765D01*
X183568Y561750D01*
X183497Y561744D01*
X183449Y561724D01*
X183398Y561713D01*
X183337Y561676D01*
X183271Y561648D01*
X183215Y561603D01*
X183187Y561587D01*
X183172Y561569D01*
X183140Y561543D01*
X183010Y561414D01*
X181980Y560725D01*
X180835Y560251D01*
X180249Y560135D01*
X180249Y565051D01*
X185250Y565051D01*
X185340Y565065D01*
X185431Y565073D01*
X185461Y565085D01*
X185493Y565090D01*
X185573Y565133D01*
X185657Y565169D01*
X185690Y565195D01*
X185710Y565206D01*
X185732Y565229D01*
X185788Y565274D01*
X187500Y566986D01*
X190096Y568061D01*
X192904Y568061D01*
X195500Y566986D01*
X197486Y565000D01*
X198561Y562404D01*
X198561Y559596D01*
X197486Y557000D01*
X195500Y555014D01*
X192904Y553939D01*
X190096Y553939D01*
G37*
%LPD*%
%LPC*%
G36*
X329475Y489213D02*
X329475Y489213D01*
X326653Y492035D01*
X326653Y496025D01*
X329475Y498847D01*
X333465Y498847D01*
X335993Y496319D01*
X336009Y496308D01*
X336021Y496292D01*
X336109Y496236D01*
X336192Y496176D01*
X336211Y496170D01*
X336228Y496159D01*
X336329Y496134D01*
X336428Y496103D01*
X336447Y496104D01*
X336467Y496099D01*
X336570Y496107D01*
X336673Y496110D01*
X336692Y496117D01*
X336712Y496118D01*
X336807Y496158D01*
X336904Y496194D01*
X336920Y496207D01*
X336938Y496214D01*
X337069Y496319D01*
X339597Y498847D01*
X343587Y498847D01*
X346409Y496025D01*
X346409Y492035D01*
X343587Y489213D01*
X339597Y489213D01*
X337069Y491741D01*
X337053Y491752D01*
X337041Y491768D01*
X336953Y491824D01*
X336870Y491884D01*
X336851Y491890D01*
X336834Y491901D01*
X336733Y491926D01*
X336634Y491957D01*
X336615Y491956D01*
X336595Y491961D01*
X336492Y491953D01*
X336389Y491950D01*
X336370Y491943D01*
X336350Y491942D01*
X336255Y491902D01*
X336158Y491866D01*
X336142Y491853D01*
X336124Y491846D01*
X335993Y491741D01*
X333465Y489213D01*
X329475Y489213D01*
G37*
%LPD*%
%LPC*%
G36*
X669835Y265693D02*
X669835Y265693D01*
X667013Y268515D01*
X667013Y272505D01*
X667792Y273284D01*
X667834Y273342D01*
X667883Y273394D01*
X667905Y273441D01*
X667935Y273483D01*
X667956Y273552D01*
X667987Y273617D01*
X667992Y273669D01*
X668008Y273719D01*
X668006Y273790D01*
X668014Y273861D01*
X668003Y273912D01*
X668001Y273964D01*
X667977Y274032D01*
X667962Y274102D01*
X667935Y274147D01*
X667917Y274195D01*
X667872Y274251D01*
X667835Y274313D01*
X667796Y274347D01*
X667763Y274387D01*
X667703Y274426D01*
X667648Y274473D01*
X667600Y274492D01*
X667556Y274520D01*
X667487Y274538D01*
X667420Y274565D01*
X667349Y274573D01*
X667318Y274581D01*
X667295Y274579D01*
X667254Y274583D01*
X666025Y274583D01*
X663203Y277405D01*
X663203Y281395D01*
X666025Y284217D01*
X670015Y284217D01*
X672837Y281395D01*
X672837Y277405D01*
X672058Y276626D01*
X672016Y276568D01*
X671967Y276516D01*
X671945Y276469D01*
X671915Y276427D01*
X671894Y276358D01*
X671863Y276293D01*
X671858Y276241D01*
X671842Y276191D01*
X671844Y276120D01*
X671836Y276049D01*
X671847Y275998D01*
X671849Y275946D01*
X671873Y275878D01*
X671888Y275808D01*
X671915Y275763D01*
X671933Y275715D01*
X671978Y275659D01*
X672015Y275597D01*
X672054Y275563D01*
X672087Y275523D01*
X672147Y275484D01*
X672202Y275437D01*
X672250Y275418D01*
X672294Y275390D01*
X672363Y275372D01*
X672430Y275345D01*
X672501Y275337D01*
X672532Y275329D01*
X672555Y275331D01*
X672596Y275327D01*
X673825Y275327D01*
X676647Y272505D01*
X676647Y268515D01*
X673825Y265693D01*
X669835Y265693D01*
G37*
%LPD*%
%LPC*%
G36*
X589825Y287791D02*
X589825Y287791D01*
X587003Y290613D01*
X587003Y294603D01*
X589825Y297425D01*
X593815Y297425D01*
X594594Y296646D01*
X594652Y296604D01*
X594704Y296555D01*
X594751Y296533D01*
X594793Y296503D01*
X594862Y296482D01*
X594927Y296451D01*
X594979Y296446D01*
X595029Y296430D01*
X595100Y296432D01*
X595171Y296424D01*
X595222Y296435D01*
X595274Y296437D01*
X595342Y296461D01*
X595412Y296476D01*
X595457Y296503D01*
X595505Y296521D01*
X595561Y296566D01*
X595623Y296603D01*
X595657Y296642D01*
X595697Y296675D01*
X595736Y296735D01*
X595783Y296790D01*
X595802Y296838D01*
X595830Y296882D01*
X595848Y296951D01*
X595875Y297018D01*
X595883Y297089D01*
X595891Y297120D01*
X595889Y297143D01*
X595893Y297184D01*
X595893Y298177D01*
X598715Y300999D01*
X602705Y300999D01*
X605527Y298177D01*
X605527Y294187D01*
X602705Y291365D01*
X598715Y291365D01*
X597936Y292144D01*
X597878Y292186D01*
X597826Y292235D01*
X597779Y292257D01*
X597737Y292287D01*
X597668Y292308D01*
X597603Y292339D01*
X597551Y292344D01*
X597501Y292360D01*
X597430Y292358D01*
X597359Y292366D01*
X597308Y292355D01*
X597256Y292353D01*
X597188Y292329D01*
X597118Y292314D01*
X597073Y292287D01*
X597025Y292269D01*
X596969Y292224D01*
X596907Y292187D01*
X596873Y292148D01*
X596833Y292115D01*
X596794Y292055D01*
X596747Y292000D01*
X596728Y291952D01*
X596700Y291908D01*
X596682Y291839D01*
X596655Y291772D01*
X596647Y291701D01*
X596639Y291670D01*
X596641Y291647D01*
X596637Y291606D01*
X596637Y290613D01*
X593815Y287791D01*
X589825Y287791D01*
G37*
%LPD*%
%LPC*%
G36*
X332777Y468169D02*
X332777Y468169D01*
X329955Y470991D01*
X329955Y474981D01*
X332229Y477255D01*
X332240Y477271D01*
X332256Y477283D01*
X332312Y477371D01*
X332372Y477454D01*
X332378Y477473D01*
X332389Y477490D01*
X332414Y477591D01*
X332445Y477690D01*
X332444Y477709D01*
X332449Y477729D01*
X332441Y477832D01*
X332438Y477935D01*
X332431Y477954D01*
X332430Y477974D01*
X332390Y478069D01*
X332354Y478166D01*
X332341Y478182D01*
X332334Y478200D01*
X332229Y478331D01*
X330463Y480097D01*
X330463Y484087D01*
X333285Y486909D01*
X337275Y486909D01*
X340097Y484087D01*
X340097Y480097D01*
X337823Y477823D01*
X337812Y477807D01*
X337796Y477795D01*
X337740Y477707D01*
X337680Y477624D01*
X337674Y477605D01*
X337663Y477588D01*
X337638Y477487D01*
X337607Y477388D01*
X337608Y477369D01*
X337603Y477349D01*
X337611Y477246D01*
X337614Y477143D01*
X337621Y477124D01*
X337622Y477104D01*
X337662Y477009D01*
X337698Y476912D01*
X337711Y476896D01*
X337718Y476878D01*
X337823Y476747D01*
X339589Y474981D01*
X339589Y470991D01*
X336767Y468169D01*
X332777Y468169D01*
G37*
%LPD*%
%LPC*%
G36*
X227113Y497087D02*
X227113Y497087D01*
X224291Y499909D01*
X224291Y503899D01*
X226076Y505684D01*
X226087Y505700D01*
X226103Y505712D01*
X226159Y505800D01*
X226219Y505883D01*
X226225Y505902D01*
X226236Y505919D01*
X226261Y506020D01*
X226292Y506119D01*
X226291Y506138D01*
X226296Y506158D01*
X226288Y506261D01*
X226285Y506364D01*
X226278Y506383D01*
X226277Y506403D01*
X226237Y506498D01*
X226201Y506595D01*
X226188Y506611D01*
X226181Y506629D01*
X226076Y506760D01*
X224291Y508545D01*
X224291Y512535D01*
X227113Y515357D01*
X231103Y515357D01*
X233925Y512535D01*
X233925Y508545D01*
X232140Y506760D01*
X232129Y506744D01*
X232113Y506732D01*
X232057Y506644D01*
X231997Y506561D01*
X231991Y506542D01*
X231980Y506525D01*
X231955Y506424D01*
X231924Y506325D01*
X231925Y506306D01*
X231920Y506286D01*
X231928Y506183D01*
X231931Y506080D01*
X231938Y506061D01*
X231939Y506041D01*
X231979Y505946D01*
X232015Y505849D01*
X232028Y505833D01*
X232035Y505815D01*
X232140Y505684D01*
X233925Y503899D01*
X233925Y499909D01*
X231103Y497087D01*
X227113Y497087D01*
G37*
%LPD*%
%LPC*%
G36*
X417613Y320303D02*
X417613Y320303D01*
X414791Y323125D01*
X414791Y327115D01*
X416576Y328900D01*
X416587Y328916D01*
X416603Y328928D01*
X416659Y329016D01*
X416719Y329099D01*
X416725Y329118D01*
X416736Y329135D01*
X416761Y329236D01*
X416792Y329335D01*
X416791Y329354D01*
X416796Y329374D01*
X416788Y329477D01*
X416785Y329580D01*
X416778Y329599D01*
X416777Y329619D01*
X416737Y329714D01*
X416701Y329811D01*
X416688Y329827D01*
X416681Y329845D01*
X416576Y329976D01*
X414791Y331761D01*
X414791Y335751D01*
X417613Y338573D01*
X421603Y338573D01*
X424425Y335751D01*
X424425Y331761D01*
X422640Y329976D01*
X422629Y329960D01*
X422613Y329948D01*
X422557Y329860D01*
X422497Y329777D01*
X422491Y329758D01*
X422480Y329741D01*
X422455Y329640D01*
X422424Y329541D01*
X422425Y329522D01*
X422420Y329502D01*
X422428Y329399D01*
X422431Y329296D01*
X422438Y329277D01*
X422439Y329257D01*
X422479Y329162D01*
X422515Y329065D01*
X422528Y329049D01*
X422535Y329031D01*
X422640Y328900D01*
X424425Y327115D01*
X424425Y323125D01*
X421603Y320303D01*
X417613Y320303D01*
G37*
%LPD*%
%LPC*%
G36*
X503465Y245411D02*
X503465Y245411D01*
X500643Y248233D01*
X500643Y252228D01*
X500658Y252239D01*
X500714Y252327D01*
X500774Y252410D01*
X500780Y252429D01*
X500791Y252446D01*
X500816Y252547D01*
X500847Y252646D01*
X500846Y252665D01*
X500851Y252685D01*
X500843Y252788D01*
X500840Y252891D01*
X500833Y252910D01*
X500832Y252930D01*
X500792Y253025D01*
X500756Y253122D01*
X500743Y253138D01*
X500736Y253156D01*
X500631Y253287D01*
X498103Y255815D01*
X498103Y259805D01*
X500925Y262627D01*
X504915Y262627D01*
X507737Y259805D01*
X507737Y255810D01*
X507722Y255799D01*
X507693Y255753D01*
X507669Y255728D01*
X507653Y255694D01*
X507606Y255628D01*
X507600Y255609D01*
X507589Y255592D01*
X507569Y255513D01*
X507566Y255505D01*
X507564Y255494D01*
X507564Y255492D01*
X507533Y255393D01*
X507534Y255373D01*
X507529Y255353D01*
X507537Y255250D01*
X507540Y255147D01*
X507546Y255128D01*
X507548Y255108D01*
X507589Y255013D01*
X507624Y254916D01*
X507637Y254900D01*
X507644Y254882D01*
X507749Y254751D01*
X510277Y252223D01*
X510277Y248233D01*
X507455Y245411D01*
X503465Y245411D01*
G37*
%LPD*%
%LPC*%
G36*
X658686Y307322D02*
X658686Y307322D01*
X655865Y310144D01*
X655865Y310652D01*
X655861Y310672D01*
X655864Y310691D01*
X655842Y310793D01*
X655825Y310895D01*
X655816Y310912D01*
X655811Y310932D01*
X655758Y311021D01*
X655710Y311112D01*
X655695Y311126D01*
X655685Y311143D01*
X655606Y311210D01*
X655531Y311282D01*
X655513Y311290D01*
X655498Y311303D01*
X655402Y311342D01*
X655308Y311385D01*
X655289Y311387D01*
X655270Y311395D01*
X655103Y311413D01*
X652055Y311413D01*
X649233Y314235D01*
X649233Y318225D01*
X652055Y321047D01*
X656045Y321047D01*
X658867Y318225D01*
X658867Y317717D01*
X658870Y317699D01*
X658868Y317683D01*
X658868Y317681D01*
X658868Y317677D01*
X658890Y317576D01*
X658906Y317474D01*
X658916Y317456D01*
X658920Y317437D01*
X658973Y317348D01*
X659022Y317257D01*
X659036Y317243D01*
X659046Y317226D01*
X659125Y317158D01*
X659200Y317087D01*
X659218Y317079D01*
X659233Y317066D01*
X659329Y317027D01*
X659423Y316984D01*
X659443Y316981D01*
X659461Y316974D01*
X659628Y316955D01*
X662676Y316955D01*
X665498Y314134D01*
X665498Y310144D01*
X662676Y307322D01*
X658686Y307322D01*
G37*
%LPD*%
%LPC*%
G36*
X393229Y510803D02*
X393229Y510803D01*
X391336Y512696D01*
X391320Y512707D01*
X391308Y512723D01*
X391220Y512779D01*
X391137Y512839D01*
X391118Y512845D01*
X391101Y512856D01*
X391000Y512881D01*
X390901Y512912D01*
X390882Y512911D01*
X390862Y512916D01*
X390759Y512908D01*
X390656Y512905D01*
X390637Y512898D01*
X390617Y512897D01*
X390522Y512857D01*
X390425Y512821D01*
X390409Y512808D01*
X390391Y512801D01*
X390260Y512696D01*
X389637Y512073D01*
X385647Y512073D01*
X382825Y514895D01*
X382825Y518885D01*
X385647Y521707D01*
X389637Y521707D01*
X391530Y519814D01*
X391546Y519803D01*
X391558Y519787D01*
X391646Y519731D01*
X391729Y519671D01*
X391748Y519665D01*
X391765Y519654D01*
X391866Y519629D01*
X391965Y519598D01*
X391984Y519599D01*
X392004Y519594D01*
X392107Y519602D01*
X392210Y519605D01*
X392229Y519612D01*
X392249Y519613D01*
X392344Y519653D01*
X392441Y519689D01*
X392457Y519702D01*
X392475Y519709D01*
X392606Y519814D01*
X393229Y520437D01*
X397219Y520437D01*
X400041Y517615D01*
X400041Y513625D01*
X397219Y510803D01*
X393229Y510803D01*
G37*
%LPD*%
%LPC*%
G36*
X295185Y489213D02*
X295185Y489213D01*
X293781Y490617D01*
X293765Y490628D01*
X293753Y490644D01*
X293666Y490700D01*
X293582Y490760D01*
X293563Y490766D01*
X293546Y490777D01*
X293445Y490802D01*
X293346Y490833D01*
X293327Y490832D01*
X293307Y490837D01*
X293204Y490829D01*
X293101Y490826D01*
X293082Y490819D01*
X293062Y490818D01*
X292967Y490778D01*
X292870Y490742D01*
X292854Y490729D01*
X292836Y490722D01*
X292705Y490617D01*
X291555Y489467D01*
X287565Y489467D01*
X284743Y492289D01*
X284743Y496279D01*
X287565Y499101D01*
X291555Y499101D01*
X292959Y497697D01*
X292975Y497686D01*
X292987Y497670D01*
X293075Y497614D01*
X293158Y497554D01*
X293177Y497548D01*
X293194Y497537D01*
X293295Y497512D01*
X293394Y497481D01*
X293413Y497482D01*
X293433Y497477D01*
X293536Y497485D01*
X293639Y497488D01*
X293658Y497495D01*
X293678Y497496D01*
X293773Y497536D01*
X293870Y497572D01*
X293886Y497585D01*
X293904Y497592D01*
X294035Y497697D01*
X295185Y498847D01*
X299175Y498847D01*
X301997Y496025D01*
X301997Y492035D01*
X299175Y489213D01*
X295185Y489213D01*
G37*
%LPD*%
%LPC*%
G36*
X226832Y556242D02*
X226832Y556242D01*
X224010Y559064D01*
X224010Y563054D01*
X226832Y565875D01*
X229118Y565875D01*
X229138Y565879D01*
X229157Y565876D01*
X229259Y565898D01*
X229361Y565915D01*
X229378Y565924D01*
X229398Y565929D01*
X229487Y565982D01*
X229578Y566030D01*
X229592Y566045D01*
X229609Y566055D01*
X229676Y566134D01*
X229748Y566209D01*
X229756Y566227D01*
X229769Y566242D01*
X229808Y566338D01*
X229851Y566432D01*
X229853Y566451D01*
X229861Y566470D01*
X229879Y566637D01*
X229879Y567907D01*
X232701Y570729D01*
X236691Y570729D01*
X239513Y567907D01*
X239513Y563917D01*
X236691Y561095D01*
X234405Y561095D01*
X234385Y561092D01*
X234365Y561094D01*
X234264Y561072D01*
X234162Y561056D01*
X234144Y561046D01*
X234125Y561042D01*
X234036Y560989D01*
X233945Y560940D01*
X233931Y560926D01*
X233914Y560916D01*
X233846Y560837D01*
X233775Y560762D01*
X233767Y560744D01*
X233754Y560729D01*
X233715Y560633D01*
X233672Y560539D01*
X233669Y560519D01*
X233662Y560501D01*
X233643Y560334D01*
X233643Y559064D01*
X230822Y556242D01*
X226832Y556242D01*
G37*
%LPD*%
%LPC*%
G36*
X170789Y538468D02*
X170789Y538468D01*
X167967Y541289D01*
X167967Y545280D01*
X169544Y546857D01*
X169556Y546873D01*
X169571Y546885D01*
X169627Y546972D01*
X169688Y547056D01*
X169693Y547075D01*
X169704Y547092D01*
X169730Y547193D01*
X169760Y547291D01*
X169759Y547311D01*
X169764Y547331D01*
X169756Y547434D01*
X169754Y547537D01*
X169747Y547556D01*
X169745Y547576D01*
X169705Y547671D01*
X169669Y547768D01*
X169657Y547784D01*
X169649Y547802D01*
X169544Y547933D01*
X168606Y548871D01*
X168606Y552862D01*
X171427Y555683D01*
X175418Y555683D01*
X178239Y552862D01*
X178239Y548871D01*
X176662Y547295D01*
X176651Y547278D01*
X176635Y547266D01*
X176579Y547179D01*
X176519Y547095D01*
X176513Y547076D01*
X176502Y547059D01*
X176477Y546959D01*
X176447Y546860D01*
X176447Y546840D01*
X176442Y546820D01*
X176450Y546718D01*
X176453Y546614D01*
X176460Y546595D01*
X176461Y546575D01*
X176502Y546480D01*
X176537Y546383D01*
X176550Y546367D01*
X176558Y546349D01*
X176662Y546218D01*
X177601Y545280D01*
X177601Y541289D01*
X174779Y538468D01*
X170789Y538468D01*
G37*
%LPD*%
%LPC*%
G36*
X146595Y518423D02*
X146595Y518423D01*
X143773Y521245D01*
X143773Y525235D01*
X146595Y528057D01*
X150585Y528057D01*
X153407Y525235D01*
X153407Y521245D01*
X150585Y518423D01*
X146595Y518423D01*
G37*
%LPD*%
%LPC*%
G36*
X404405Y515883D02*
X404405Y515883D01*
X401583Y518705D01*
X401583Y522695D01*
X404405Y525517D01*
X408395Y525517D01*
X411217Y522695D01*
X411217Y518705D01*
X408395Y515883D01*
X404405Y515883D01*
G37*
%LPD*%
%LPC*%
G36*
X359955Y510803D02*
X359955Y510803D01*
X357133Y513625D01*
X357133Y517615D01*
X359955Y520437D01*
X363945Y520437D01*
X366767Y517615D01*
X366767Y513625D01*
X363945Y510803D01*
X359955Y510803D01*
G37*
%LPD*%
%LPC*%
G36*
X348017Y508263D02*
X348017Y508263D01*
X345195Y511085D01*
X345195Y515075D01*
X348017Y517897D01*
X352007Y517897D01*
X354829Y515075D01*
X354829Y511085D01*
X352007Y508263D01*
X348017Y508263D01*
G37*
%LPD*%
%LPC*%
G36*
X441235Y506993D02*
X441235Y506993D01*
X438413Y509815D01*
X438413Y513805D01*
X441235Y516627D01*
X445225Y516627D01*
X448047Y513805D01*
X448047Y509815D01*
X445225Y506993D01*
X441235Y506993D01*
G37*
%LPD*%
%LPC*%
G36*
X357415Y499373D02*
X357415Y499373D01*
X354593Y502195D01*
X354593Y506185D01*
X357415Y509007D01*
X361405Y509007D01*
X364227Y506185D01*
X364227Y502195D01*
X361405Y499373D01*
X357415Y499373D01*
G37*
%LPD*%
%LPC*%
G36*
X525055Y494293D02*
X525055Y494293D01*
X522233Y497115D01*
X522233Y501105D01*
X525055Y503927D01*
X529045Y503927D01*
X531867Y501105D01*
X531867Y497115D01*
X529045Y494293D01*
X525055Y494293D01*
G37*
%LPD*%
%LPC*%
G36*
X254037Y487943D02*
X254037Y487943D01*
X251215Y490765D01*
X251215Y494755D01*
X254037Y497577D01*
X258027Y497577D01*
X260849Y494755D01*
X260849Y490765D01*
X258027Y487943D01*
X254037Y487943D01*
G37*
%LPD*%
%LPC*%
G36*
X236257Y487435D02*
X236257Y487435D01*
X233435Y490257D01*
X233435Y494247D01*
X236257Y497069D01*
X240247Y497069D01*
X243069Y494247D01*
X243069Y490257D01*
X240247Y487435D01*
X236257Y487435D01*
G37*
%LPD*%
%LPC*%
G36*
X307885Y486673D02*
X307885Y486673D01*
X305063Y489495D01*
X305063Y493485D01*
X307885Y496307D01*
X311875Y496307D01*
X314697Y493485D01*
X314697Y489495D01*
X311875Y486673D01*
X307885Y486673D01*
G37*
%LPD*%
%LPC*%
G36*
X622845Y482863D02*
X622845Y482863D01*
X620023Y485685D01*
X620023Y489675D01*
X622845Y492497D01*
X626835Y492497D01*
X629657Y489675D01*
X629657Y485685D01*
X626835Y482863D01*
X622845Y482863D01*
G37*
%LPD*%
%LPC*%
G36*
X780606Y472985D02*
X780606Y472985D01*
X777785Y475806D01*
X777785Y479796D01*
X780606Y482618D01*
X784596Y482618D01*
X787418Y479796D01*
X787418Y475806D01*
X784596Y472985D01*
X780606Y472985D01*
G37*
%LPD*%
%LPC*%
G36*
X737145Y465083D02*
X737145Y465083D01*
X734323Y467905D01*
X734323Y471895D01*
X737145Y474717D01*
X741135Y474717D01*
X743957Y471895D01*
X743957Y467905D01*
X741135Y465083D01*
X737145Y465083D01*
G37*
%LPD*%
%LPC*%
G36*
X136435Y449843D02*
X136435Y449843D01*
X133613Y452665D01*
X133613Y456655D01*
X136435Y459477D01*
X140425Y459477D01*
X143247Y456655D01*
X143247Y452665D01*
X140425Y449843D01*
X136435Y449843D01*
G37*
%LPD*%
%LPC*%
G36*
X471715Y448573D02*
X471715Y448573D01*
X468893Y451395D01*
X468893Y455385D01*
X471715Y458207D01*
X475705Y458207D01*
X478527Y455385D01*
X478527Y451395D01*
X475705Y448573D01*
X471715Y448573D01*
G37*
%LPD*%
%LPC*%
G36*
X300265Y444763D02*
X300265Y444763D01*
X297443Y447585D01*
X297443Y451575D01*
X300265Y454397D01*
X304255Y454397D01*
X307077Y451575D01*
X307077Y447585D01*
X304255Y444763D01*
X300265Y444763D01*
G37*
%LPD*%
%LPC*%
G36*
X385355Y440953D02*
X385355Y440953D01*
X382533Y443775D01*
X382533Y447765D01*
X385355Y450587D01*
X389345Y450587D01*
X392167Y447765D01*
X392167Y443775D01*
X389345Y440953D01*
X385355Y440953D01*
G37*
%LPD*%
%LPC*%
G36*
X241845Y439683D02*
X241845Y439683D01*
X239023Y442505D01*
X239023Y446495D01*
X241845Y449317D01*
X245835Y449317D01*
X248657Y446495D01*
X248657Y442505D01*
X245835Y439683D01*
X241845Y439683D01*
G37*
%LPD*%
%LPC*%
G36*
X356145Y437143D02*
X356145Y437143D01*
X353323Y439965D01*
X353323Y443955D01*
X356145Y446777D01*
X360135Y446777D01*
X362957Y443955D01*
X362957Y439965D01*
X360135Y437143D01*
X356145Y437143D01*
G37*
%LPD*%
%LPC*%
G36*
X790485Y414573D02*
X790485Y414573D01*
X787663Y417395D01*
X787663Y421385D01*
X790485Y424207D01*
X794475Y424207D01*
X797297Y421385D01*
X797297Y417395D01*
X794475Y414573D01*
X790485Y414573D01*
G37*
%LPD*%
%LPC*%
G36*
X455205Y413013D02*
X455205Y413013D01*
X452383Y415835D01*
X452383Y419825D01*
X455205Y422647D01*
X459195Y422647D01*
X462017Y419825D01*
X462017Y415835D01*
X459195Y413013D01*
X455205Y413013D01*
G37*
%LPD*%
%LPC*%
G36*
X648245Y410473D02*
X648245Y410473D01*
X645423Y413295D01*
X645423Y417285D01*
X648245Y420107D01*
X652235Y420107D01*
X655057Y417285D01*
X655057Y413295D01*
X652235Y410473D01*
X648245Y410473D01*
G37*
%LPD*%
%LPC*%
G36*
X377735Y391423D02*
X377735Y391423D01*
X374913Y394245D01*
X374913Y398235D01*
X377735Y401057D01*
X381725Y401057D01*
X384547Y398235D01*
X384547Y394245D01*
X381725Y391423D01*
X377735Y391423D01*
G37*
%LPD*%
%LPC*%
G36*
X640625Y340623D02*
X640625Y340623D01*
X637803Y343445D01*
X637803Y347435D01*
X640625Y350257D01*
X644615Y350257D01*
X647437Y347435D01*
X647437Y343445D01*
X644615Y340623D01*
X640625Y340623D01*
G37*
%LPD*%
%LPC*%
G36*
X768895Y382533D02*
X768895Y382533D01*
X766073Y385355D01*
X766073Y389345D01*
X768895Y392167D01*
X772885Y392167D01*
X775707Y389345D01*
X775707Y385355D01*
X772885Y382533D01*
X768895Y382533D01*
G37*
%LPD*%
%LPC*%
G36*
X560615Y382533D02*
X560615Y382533D01*
X557793Y385355D01*
X557793Y389345D01*
X560615Y392167D01*
X564605Y392167D01*
X567427Y389345D01*
X567427Y385355D01*
X564605Y382533D01*
X560615Y382533D01*
G37*
%LPD*%
%LPC*%
G36*
X738005Y375183D02*
X738005Y375183D01*
X735183Y378005D01*
X735183Y381995D01*
X738005Y384817D01*
X741995Y384817D01*
X744817Y381995D01*
X744817Y378005D01*
X741995Y375183D01*
X738005Y375183D01*
G37*
%LPD*%
%LPC*%
G36*
X556805Y371103D02*
X556805Y371103D01*
X553983Y373925D01*
X553983Y377915D01*
X556805Y380737D01*
X560795Y380737D01*
X563617Y377915D01*
X563617Y373925D01*
X560795Y371103D01*
X556805Y371103D01*
G37*
%LPD*%
%LPC*%
G36*
X474255Y371103D02*
X474255Y371103D01*
X471433Y373925D01*
X471433Y377915D01*
X474255Y380737D01*
X478245Y380737D01*
X481067Y377915D01*
X481067Y373925D01*
X478245Y371103D01*
X474255Y371103D01*
G37*
%LPD*%
%LPC*%
G36*
X581936Y369565D02*
X581936Y369565D01*
X579115Y372386D01*
X579115Y376377D01*
X581936Y379198D01*
X585927Y379198D01*
X588748Y376377D01*
X588748Y372386D01*
X585927Y369565D01*
X581936Y369565D01*
G37*
%LPD*%
%LPC*%
G36*
X594138Y365251D02*
X594138Y365251D01*
X591317Y368073D01*
X591317Y372063D01*
X594138Y374885D01*
X598129Y374885D01*
X600950Y372063D01*
X600950Y368073D01*
X598129Y365251D01*
X594138Y365251D01*
G37*
%LPD*%
%LPC*%
G36*
X812075Y359673D02*
X812075Y359673D01*
X809253Y362495D01*
X809253Y366485D01*
X812075Y369307D01*
X816065Y369307D01*
X818887Y366485D01*
X818887Y362495D01*
X816065Y359673D01*
X812075Y359673D01*
G37*
%LPD*%
%LPC*%
G36*
X612403Y354312D02*
X612403Y354312D01*
X609582Y357133D01*
X609582Y361124D01*
X612403Y363945D01*
X616394Y363945D01*
X619215Y361124D01*
X619215Y357133D01*
X616394Y354312D01*
X612403Y354312D01*
G37*
%LPD*%
%LPC*%
G36*
X486955Y349605D02*
X486955Y349605D01*
X484133Y352427D01*
X484133Y356417D01*
X486955Y359239D01*
X490945Y359239D01*
X493767Y356417D01*
X493767Y352427D01*
X490945Y349605D01*
X486955Y349605D01*
G37*
%LPD*%
%LPC*%
G36*
X351065Y347735D02*
X351065Y347735D01*
X348243Y350557D01*
X348243Y354547D01*
X351065Y357369D01*
X355055Y357369D01*
X357877Y354547D01*
X357877Y350557D01*
X355055Y347735D01*
X351065Y347735D01*
G37*
%LPD*%
%LPC*%
G36*
X628402Y346201D02*
X628402Y346201D01*
X625581Y349023D01*
X625581Y353013D01*
X628402Y355835D01*
X632393Y355835D01*
X635214Y353013D01*
X635214Y349023D01*
X632393Y346201D01*
X628402Y346201D01*
G37*
%LPD*%
%LPC*%
G36*
X563774Y341274D02*
X563774Y341274D01*
X560953Y344095D01*
X560953Y348086D01*
X563774Y350907D01*
X567765Y350907D01*
X570586Y348086D01*
X570586Y344095D01*
X567765Y341274D01*
X563774Y341274D01*
G37*
%LPD*%
%LPC*%
G36*
X349541Y336051D02*
X349541Y336051D01*
X346719Y338873D01*
X346719Y342863D01*
X349541Y345685D01*
X353531Y345685D01*
X356353Y342863D01*
X356353Y338873D01*
X353531Y336051D01*
X349541Y336051D01*
G37*
%LPD*%
%LPC*%
G36*
X700315Y331733D02*
X700315Y331733D01*
X697493Y334555D01*
X697493Y338545D01*
X700315Y341367D01*
X704305Y341367D01*
X707127Y338545D01*
X707127Y334555D01*
X704305Y331733D01*
X700315Y331733D01*
G37*
%LPD*%
%LPC*%
G36*
X645705Y327923D02*
X645705Y327923D01*
X642883Y330745D01*
X642883Y334735D01*
X645705Y337557D01*
X649695Y337557D01*
X652517Y334735D01*
X652517Y330745D01*
X649695Y327923D01*
X645705Y327923D01*
G37*
%LPD*%
%LPC*%
G36*
X686345Y326653D02*
X686345Y326653D01*
X683523Y329475D01*
X683523Y333465D01*
X686345Y336287D01*
X690335Y336287D01*
X693157Y333465D01*
X693157Y329475D01*
X690335Y326653D01*
X686345Y326653D01*
G37*
%LPD*%
%LPC*%
G36*
X587285Y324113D02*
X587285Y324113D01*
X584463Y326935D01*
X584463Y330925D01*
X587285Y333747D01*
X591275Y333747D01*
X594097Y330925D01*
X594097Y326935D01*
X591275Y324113D01*
X587285Y324113D01*
G37*
%LPD*%
%LPC*%
G36*
X757465Y322843D02*
X757465Y322843D01*
X754643Y325665D01*
X754643Y329655D01*
X757465Y332477D01*
X761455Y332477D01*
X764277Y329655D01*
X764277Y325665D01*
X761455Y322843D01*
X757465Y322843D01*
G37*
%LPD*%
%LPC*%
G36*
X156755Y317763D02*
X156755Y317763D01*
X153933Y320585D01*
X153933Y324575D01*
X156755Y327397D01*
X160745Y327397D01*
X163567Y324575D01*
X163567Y320585D01*
X160745Y317763D01*
X156755Y317763D01*
G37*
%LPD*%
%LPC*%
G36*
X773975Y303793D02*
X773975Y303793D01*
X771153Y306615D01*
X771153Y310605D01*
X773975Y313427D01*
X777965Y313427D01*
X780787Y310605D01*
X780787Y306615D01*
X777965Y303793D01*
X773975Y303793D01*
G37*
%LPD*%
%LPC*%
G36*
X565695Y303793D02*
X565695Y303793D01*
X562873Y306615D01*
X562873Y310605D01*
X565695Y313427D01*
X569685Y313427D01*
X572507Y310605D01*
X572507Y306615D01*
X569685Y303793D01*
X565695Y303793D01*
G37*
%LPD*%
%LPC*%
G36*
X554265Y303793D02*
X554265Y303793D01*
X551443Y306615D01*
X551443Y310605D01*
X554265Y313427D01*
X558255Y313427D01*
X561077Y310605D01*
X561077Y306615D01*
X558255Y303793D01*
X554265Y303793D01*
G37*
%LPD*%
%LPC*%
G36*
X591095Y299983D02*
X591095Y299983D01*
X588273Y302805D01*
X588273Y306795D01*
X591095Y309617D01*
X595085Y309617D01*
X597907Y306795D01*
X597907Y302805D01*
X595085Y299983D01*
X591095Y299983D01*
G37*
%LPD*%
%LPC*%
G36*
X719365Y292019D02*
X719365Y292019D01*
X716543Y294841D01*
X716543Y298831D01*
X719365Y301652D01*
X723355Y301652D01*
X726177Y298831D01*
X726177Y294841D01*
X723355Y292019D01*
X719365Y292019D01*
G37*
%LPD*%
%LPC*%
G36*
X657135Y291093D02*
X657135Y291093D01*
X654313Y293915D01*
X654313Y297905D01*
X657135Y300727D01*
X661125Y300727D01*
X663947Y297905D01*
X663947Y293915D01*
X661125Y291093D01*
X657135Y291093D01*
G37*
%LPD*%
%LPC*%
G36*
X296455Y283473D02*
X296455Y283473D01*
X293633Y286295D01*
X293633Y290285D01*
X296455Y293107D01*
X300445Y293107D01*
X303267Y290285D01*
X303267Y286295D01*
X300445Y283473D01*
X296455Y283473D01*
G37*
%LPD*%
%LPC*%
G36*
X485177Y280679D02*
X485177Y280679D01*
X482355Y283501D01*
X482355Y287491D01*
X485177Y290313D01*
X489167Y290313D01*
X491989Y287491D01*
X491989Y283501D01*
X489167Y280679D01*
X485177Y280679D01*
G37*
%LPD*%
%LPC*%
G36*
X606335Y280679D02*
X606335Y280679D01*
X603513Y283501D01*
X603513Y287491D01*
X606335Y290313D01*
X610325Y290313D01*
X613147Y287491D01*
X613147Y283501D01*
X610325Y280679D01*
X606335Y280679D01*
G37*
%LPD*%
%LPC*%
G36*
X370115Y277123D02*
X370115Y277123D01*
X367293Y279945D01*
X367293Y283935D01*
X370115Y286757D01*
X374105Y286757D01*
X376927Y283935D01*
X376927Y279945D01*
X374105Y277123D01*
X370115Y277123D01*
G37*
%LPD*%
%LPC*%
G36*
X654595Y274583D02*
X654595Y274583D01*
X651773Y277405D01*
X651773Y281395D01*
X654595Y284217D01*
X658585Y284217D01*
X661407Y281395D01*
X661407Y277405D01*
X658585Y274583D01*
X654595Y274583D01*
G37*
%LPD*%
%LPC*%
G36*
X519975Y270773D02*
X519975Y270773D01*
X517153Y273595D01*
X517153Y277585D01*
X519975Y280407D01*
X523965Y280407D01*
X526787Y277585D01*
X526787Y273595D01*
X523965Y270773D01*
X519975Y270773D01*
G37*
%LPD*%
%LPC*%
G36*
X555535Y269503D02*
X555535Y269503D01*
X552713Y272325D01*
X552713Y276315D01*
X555535Y279137D01*
X559525Y279137D01*
X562347Y276315D01*
X562347Y272325D01*
X559525Y269503D01*
X555535Y269503D01*
G37*
%LPD*%
%LPC*%
G36*
X566965Y269503D02*
X566965Y269503D01*
X564143Y272325D01*
X564143Y276315D01*
X566965Y279137D01*
X570955Y279137D01*
X573777Y276315D01*
X573777Y272325D01*
X570955Y269503D01*
X566965Y269503D01*
G37*
%LPD*%
%LPC*%
G36*
X782865Y258073D02*
X782865Y258073D01*
X780043Y260895D01*
X780043Y264885D01*
X782865Y267707D01*
X786855Y267707D01*
X789677Y264885D01*
X789677Y260895D01*
X786855Y258073D01*
X782865Y258073D01*
G37*
%LPD*%
%LPC*%
G36*
X278929Y257311D02*
X278929Y257311D01*
X276107Y260133D01*
X276107Y264123D01*
X278929Y266945D01*
X282919Y266945D01*
X285741Y264123D01*
X285741Y260133D01*
X282919Y257311D01*
X278929Y257311D01*
G37*
%LPD*%
%LPC*%
G36*
X367575Y252993D02*
X367575Y252993D01*
X364753Y255815D01*
X364753Y259805D01*
X367575Y262627D01*
X371565Y262627D01*
X374387Y259805D01*
X374387Y255815D01*
X371565Y252993D01*
X367575Y252993D01*
G37*
%LPD*%
%LPC*%
G36*
X542835Y623833D02*
X542835Y623833D01*
X540013Y626655D01*
X540013Y630645D01*
X542835Y633467D01*
X546825Y633467D01*
X549647Y630645D01*
X549647Y626655D01*
X546825Y623833D01*
X542835Y623833D01*
G37*
%LPD*%
%LPC*%
G36*
X413295Y242833D02*
X413295Y242833D01*
X410473Y245655D01*
X410473Y249645D01*
X413295Y252467D01*
X417285Y252467D01*
X420107Y249645D01*
X420107Y245655D01*
X417285Y242833D01*
X413295Y242833D01*
G37*
%LPD*%
%LPC*%
G36*
X631735Y237753D02*
X631735Y237753D01*
X628913Y240575D01*
X628913Y244565D01*
X631735Y247387D01*
X635725Y247387D01*
X638547Y244565D01*
X638547Y240575D01*
X635725Y237753D01*
X631735Y237753D01*
G37*
%LPD*%
%LPC*%
G36*
X608875Y616213D02*
X608875Y616213D01*
X606053Y619035D01*
X606053Y623025D01*
X608875Y625847D01*
X612865Y625847D01*
X615687Y623025D01*
X615687Y619035D01*
X612865Y616213D01*
X608875Y616213D01*
G37*
%LPD*%
%LPC*%
G36*
X465365Y616213D02*
X465365Y616213D01*
X462543Y619035D01*
X462543Y623025D01*
X465365Y625847D01*
X469355Y625847D01*
X472177Y623025D01*
X472177Y619035D01*
X469355Y616213D01*
X465365Y616213D01*
G37*
%LPD*%
%LPC*%
G36*
X226605Y597163D02*
X226605Y597163D01*
X223783Y599985D01*
X223783Y603975D01*
X226605Y606797D01*
X230595Y606797D01*
X233417Y603975D01*
X233417Y599985D01*
X230595Y597163D01*
X226605Y597163D01*
G37*
%LPD*%
%LPC*%
G36*
X654595Y213623D02*
X654595Y213623D01*
X651773Y216445D01*
X651773Y220435D01*
X654595Y223257D01*
X658585Y223257D01*
X661407Y220435D01*
X661407Y216445D01*
X658585Y213623D01*
X654595Y213623D01*
G37*
%LPD*%
%LPC*%
G36*
X314997Y209051D02*
X314997Y209051D01*
X312175Y211873D01*
X312175Y215863D01*
X314997Y218685D01*
X318987Y218685D01*
X321809Y215863D01*
X321809Y211873D01*
X318987Y209051D01*
X314997Y209051D01*
G37*
%LPD*%
%LPC*%
G36*
X592365Y206003D02*
X592365Y206003D01*
X589543Y208825D01*
X589543Y212815D01*
X592365Y215637D01*
X596355Y215637D01*
X599177Y212815D01*
X599177Y208825D01*
X596355Y206003D01*
X592365Y206003D01*
G37*
%LPD*%
%LPC*%
G36*
X608875Y206003D02*
X608875Y206003D01*
X606053Y208825D01*
X606053Y212815D01*
X608875Y215637D01*
X612865Y215637D01*
X615687Y212815D01*
X615687Y208825D01*
X612865Y206003D01*
X608875Y206003D01*
G37*
%LPD*%
%LPC*%
G36*
X329475Y590813D02*
X329475Y590813D01*
X326653Y593635D01*
X326653Y597625D01*
X329475Y600447D01*
X333465Y600447D01*
X336287Y597625D01*
X336287Y593635D01*
X333465Y590813D01*
X329475Y590813D01*
G37*
%LPD*%
%LPC*%
G36*
X572045Y589543D02*
X572045Y589543D01*
X569223Y592365D01*
X569223Y596355D01*
X572045Y599177D01*
X576035Y599177D01*
X578857Y596355D01*
X578857Y592365D01*
X576035Y589543D01*
X572045Y589543D01*
G37*
%LPD*%
%LPC*%
G36*
X283755Y200923D02*
X283755Y200923D01*
X280933Y203745D01*
X280933Y207735D01*
X283755Y210557D01*
X287745Y210557D01*
X290567Y207735D01*
X290567Y203745D01*
X287745Y200923D01*
X283755Y200923D01*
G37*
%LPD*%
%LPC*%
G36*
X403135Y195843D02*
X403135Y195843D01*
X400313Y198665D01*
X400313Y202655D01*
X403135Y205477D01*
X407125Y205477D01*
X409947Y202655D01*
X409947Y198665D01*
X407125Y195843D01*
X403135Y195843D01*
G37*
%LPD*%
%LPC*%
G36*
X335825Y195335D02*
X335825Y195335D01*
X333003Y198157D01*
X333003Y202147D01*
X335825Y204969D01*
X339815Y204969D01*
X342637Y202147D01*
X342637Y198157D01*
X339815Y195335D01*
X335825Y195335D01*
G37*
%LPD*%
%LPC*%
G36*
X653325Y192033D02*
X653325Y192033D01*
X650503Y194855D01*
X650503Y198845D01*
X653325Y201667D01*
X657315Y201667D01*
X660137Y198845D01*
X660137Y194855D01*
X657315Y192033D01*
X653325Y192033D01*
G37*
%LPD*%
%LPC*%
G36*
X479739Y582328D02*
X479739Y582328D01*
X476918Y585149D01*
X476918Y589140D01*
X479739Y591961D01*
X483730Y591961D01*
X486551Y589140D01*
X486551Y585149D01*
X483730Y582328D01*
X479739Y582328D01*
G37*
%LPD*%
%LPC*%
G36*
X485955Y568224D02*
X485955Y568224D01*
X483134Y571045D01*
X483134Y575035D01*
X485955Y577857D01*
X489945Y577857D01*
X492767Y575035D01*
X492767Y571045D01*
X489945Y568224D01*
X485955Y568224D01*
G37*
%LPD*%
%LPC*%
G36*
X381545Y181873D02*
X381545Y181873D01*
X378723Y184695D01*
X378723Y188685D01*
X381545Y191507D01*
X385535Y191507D01*
X388357Y188685D01*
X388357Y184695D01*
X385535Y181873D01*
X381545Y181873D01*
G37*
%LPD*%
%LPC*%
G36*
X169455Y171713D02*
X169455Y171713D01*
X166633Y174535D01*
X166633Y178525D01*
X169455Y181347D01*
X173445Y181347D01*
X176267Y178525D01*
X176267Y174535D01*
X173445Y171713D01*
X169455Y171713D01*
G37*
%LPD*%
%LPC*%
G36*
X415835Y151881D02*
X415835Y151881D01*
X413013Y154703D01*
X413013Y158693D01*
X415835Y161515D01*
X419825Y161515D01*
X422647Y158693D01*
X422647Y154703D01*
X419825Y151881D01*
X415835Y151881D01*
G37*
%LPD*%
%LPC*%
G36*
X662215Y504453D02*
X662215Y504453D01*
X659393Y507275D01*
X659393Y511265D01*
X662215Y514087D01*
X666205Y514087D01*
X669027Y511265D01*
X669027Y507275D01*
X666205Y504453D01*
X662215Y504453D01*
G37*
%LPD*%
%LPC*%
G36*
X592365Y545093D02*
X592365Y545093D01*
X589543Y547915D01*
X589543Y551905D01*
X592365Y554727D01*
X596355Y554727D01*
X599177Y551905D01*
X599177Y547915D01*
X596355Y545093D01*
X592365Y545093D01*
G37*
%LPD*%
%LPC*%
G36*
X247313Y149735D02*
X247313Y149735D01*
X244492Y152557D01*
X244492Y156547D01*
X247313Y159368D01*
X251303Y159368D01*
X254125Y156547D01*
X254125Y152557D01*
X251303Y149735D01*
X247313Y149735D01*
G37*
%LPD*%
%LPC*%
G36*
X268515Y148853D02*
X268515Y148853D01*
X265693Y151675D01*
X265693Y155665D01*
X268515Y158487D01*
X272505Y158487D01*
X275327Y155665D01*
X275327Y151675D01*
X272505Y148853D01*
X268515Y148853D01*
G37*
%LPD*%
%LPC*%
G36*
X300773Y541283D02*
X300773Y541283D01*
X297951Y544105D01*
X297951Y548095D01*
X300773Y550917D01*
X304763Y550917D01*
X307585Y548095D01*
X307585Y544105D01*
X304763Y541283D01*
X300773Y541283D01*
G37*
%LPD*%
%LPC*%
G36*
X291629Y533155D02*
X291629Y533155D01*
X288807Y535977D01*
X288807Y539967D01*
X291629Y542789D01*
X295619Y542789D01*
X298441Y539967D01*
X298441Y535977D01*
X295619Y533155D01*
X291629Y533155D01*
G37*
%LPD*%
%LPC*%
G36*
X224065Y528583D02*
X224065Y528583D01*
X221243Y531405D01*
X221243Y535395D01*
X224065Y538217D01*
X228055Y538217D01*
X230877Y535395D01*
X230877Y531405D01*
X228055Y528583D01*
X224065Y528583D01*
G37*
%LPD*%
%LPC*%
G36*
X311441Y122691D02*
X311441Y122691D01*
X308619Y125513D01*
X308619Y129503D01*
X311441Y132325D01*
X315431Y132325D01*
X318253Y129503D01*
X318253Y125513D01*
X315431Y122691D01*
X311441Y122691D01*
G37*
%LPD*%
%LPC*%
G36*
X851523Y166523D02*
X851523Y166523D01*
X851523Y173405D01*
X852491Y173213D01*
X854046Y172569D01*
X855444Y171634D01*
X856634Y170444D01*
X857569Y169046D01*
X858213Y167491D01*
X858405Y166523D01*
X851523Y166523D01*
G37*
%LPD*%
%LPC*%
G36*
X871523Y366523D02*
X871523Y366523D01*
X871523Y373405D01*
X872491Y373213D01*
X874046Y372569D01*
X875444Y371634D01*
X876634Y370444D01*
X877569Y369046D01*
X878213Y367491D01*
X878405Y366523D01*
X871523Y366523D01*
G37*
%LPD*%
%LPC*%
G36*
X851523Y366523D02*
X851523Y366523D01*
X851523Y373405D01*
X852491Y373213D01*
X854046Y372569D01*
X855444Y371634D01*
X856634Y370444D01*
X857569Y369046D01*
X858213Y367491D01*
X858405Y366523D01*
X851523Y366523D01*
G37*
%LPD*%
%LPC*%
G36*
X871523Y166523D02*
X871523Y166523D01*
X871523Y173405D01*
X872491Y173213D01*
X874046Y172569D01*
X875444Y171634D01*
X876634Y170444D01*
X877569Y169046D01*
X878213Y167491D01*
X878405Y166523D01*
X871523Y166523D01*
G37*
%LPD*%
%LPC*%
G36*
X861595Y366523D02*
X861595Y366523D01*
X861787Y367491D01*
X862431Y369046D01*
X863366Y370444D01*
X864556Y371634D01*
X865954Y372569D01*
X867509Y373213D01*
X868477Y373405D01*
X868477Y366523D01*
X861595Y366523D01*
G37*
%LPD*%
%LPC*%
G36*
X841595Y366523D02*
X841595Y366523D01*
X841787Y367491D01*
X842431Y369046D01*
X843366Y370444D01*
X844556Y371634D01*
X845954Y372569D01*
X847509Y373213D01*
X848477Y373405D01*
X848477Y366523D01*
X841595Y366523D01*
G37*
%LPD*%
%LPC*%
G36*
X851523Y163477D02*
X851523Y163477D01*
X858405Y163477D01*
X858213Y162509D01*
X857569Y160954D01*
X856634Y159556D01*
X855444Y158366D01*
X854046Y157431D01*
X852491Y156787D01*
X851523Y156595D01*
X851523Y163477D01*
G37*
%LPD*%
%LPC*%
G36*
X871523Y363477D02*
X871523Y363477D01*
X878405Y363477D01*
X878213Y362509D01*
X877569Y360954D01*
X876634Y359556D01*
X875444Y358366D01*
X874046Y357431D01*
X872491Y356787D01*
X871523Y356595D01*
X871523Y363477D01*
G37*
%LPD*%
%LPC*%
G36*
X871523Y163477D02*
X871523Y163477D01*
X878405Y163477D01*
X878213Y162509D01*
X877569Y160954D01*
X876634Y159556D01*
X875444Y158366D01*
X874046Y157431D01*
X872491Y156787D01*
X871523Y156595D01*
X871523Y163477D01*
G37*
%LPD*%
%LPC*%
G36*
X851523Y363477D02*
X851523Y363477D01*
X858405Y363477D01*
X858213Y362509D01*
X857569Y360954D01*
X856634Y359556D01*
X855444Y358366D01*
X854046Y357431D01*
X852491Y356787D01*
X851523Y356595D01*
X851523Y363477D01*
G37*
%LPD*%
%LPC*%
G36*
X841595Y166523D02*
X841595Y166523D01*
X841787Y167491D01*
X842431Y169046D01*
X843366Y170444D01*
X844556Y171634D01*
X845954Y172569D01*
X847509Y173213D01*
X848477Y173405D01*
X848477Y166523D01*
X841595Y166523D01*
G37*
%LPD*%
%LPC*%
G36*
X861595Y166523D02*
X861595Y166523D01*
X861787Y167491D01*
X862431Y169046D01*
X863366Y170444D01*
X864556Y171634D01*
X865954Y172569D01*
X867509Y173213D01*
X868477Y173405D01*
X868477Y166523D01*
X861595Y166523D01*
G37*
%LPD*%
%LPC*%
G36*
X847509Y156787D02*
X847509Y156787D01*
X845954Y157431D01*
X844556Y158366D01*
X843366Y159556D01*
X842431Y160954D01*
X841787Y162509D01*
X841595Y163477D01*
X848477Y163477D01*
X848477Y156595D01*
X847509Y156787D01*
G37*
%LPD*%
%LPC*%
G36*
X867509Y156787D02*
X867509Y156787D01*
X865954Y157431D01*
X864556Y158366D01*
X863366Y159556D01*
X862431Y160954D01*
X861787Y162509D01*
X861595Y163477D01*
X868477Y163477D01*
X868477Y156595D01*
X867509Y156787D01*
G37*
%LPD*%
%LPC*%
G36*
X867509Y356787D02*
X867509Y356787D01*
X865954Y357431D01*
X864556Y358366D01*
X863366Y359556D01*
X862431Y360954D01*
X861787Y362509D01*
X861595Y363477D01*
X868477Y363477D01*
X868477Y356595D01*
X867509Y356787D01*
G37*
%LPD*%
%LPC*%
G36*
X847509Y356787D02*
X847509Y356787D01*
X845954Y357431D01*
X844556Y358366D01*
X843366Y359556D01*
X842431Y360954D01*
X841787Y362509D01*
X841595Y363477D01*
X848477Y363477D01*
X848477Y356595D01*
X847509Y356787D01*
G37*
%LPD*%
%LPC*%
G36*
X180249Y567549D02*
X180249Y567549D01*
X180249Y572465D01*
X180835Y572349D01*
X181980Y571875D01*
X183010Y571186D01*
X183886Y570310D01*
X184575Y569280D01*
X185049Y568135D01*
X185165Y567549D01*
X180249Y567549D01*
G37*
%LPD*%
%LPC*%
G36*
X180249Y484949D02*
X180249Y484949D01*
X180249Y489865D01*
X180835Y489749D01*
X181980Y489275D01*
X183010Y488586D01*
X183886Y487710D01*
X184575Y486680D01*
X185049Y485535D01*
X185165Y484949D01*
X180249Y484949D01*
G37*
%LPD*%
%LPC*%
G36*
X120749Y571149D02*
X120749Y571149D01*
X120749Y576065D01*
X121335Y575949D01*
X122480Y575475D01*
X123510Y574786D01*
X124386Y573910D01*
X125075Y572880D01*
X125549Y571735D01*
X125665Y571149D01*
X120749Y571149D01*
G37*
%LPD*%
%LPC*%
G36*
X120749Y481349D02*
X120749Y481349D01*
X120749Y486265D01*
X121335Y486149D01*
X122480Y485675D01*
X123510Y484986D01*
X124386Y484110D01*
X125075Y483080D01*
X125549Y481935D01*
X125665Y481349D01*
X120749Y481349D01*
G37*
%LPD*%
%LPC*%
G36*
X120749Y568651D02*
X120749Y568651D01*
X125665Y568651D01*
X125549Y568065D01*
X125075Y566920D01*
X124386Y565890D01*
X123510Y565014D01*
X122480Y564325D01*
X121335Y563851D01*
X120749Y563735D01*
X120749Y568651D01*
G37*
%LPD*%
%LPC*%
G36*
X172835Y484949D02*
X172835Y484949D01*
X172951Y485535D01*
X173425Y486680D01*
X174114Y487710D01*
X174990Y488586D01*
X176020Y489275D01*
X177165Y489749D01*
X177751Y489865D01*
X177751Y484949D01*
X172835Y484949D01*
G37*
%LPD*%
%LPC*%
G36*
X172835Y567549D02*
X172835Y567549D01*
X172951Y568135D01*
X173425Y569280D01*
X174114Y570310D01*
X174990Y571186D01*
X176020Y571875D01*
X177165Y572349D01*
X177751Y572465D01*
X177751Y567549D01*
X172835Y567549D01*
G37*
%LPD*%
%LPC*%
G36*
X113335Y571149D02*
X113335Y571149D01*
X113451Y571735D01*
X113925Y572880D01*
X114614Y573910D01*
X115490Y574786D01*
X116520Y575475D01*
X117665Y575949D01*
X118251Y576065D01*
X118251Y571149D01*
X113335Y571149D01*
G37*
%LPD*%
%LPC*%
G36*
X180249Y482451D02*
X180249Y482451D01*
X185165Y482451D01*
X185049Y481865D01*
X184575Y480720D01*
X183886Y479690D01*
X183010Y478814D01*
X181980Y478125D01*
X180835Y477651D01*
X180249Y477535D01*
X180249Y482451D01*
G37*
%LPD*%
%LPC*%
G36*
X113335Y481349D02*
X113335Y481349D01*
X113451Y481935D01*
X113925Y483080D01*
X114614Y484110D01*
X115490Y484986D01*
X116520Y485675D01*
X117665Y486149D01*
X118251Y486265D01*
X118251Y481349D01*
X113335Y481349D01*
G37*
%LPD*%
%LPC*%
G36*
X120749Y478851D02*
X120749Y478851D01*
X125665Y478851D01*
X125549Y478265D01*
X125075Y477120D01*
X124386Y476090D01*
X123510Y475214D01*
X122480Y474525D01*
X121335Y474051D01*
X120749Y473935D01*
X120749Y478851D01*
G37*
%LPD*%
%LPC*%
G36*
X117665Y563851D02*
X117665Y563851D01*
X116520Y564325D01*
X115490Y565014D01*
X114614Y565890D01*
X113925Y566920D01*
X113451Y568065D01*
X113335Y568651D01*
X118251Y568651D01*
X118251Y563735D01*
X117665Y563851D01*
G37*
%LPD*%
%LPC*%
G36*
X177165Y560251D02*
X177165Y560251D01*
X176020Y560725D01*
X174990Y561414D01*
X174114Y562290D01*
X173425Y563320D01*
X172951Y564465D01*
X172835Y565051D01*
X177751Y565051D01*
X177751Y560135D01*
X177165Y560251D01*
G37*
%LPD*%
%LPC*%
G36*
X177165Y477651D02*
X177165Y477651D01*
X176020Y478125D01*
X174990Y478814D01*
X174114Y479690D01*
X173425Y480720D01*
X172951Y481865D01*
X172835Y482451D01*
X177751Y482451D01*
X177751Y477535D01*
X177165Y477651D01*
G37*
%LPD*%
%LPC*%
G36*
X117665Y474051D02*
X117665Y474051D01*
X116520Y474525D01*
X115490Y475214D01*
X114614Y476090D01*
X113925Y477120D01*
X113451Y478265D01*
X113335Y478851D01*
X118251Y478851D01*
X118251Y473935D01*
X117665Y474051D01*
G37*
%LPD*%
%LPC*%
G36*
X869999Y164999D02*
X869999Y164999D01*
X869999Y165001D01*
X870001Y165001D01*
X870001Y164999D01*
X869999Y164999D01*
G37*
%LPD*%
%LPC*%
G36*
X849999Y164999D02*
X849999Y164999D01*
X849999Y165001D01*
X850001Y165001D01*
X850001Y164999D01*
X849999Y164999D01*
G37*
%LPD*%
%LPC*%
G36*
X869999Y364999D02*
X869999Y364999D01*
X869999Y365001D01*
X870001Y365001D01*
X870001Y364999D01*
X869999Y364999D01*
G37*
%LPD*%
%LPC*%
G36*
X849999Y364999D02*
X849999Y364999D01*
X849999Y365001D01*
X850001Y365001D01*
X850001Y364999D01*
X849999Y364999D01*
G37*
%LPD*%
D10*
X119500Y569900D03*
X119500Y480100D03*
X179000Y483700D03*
X179000Y566300D03*
D11*
X870000Y365000D03*
X850000Y365000D03*
X870000Y385000D03*
X850000Y385000D03*
X870000Y405000D03*
X850000Y405000D03*
X870000Y425000D03*
X850000Y425000D03*
X870000Y445000D03*
X850000Y445000D03*
X870000Y465000D03*
X850000Y465000D03*
X870000Y485000D03*
X850000Y485000D03*
X870000Y505000D03*
X850000Y505000D03*
X870000Y525000D03*
X850000Y525000D03*
X870000Y545000D03*
X850000Y545000D03*
X870000Y565000D03*
X850000Y565000D03*
X870000Y585000D03*
X850000Y585000D03*
X870000Y165000D03*
X850000Y165000D03*
X870000Y185000D03*
X850000Y185000D03*
X870000Y205000D03*
X850000Y205000D03*
X870000Y225000D03*
X850000Y225000D03*
X870000Y245000D03*
X850000Y245000D03*
X870000Y265000D03*
X850000Y265000D03*
X870000Y285000D03*
X850000Y285000D03*
X870000Y305000D03*
X850000Y305000D03*
D12*
X347980Y200152D03*
X585470Y501650D03*
X563880Y411480D03*
X623570Y510540D03*
X255474Y513284D03*
X256540Y553720D03*
X393700Y317500D03*
X317500Y206286D03*
X269240Y199390D03*
X288290Y247650D03*
X288290Y240030D03*
X288290Y232410D03*
X279400Y228600D03*
X279400Y236220D03*
X278130Y243840D03*
X269240Y232410D03*
X260350Y224790D03*
X255270Y215900D03*
X255270Y201930D03*
X208280Y495300D03*
X215900Y495300D03*
X223520Y495300D03*
X208280Y487680D03*
X215900Y487680D03*
X223520Y487680D03*
X223520Y480060D03*
X215900Y480060D03*
X231140Y480060D03*
X231140Y487680D03*
X238760Y480060D03*
X214630Y558800D03*
X214630Y567690D03*
X205740Y567690D03*
X205740Y558800D03*
X205740Y576580D03*
X214630Y576580D03*
X223520Y576580D03*
X232410Y576580D03*
X241300Y576580D03*
X196850Y576580D03*
X187960Y576580D03*
X162560Y546100D03*
X153670Y541020D03*
X147320Y534670D03*
X214630Y459740D03*
X223520Y459740D03*
X204470Y459740D03*
X194310Y459740D03*
X184310Y459740D03*
X174310Y459740D03*
X164310Y459740D03*
X154310Y459740D03*
X205740Y586580D03*
X215740Y586580D03*
X225740Y586580D03*
X235740Y586580D03*
X245740Y586580D03*
X255740Y586580D03*
X265740Y586580D03*
X235740Y596580D03*
X245740Y596580D03*
X255740Y596580D03*
X265740Y596580D03*
X281140Y357680D03*
X296140Y357680D03*
X306060Y357680D03*
X306060Y342680D03*
X296140Y342680D03*
X281140Y342680D03*
X281140Y327680D03*
X296140Y327680D03*
X306060Y327680D03*
X296140Y312680D03*
X323760Y367600D03*
X313600Y394030D03*
X324790Y350770D03*
X734060Y250190D03*
X756920Y250190D03*
X290830Y453390D03*
X318770Y491490D03*
X306070Y499110D03*
X358140Y495300D03*
X325500Y557150D03*
X298760Y586580D03*
X310190Y586580D03*
X320350Y586580D03*
X320350Y576420D03*
X310190Y576420D03*
X298760Y576420D03*
X320350Y567530D03*
X327970Y567530D03*
X327970Y576420D03*
X327970Y586580D03*
X449580Y276860D03*
X405130Y472440D03*
X435610Y457200D03*
X417830Y439420D03*
X401320Y457200D03*
X417830Y473710D03*
X417800Y457500D03*
X523240Y561340D03*
X524510Y552450D03*
X524510Y543560D03*
X515620Y553720D03*
X567690Y558800D03*
X243840Y114300D03*
X231140Y154940D03*
X205740Y156210D03*
X306070Y171450D03*
X306070Y181610D03*
X370840Y161290D03*
X265430Y259080D03*
X243840Y364490D03*
X137160Y373380D03*
X123190Y396240D03*
X203200Y361950D03*
X433070Y367030D03*
X477520Y396240D03*
X508000Y320040D03*
X143510Y242570D03*
X116840Y226060D03*
X474107Y533003D03*
X426792Y557668D03*
X619760Y182880D03*
X587500Y232522D03*
D13*
X606948Y232522D01*
X633730Y205740D02*
X633730Y187960D01*
X633730Y205740D02*
X606948Y232522D01*
X624840Y187960D02*
X633730Y187960D01*
X624840Y187960D02*
X619760Y182880D01*
D12*
X800100Y322580D03*
X731520Y364490D03*
X798830Y295910D03*
X647700Y237490D03*
X676910Y309880D03*
X598170Y356870D03*
X622300Y332740D03*
D13*
X388880Y312680D02*
X296140Y312680D01*
X388880Y312680D02*
X393700Y317500D01*
D12*
X400050Y247650D03*
X440690Y256540D03*
X259080Y534670D03*
X251460Y534670D03*
X349480Y248940D03*
X348210Y237510D03*
X784860Y444500D03*
X778510Y471170D03*
X810260Y463550D03*
X674370Y461010D03*
X671830Y516890D03*
X670560Y486410D03*
X676910Y497840D03*
X645160Y426720D03*
X655320Y426720D03*
X655320Y436880D03*
X670560Y449580D03*
X680720Y449580D03*
X680720Y438150D03*
X670560Y438150D03*
X671830Y406400D03*
X681990Y406400D03*
X693420Y406400D03*
X703580Y406400D03*
X713740Y406400D03*
X722630Y406400D03*
X377500Y540860D03*
X382580Y530700D03*
X397820Y530700D03*
X388930Y540860D03*
X402900Y540860D03*
X414330Y540860D03*
X425760Y540860D03*
X425760Y530700D03*
X413060Y530700D03*
X396550Y552290D03*
X411790Y552290D03*
X404170Y564990D03*
X343210Y468470D03*
X355910Y468470D03*
X324160Y468470D03*
X588010Y453390D03*
X632460Y403860D03*
X642620Y403860D03*
X654050Y403860D03*
X632460Y391160D03*
X642620Y391160D03*
X654050Y391160D03*
X632460Y378460D03*
X642620Y378460D03*
X654050Y378460D03*
X671830Y393700D03*
X681990Y393700D03*
X693420Y393700D03*
X703580Y393700D03*
X713740Y393700D03*
X722630Y393700D03*
X671830Y381000D03*
X681990Y381000D03*
X693420Y381000D03*
X703580Y381000D03*
X713740Y381000D03*
X722630Y381000D03*
X671830Y368300D03*
X681990Y368300D03*
X693420Y368300D03*
X703580Y368300D03*
X713740Y368300D03*
X722630Y368300D03*
X671830Y356870D03*
X681990Y356870D03*
X693420Y356870D03*
X671830Y344170D03*
X681990Y344170D03*
X674370Y327660D03*
X585162Y166370D03*
X347980Y537464D03*
X510032Y520192D03*
X484124Y557276D03*
X593090Y525780D03*
X158750Y322580D03*
X298450Y288290D03*
X285750Y205740D03*
X228600Y601980D03*
X138430Y454660D03*
X417830Y156698D03*
X365760Y487680D03*
X406400Y520700D03*
X443230Y511810D03*
X440690Y476250D03*
X415290Y247650D03*
X556260Y308610D03*
X488950Y354422D03*
X565769Y346091D03*
X633730Y242570D03*
X358140Y441960D03*
X361452Y415290D03*
X387350Y445770D03*
X467360Y621030D03*
X591539Y568679D03*
X610870Y621030D03*
X514350Y486410D03*
X656590Y279400D03*
X688340Y331470D03*
X814070Y364490D03*
X759460Y327660D03*
X782601Y477801D03*
X739140Y469900D03*
X623718Y469719D03*
X650240Y415290D03*
X563880Y443230D03*
X617220Y397510D03*
X626110Y415290D03*
X538537Y382327D03*
D14*
X554990Y398780D01*
X615950Y398780D02*
X617220Y397510D01*
X615950Y398780D02*
X554990Y398780D01*
X557530Y443230D02*
X514350Y486410D01*
X557530Y443230D02*
X563880Y443230D01*
D12*
X775970Y308610D03*
X784860Y262890D03*
D14*
X586305Y525780D02*
X584537Y527548D01*
X586305Y525780D02*
X593090Y525780D01*
X517388Y527548D02*
X510032Y520192D01*
X517388Y527548D02*
X584537Y527548D01*
D12*
X394970Y398780D03*
X457200Y417830D03*
D14*
X378460Y415290D02*
X361452Y415290D01*
X378460Y415290D02*
X394970Y398780D01*
X510032Y520192D02*
X510032Y531368D01*
X484124Y557276D01*
X466090Y476250D02*
X440690Y476250D01*
X466090Y476250D02*
X474980Y467360D01*
D12*
X474980Y467360D03*
X270510Y153670D03*
X302768Y546100D03*
X293624Y537972D03*
X173228Y529844D03*
X206756Y522732D03*
X251460Y480060D03*
X335280Y482092D03*
X387642Y516890D03*
X226060Y533400D03*
X254508Y459740D03*
X207772Y532384D03*
X256032Y492760D03*
X289560Y494284D03*
X350012Y513080D03*
X166624Y517652D03*
X238252Y492252D03*
X164084Y504444D03*
X255524Y467868D03*
X172784Y543285D03*
X234696Y565912D03*
X173423Y550867D03*
X228827Y561059D03*
X172720Y512064D03*
X229108Y510540D03*
X229108Y501904D03*
X172212Y503428D03*
X167132Y525272D03*
X247623Y473175D03*
X334772Y472986D03*
X395224Y515620D03*
X362485Y544857D03*
X377952Y500380D03*
X357124Y539496D03*
X370332Y497840D03*
X502920Y257810D03*
X697230Y276860D03*
X505460Y250228D03*
X706120Y280670D03*
X521970Y275590D03*
X659130Y295910D03*
X372110Y281940D03*
X668020Y279400D03*
X369570Y257810D03*
X688340Y274320D03*
X313436Y127508D03*
X337820Y200152D03*
X621030Y195580D03*
X280924Y262128D03*
X249308Y154552D03*
X339090Y214630D03*
X610870Y210820D03*
X328930Y212090D03*
X594360Y210820D03*
X655320Y196850D03*
X383540Y186690D03*
X721360Y296836D03*
X405130Y200660D03*
X656590Y218440D03*
X604520Y524510D03*
X557530Y430530D03*
X565150Y435610D03*
X610870Y529590D03*
X617220Y522376D03*
X575310Y440690D03*
X624840Y519430D03*
X590550Y441960D03*
X598170Y461010D03*
X596900Y574040D03*
X604520Y577850D03*
X603250Y467360D03*
X610832Y466090D03*
X613410Y577850D03*
X620992Y579120D03*
X616986Y473710D03*
X562329Y599159D03*
X637540Y439420D03*
X642620Y447040D03*
X566420Y605790D03*
X649251Y451131D03*
X571781Y611151D03*
X655883Y455223D03*
X579120Y617220D03*
X581700Y520700D03*
X508000Y505460D03*
X574040Y594360D03*
X527050Y613410D03*
D13*
X523240Y520700D02*
X508000Y505460D01*
X523240Y520700D02*
X581700Y520700D01*
D12*
X500380Y520230D03*
X506730Y483870D03*
X594360Y549910D03*
X598170Y449580D03*
X514388Y618490D03*
X647700Y332740D03*
X521970Y619760D03*
X654050Y316230D03*
X512320Y610908D03*
X642620Y345440D03*
X630397Y351018D03*
X506685Y615995D03*
X505460Y593090D03*
X614399Y359129D03*
X596133Y370068D03*
X497878Y595094D03*
X490296Y594360D03*
X583932Y374382D03*
X562610Y387350D03*
X481735Y587145D03*
X487950Y573040D03*
X558800Y375920D03*
X527050Y499110D03*
X624840Y487680D03*
X496035Y533173D03*
X481076Y476504D03*
X501396Y527812D03*
X485140Y484632D03*
X341592Y494030D03*
X302260Y449580D03*
X214630Y538348D03*
X148590Y523240D03*
X243840Y444500D03*
X476250Y375920D03*
X331470Y595630D03*
X591916Y518198D03*
X544830Y628650D03*
X171450Y176530D03*
X379730Y396240D03*
X354330Y485140D03*
X473710Y453390D03*
X623570Y424180D03*
X589280Y328930D03*
X671830Y270510D03*
X702310Y336550D03*
X770890Y387350D03*
X586740Y469082D03*
D13*
X623570Y432252D02*
X623570Y424180D01*
X592592Y463230D02*
X586740Y469082D01*
X592592Y463230D02*
X592592Y458700D01*
X595860Y455432D01*
X600390Y455432D01*
X623570Y432252D01*
D12*
X398780Y480060D03*
D14*
X359410Y480060D01*
X354330Y485140D01*
D12*
X322099Y242343D03*
X419608Y333756D03*
X487172Y285496D03*
X608330Y285496D03*
X351536Y340868D03*
X314960Y238760D03*
X591820Y292608D03*
X327152Y236220D03*
X419608Y325120D03*
X600710Y296182D03*
X568960Y274320D03*
X593090Y304800D03*
X326390Y222250D03*
X316992Y213868D03*
X353060Y352552D03*
X567690Y308610D03*
X331470Y228600D03*
X557530Y274320D03*
X370840Y548640D03*
X361950Y515620D03*
X359410Y504190D03*
X381000Y553720D03*
X281940Y449580D03*
X331470Y494030D03*
X297180Y494030D03*
X265430Y441960D03*
X271780Y447040D03*
X309880Y491490D03*
X740000Y380000D03*
X664210Y509270D03*
X660681Y312139D03*
X708660Y614680D03*
X701360Y622300D03*
X693740Y622300D03*
X684850Y622300D03*
X677268Y622300D03*
X669610Y622300D03*
X661990Y622300D03*
X792480Y419390D03*
X654370Y622300D03*
M02*
