G04 EAGLE Gerber X2 export*
G75*
%MOMM*%
%FSLAX34Y34*%
%LPD*%
%AMOC8*
5,1,8,0,0,1.08239X$1,22.5*%
G01*
%ADD10C,0.152400*%
%ADD11C,0.000000*%


D10*
X100000Y140000D02*
X100000Y610000D01*
X900000Y610000D02*
X900000Y140000D01*
X860000Y650000D02*
X140000Y650000D01*
X139033Y649988D01*
X138067Y649953D01*
X137103Y649895D01*
X136139Y649813D01*
X135179Y649708D01*
X134220Y649580D01*
X133266Y649429D01*
X132315Y649255D01*
X131369Y649058D01*
X130427Y648838D01*
X129492Y648595D01*
X128562Y648330D01*
X127639Y648042D01*
X126724Y647732D01*
X125816Y647401D01*
X124916Y647047D01*
X124025Y646672D01*
X123144Y646275D01*
X122272Y645857D01*
X121411Y645418D01*
X120561Y644959D01*
X119722Y644479D01*
X118894Y643979D01*
X118079Y643459D01*
X117277Y642919D01*
X116489Y642361D01*
X115713Y641783D01*
X114953Y641187D01*
X114206Y640573D01*
X113475Y639940D01*
X112759Y639291D01*
X112060Y638624D01*
X111376Y637940D01*
X110709Y637241D01*
X110060Y636525D01*
X109427Y635794D01*
X108813Y635047D01*
X108217Y634287D01*
X107639Y633511D01*
X107081Y632723D01*
X106541Y631921D01*
X106021Y631106D01*
X105521Y630278D01*
X105041Y629439D01*
X104582Y628589D01*
X104143Y627728D01*
X103725Y626856D01*
X103328Y625975D01*
X102953Y625084D01*
X102599Y624184D01*
X102268Y623276D01*
X101958Y622361D01*
X101670Y621438D01*
X101405Y620508D01*
X101162Y619573D01*
X100942Y618631D01*
X100745Y617685D01*
X100571Y616734D01*
X100420Y615780D01*
X100292Y614821D01*
X100187Y613861D01*
X100105Y612897D01*
X100047Y611933D01*
X100012Y610967D01*
X100000Y610000D01*
X100000Y140000D02*
X100012Y139033D01*
X100047Y138067D01*
X100105Y137103D01*
X100187Y136139D01*
X100292Y135179D01*
X100420Y134220D01*
X100571Y133266D01*
X100745Y132315D01*
X100942Y131369D01*
X101162Y130427D01*
X101405Y129492D01*
X101670Y128562D01*
X101958Y127639D01*
X102268Y126724D01*
X102599Y125816D01*
X102953Y124916D01*
X103328Y124025D01*
X103725Y123144D01*
X104143Y122272D01*
X104582Y121411D01*
X105041Y120561D01*
X105521Y119722D01*
X106021Y118894D01*
X106541Y118079D01*
X107081Y117277D01*
X107639Y116489D01*
X108217Y115713D01*
X108813Y114953D01*
X109427Y114206D01*
X110060Y113475D01*
X110709Y112759D01*
X111376Y112060D01*
X112060Y111376D01*
X112759Y110709D01*
X113475Y110060D01*
X114206Y109427D01*
X114953Y108813D01*
X115713Y108217D01*
X116489Y107639D01*
X117277Y107081D01*
X118079Y106541D01*
X118894Y106021D01*
X119722Y105521D01*
X120561Y105041D01*
X121411Y104582D01*
X122272Y104143D01*
X123144Y103725D01*
X124025Y103328D01*
X124916Y102953D01*
X125816Y102599D01*
X126724Y102268D01*
X127639Y101958D01*
X128562Y101670D01*
X129492Y101405D01*
X130427Y101162D01*
X131369Y100942D01*
X132315Y100745D01*
X133266Y100571D01*
X134220Y100420D01*
X135179Y100292D01*
X136139Y100187D01*
X137103Y100105D01*
X138067Y100047D01*
X139033Y100012D01*
X140000Y100000D01*
X860000Y650000D02*
X860967Y649988D01*
X861933Y649953D01*
X862897Y649895D01*
X863861Y649813D01*
X864821Y649708D01*
X865780Y649580D01*
X866734Y649429D01*
X867685Y649255D01*
X868631Y649058D01*
X869573Y648838D01*
X870508Y648595D01*
X871438Y648330D01*
X872361Y648042D01*
X873276Y647732D01*
X874184Y647401D01*
X875084Y647047D01*
X875975Y646672D01*
X876856Y646275D01*
X877728Y645857D01*
X878589Y645418D01*
X879439Y644959D01*
X880278Y644479D01*
X881106Y643979D01*
X881921Y643459D01*
X882723Y642919D01*
X883511Y642361D01*
X884287Y641783D01*
X885047Y641187D01*
X885794Y640573D01*
X886525Y639940D01*
X887241Y639291D01*
X887940Y638624D01*
X888624Y637940D01*
X889291Y637241D01*
X889940Y636525D01*
X890573Y635794D01*
X891187Y635047D01*
X891783Y634287D01*
X892361Y633511D01*
X892919Y632723D01*
X893459Y631921D01*
X893979Y631106D01*
X894479Y630278D01*
X894959Y629439D01*
X895418Y628589D01*
X895857Y627728D01*
X896275Y626856D01*
X896672Y625975D01*
X897047Y625084D01*
X897401Y624184D01*
X897732Y623276D01*
X898042Y622361D01*
X898330Y621438D01*
X898595Y620508D01*
X898838Y619573D01*
X899058Y618631D01*
X899255Y617685D01*
X899429Y616734D01*
X899580Y615780D01*
X899708Y614821D01*
X899813Y613861D01*
X899895Y612897D01*
X899953Y611933D01*
X899988Y610967D01*
X900000Y610000D01*
X900000Y140000D02*
X899988Y139033D01*
X899953Y138067D01*
X899895Y137103D01*
X899813Y136139D01*
X899708Y135179D01*
X899580Y134220D01*
X899429Y133266D01*
X899255Y132315D01*
X899058Y131369D01*
X898838Y130427D01*
X898595Y129492D01*
X898330Y128562D01*
X898042Y127639D01*
X897732Y126724D01*
X897401Y125816D01*
X897047Y124916D01*
X896672Y124025D01*
X896275Y123144D01*
X895857Y122272D01*
X895418Y121411D01*
X894959Y120561D01*
X894479Y119722D01*
X893979Y118894D01*
X893459Y118079D01*
X892919Y117277D01*
X892361Y116489D01*
X891783Y115713D01*
X891187Y114953D01*
X890573Y114206D01*
X889940Y113475D01*
X889291Y112759D01*
X888624Y112060D01*
X887940Y111376D01*
X887241Y110709D01*
X886525Y110060D01*
X885794Y109427D01*
X885047Y108813D01*
X884287Y108217D01*
X883511Y107639D01*
X882723Y107081D01*
X881921Y106541D01*
X881106Y106021D01*
X880278Y105521D01*
X879439Y105041D01*
X878589Y104582D01*
X877728Y104143D01*
X876856Y103725D01*
X875975Y103328D01*
X875084Y102953D01*
X874184Y102599D01*
X873276Y102268D01*
X872361Y101958D01*
X871438Y101670D01*
X870508Y101405D01*
X869573Y101162D01*
X868631Y100942D01*
X867685Y100745D01*
X866734Y100571D01*
X865780Y100420D01*
X864821Y100292D01*
X863861Y100187D01*
X862897Y100105D01*
X861933Y100047D01*
X860967Y100012D01*
X860000Y100000D01*
X485000Y100000D02*
X140000Y100000D01*
X680000Y100000D02*
X860000Y100000D01*
D11*
X265000Y135000D02*
X265002Y135141D01*
X265008Y135282D01*
X265018Y135422D01*
X265032Y135562D01*
X265050Y135702D01*
X265071Y135841D01*
X265097Y135980D01*
X265126Y136118D01*
X265160Y136254D01*
X265197Y136390D01*
X265238Y136525D01*
X265283Y136659D01*
X265332Y136791D01*
X265384Y136922D01*
X265440Y137051D01*
X265500Y137178D01*
X265563Y137304D01*
X265629Y137428D01*
X265700Y137551D01*
X265773Y137671D01*
X265850Y137789D01*
X265930Y137905D01*
X266014Y138018D01*
X266100Y138129D01*
X266190Y138238D01*
X266283Y138344D01*
X266378Y138447D01*
X266477Y138548D01*
X266578Y138646D01*
X266682Y138741D01*
X266789Y138833D01*
X266898Y138922D01*
X267010Y139007D01*
X267124Y139090D01*
X267240Y139170D01*
X267359Y139246D01*
X267480Y139318D01*
X267602Y139388D01*
X267727Y139453D01*
X267853Y139516D01*
X267981Y139574D01*
X268111Y139629D01*
X268242Y139681D01*
X268375Y139728D01*
X268509Y139772D01*
X268644Y139813D01*
X268780Y139849D01*
X268917Y139881D01*
X269055Y139910D01*
X269193Y139935D01*
X269333Y139955D01*
X269473Y139972D01*
X269613Y139985D01*
X269754Y139994D01*
X269894Y139999D01*
X270035Y140000D01*
X270176Y139997D01*
X270317Y139990D01*
X270457Y139979D01*
X270597Y139964D01*
X270737Y139945D01*
X270876Y139923D01*
X271014Y139896D01*
X271152Y139866D01*
X271288Y139831D01*
X271424Y139793D01*
X271558Y139751D01*
X271692Y139705D01*
X271824Y139656D01*
X271954Y139602D01*
X272083Y139545D01*
X272210Y139485D01*
X272336Y139421D01*
X272459Y139353D01*
X272581Y139282D01*
X272701Y139208D01*
X272818Y139130D01*
X272933Y139049D01*
X273046Y138965D01*
X273157Y138878D01*
X273265Y138787D01*
X273370Y138694D01*
X273473Y138597D01*
X273573Y138498D01*
X273670Y138396D01*
X273764Y138291D01*
X273855Y138184D01*
X273943Y138074D01*
X274028Y137962D01*
X274110Y137847D01*
X274189Y137730D01*
X274264Y137611D01*
X274336Y137490D01*
X274404Y137367D01*
X274469Y137242D01*
X274531Y137115D01*
X274588Y136986D01*
X274643Y136856D01*
X274693Y136725D01*
X274740Y136592D01*
X274783Y136458D01*
X274822Y136322D01*
X274857Y136186D01*
X274889Y136049D01*
X274916Y135911D01*
X274940Y135772D01*
X274960Y135632D01*
X274976Y135492D01*
X274988Y135352D01*
X274996Y135211D01*
X275000Y135070D01*
X275000Y134930D01*
X274996Y134789D01*
X274988Y134648D01*
X274976Y134508D01*
X274960Y134368D01*
X274940Y134228D01*
X274916Y134089D01*
X274889Y133951D01*
X274857Y133814D01*
X274822Y133678D01*
X274783Y133542D01*
X274740Y133408D01*
X274693Y133275D01*
X274643Y133144D01*
X274588Y133014D01*
X274531Y132885D01*
X274469Y132758D01*
X274404Y132633D01*
X274336Y132510D01*
X274264Y132389D01*
X274189Y132270D01*
X274110Y132153D01*
X274028Y132038D01*
X273943Y131926D01*
X273855Y131816D01*
X273764Y131709D01*
X273670Y131604D01*
X273573Y131502D01*
X273473Y131403D01*
X273370Y131306D01*
X273265Y131213D01*
X273157Y131122D01*
X273046Y131035D01*
X272933Y130951D01*
X272818Y130870D01*
X272701Y130792D01*
X272581Y130718D01*
X272459Y130647D01*
X272336Y130579D01*
X272210Y130515D01*
X272083Y130455D01*
X271954Y130398D01*
X271824Y130344D01*
X271692Y130295D01*
X271558Y130249D01*
X271424Y130207D01*
X271288Y130169D01*
X271152Y130134D01*
X271014Y130104D01*
X270876Y130077D01*
X270737Y130055D01*
X270597Y130036D01*
X270457Y130021D01*
X270317Y130010D01*
X270176Y130003D01*
X270035Y130000D01*
X269894Y130001D01*
X269754Y130006D01*
X269613Y130015D01*
X269473Y130028D01*
X269333Y130045D01*
X269193Y130065D01*
X269055Y130090D01*
X268917Y130119D01*
X268780Y130151D01*
X268644Y130187D01*
X268509Y130228D01*
X268375Y130272D01*
X268242Y130319D01*
X268111Y130371D01*
X267981Y130426D01*
X267853Y130484D01*
X267727Y130547D01*
X267602Y130612D01*
X267480Y130682D01*
X267359Y130754D01*
X267240Y130830D01*
X267124Y130910D01*
X267010Y130993D01*
X266898Y131078D01*
X266789Y131167D01*
X266682Y131259D01*
X266578Y131354D01*
X266477Y131452D01*
X266378Y131553D01*
X266283Y131656D01*
X266190Y131762D01*
X266100Y131871D01*
X266014Y131982D01*
X265930Y132095D01*
X265850Y132211D01*
X265773Y132329D01*
X265700Y132449D01*
X265629Y132572D01*
X265563Y132696D01*
X265500Y132822D01*
X265440Y132949D01*
X265384Y133078D01*
X265332Y133209D01*
X265283Y133341D01*
X265238Y133475D01*
X265197Y133610D01*
X265160Y133746D01*
X265126Y133882D01*
X265097Y134020D01*
X265071Y134159D01*
X265050Y134298D01*
X265032Y134438D01*
X265018Y134578D01*
X265008Y134718D01*
X265002Y134859D01*
X265000Y135000D01*
X188800Y145160D02*
X188802Y145301D01*
X188808Y145442D01*
X188818Y145582D01*
X188832Y145722D01*
X188850Y145862D01*
X188871Y146001D01*
X188897Y146140D01*
X188926Y146278D01*
X188960Y146414D01*
X188997Y146550D01*
X189038Y146685D01*
X189083Y146819D01*
X189132Y146951D01*
X189184Y147082D01*
X189240Y147211D01*
X189300Y147338D01*
X189363Y147464D01*
X189429Y147588D01*
X189500Y147711D01*
X189573Y147831D01*
X189650Y147949D01*
X189730Y148065D01*
X189814Y148178D01*
X189900Y148289D01*
X189990Y148398D01*
X190083Y148504D01*
X190178Y148607D01*
X190277Y148708D01*
X190378Y148806D01*
X190482Y148901D01*
X190589Y148993D01*
X190698Y149082D01*
X190810Y149167D01*
X190924Y149250D01*
X191040Y149330D01*
X191159Y149406D01*
X191280Y149478D01*
X191402Y149548D01*
X191527Y149613D01*
X191653Y149676D01*
X191781Y149734D01*
X191911Y149789D01*
X192042Y149841D01*
X192175Y149888D01*
X192309Y149932D01*
X192444Y149973D01*
X192580Y150009D01*
X192717Y150041D01*
X192855Y150070D01*
X192993Y150095D01*
X193133Y150115D01*
X193273Y150132D01*
X193413Y150145D01*
X193554Y150154D01*
X193694Y150159D01*
X193835Y150160D01*
X193976Y150157D01*
X194117Y150150D01*
X194257Y150139D01*
X194397Y150124D01*
X194537Y150105D01*
X194676Y150083D01*
X194814Y150056D01*
X194952Y150026D01*
X195088Y149991D01*
X195224Y149953D01*
X195358Y149911D01*
X195492Y149865D01*
X195624Y149816D01*
X195754Y149762D01*
X195883Y149705D01*
X196010Y149645D01*
X196136Y149581D01*
X196259Y149513D01*
X196381Y149442D01*
X196501Y149368D01*
X196618Y149290D01*
X196733Y149209D01*
X196846Y149125D01*
X196957Y149038D01*
X197065Y148947D01*
X197170Y148854D01*
X197273Y148757D01*
X197373Y148658D01*
X197470Y148556D01*
X197564Y148451D01*
X197655Y148344D01*
X197743Y148234D01*
X197828Y148122D01*
X197910Y148007D01*
X197989Y147890D01*
X198064Y147771D01*
X198136Y147650D01*
X198204Y147527D01*
X198269Y147402D01*
X198331Y147275D01*
X198388Y147146D01*
X198443Y147016D01*
X198493Y146885D01*
X198540Y146752D01*
X198583Y146618D01*
X198622Y146482D01*
X198657Y146346D01*
X198689Y146209D01*
X198716Y146071D01*
X198740Y145932D01*
X198760Y145792D01*
X198776Y145652D01*
X198788Y145512D01*
X198796Y145371D01*
X198800Y145230D01*
X198800Y145090D01*
X198796Y144949D01*
X198788Y144808D01*
X198776Y144668D01*
X198760Y144528D01*
X198740Y144388D01*
X198716Y144249D01*
X198689Y144111D01*
X198657Y143974D01*
X198622Y143838D01*
X198583Y143702D01*
X198540Y143568D01*
X198493Y143435D01*
X198443Y143304D01*
X198388Y143174D01*
X198331Y143045D01*
X198269Y142918D01*
X198204Y142793D01*
X198136Y142670D01*
X198064Y142549D01*
X197989Y142430D01*
X197910Y142313D01*
X197828Y142198D01*
X197743Y142086D01*
X197655Y141976D01*
X197564Y141869D01*
X197470Y141764D01*
X197373Y141662D01*
X197273Y141563D01*
X197170Y141466D01*
X197065Y141373D01*
X196957Y141282D01*
X196846Y141195D01*
X196733Y141111D01*
X196618Y141030D01*
X196501Y140952D01*
X196381Y140878D01*
X196259Y140807D01*
X196136Y140739D01*
X196010Y140675D01*
X195883Y140615D01*
X195754Y140558D01*
X195624Y140504D01*
X195492Y140455D01*
X195358Y140409D01*
X195224Y140367D01*
X195088Y140329D01*
X194952Y140294D01*
X194814Y140264D01*
X194676Y140237D01*
X194537Y140215D01*
X194397Y140196D01*
X194257Y140181D01*
X194117Y140170D01*
X193976Y140163D01*
X193835Y140160D01*
X193694Y140161D01*
X193554Y140166D01*
X193413Y140175D01*
X193273Y140188D01*
X193133Y140205D01*
X192993Y140225D01*
X192855Y140250D01*
X192717Y140279D01*
X192580Y140311D01*
X192444Y140347D01*
X192309Y140388D01*
X192175Y140432D01*
X192042Y140479D01*
X191911Y140531D01*
X191781Y140586D01*
X191653Y140644D01*
X191527Y140707D01*
X191402Y140772D01*
X191280Y140842D01*
X191159Y140914D01*
X191040Y140990D01*
X190924Y141070D01*
X190810Y141153D01*
X190698Y141238D01*
X190589Y141327D01*
X190482Y141419D01*
X190378Y141514D01*
X190277Y141612D01*
X190178Y141713D01*
X190083Y141816D01*
X189990Y141922D01*
X189900Y142031D01*
X189814Y142142D01*
X189730Y142255D01*
X189650Y142371D01*
X189573Y142489D01*
X189500Y142609D01*
X189429Y142732D01*
X189363Y142856D01*
X189300Y142982D01*
X189240Y143109D01*
X189184Y143238D01*
X189132Y143369D01*
X189083Y143501D01*
X189038Y143635D01*
X188997Y143770D01*
X188960Y143906D01*
X188926Y144042D01*
X188897Y144180D01*
X188871Y144319D01*
X188850Y144458D01*
X188832Y144598D01*
X188818Y144738D01*
X188808Y144878D01*
X188802Y145019D01*
X188800Y145160D01*
X188800Y124840D02*
X188802Y124981D01*
X188808Y125122D01*
X188818Y125262D01*
X188832Y125402D01*
X188850Y125542D01*
X188871Y125681D01*
X188897Y125820D01*
X188926Y125958D01*
X188960Y126094D01*
X188997Y126230D01*
X189038Y126365D01*
X189083Y126499D01*
X189132Y126631D01*
X189184Y126762D01*
X189240Y126891D01*
X189300Y127018D01*
X189363Y127144D01*
X189429Y127268D01*
X189500Y127391D01*
X189573Y127511D01*
X189650Y127629D01*
X189730Y127745D01*
X189814Y127858D01*
X189900Y127969D01*
X189990Y128078D01*
X190083Y128184D01*
X190178Y128287D01*
X190277Y128388D01*
X190378Y128486D01*
X190482Y128581D01*
X190589Y128673D01*
X190698Y128762D01*
X190810Y128847D01*
X190924Y128930D01*
X191040Y129010D01*
X191159Y129086D01*
X191280Y129158D01*
X191402Y129228D01*
X191527Y129293D01*
X191653Y129356D01*
X191781Y129414D01*
X191911Y129469D01*
X192042Y129521D01*
X192175Y129568D01*
X192309Y129612D01*
X192444Y129653D01*
X192580Y129689D01*
X192717Y129721D01*
X192855Y129750D01*
X192993Y129775D01*
X193133Y129795D01*
X193273Y129812D01*
X193413Y129825D01*
X193554Y129834D01*
X193694Y129839D01*
X193835Y129840D01*
X193976Y129837D01*
X194117Y129830D01*
X194257Y129819D01*
X194397Y129804D01*
X194537Y129785D01*
X194676Y129763D01*
X194814Y129736D01*
X194952Y129706D01*
X195088Y129671D01*
X195224Y129633D01*
X195358Y129591D01*
X195492Y129545D01*
X195624Y129496D01*
X195754Y129442D01*
X195883Y129385D01*
X196010Y129325D01*
X196136Y129261D01*
X196259Y129193D01*
X196381Y129122D01*
X196501Y129048D01*
X196618Y128970D01*
X196733Y128889D01*
X196846Y128805D01*
X196957Y128718D01*
X197065Y128627D01*
X197170Y128534D01*
X197273Y128437D01*
X197373Y128338D01*
X197470Y128236D01*
X197564Y128131D01*
X197655Y128024D01*
X197743Y127914D01*
X197828Y127802D01*
X197910Y127687D01*
X197989Y127570D01*
X198064Y127451D01*
X198136Y127330D01*
X198204Y127207D01*
X198269Y127082D01*
X198331Y126955D01*
X198388Y126826D01*
X198443Y126696D01*
X198493Y126565D01*
X198540Y126432D01*
X198583Y126298D01*
X198622Y126162D01*
X198657Y126026D01*
X198689Y125889D01*
X198716Y125751D01*
X198740Y125612D01*
X198760Y125472D01*
X198776Y125332D01*
X198788Y125192D01*
X198796Y125051D01*
X198800Y124910D01*
X198800Y124770D01*
X198796Y124629D01*
X198788Y124488D01*
X198776Y124348D01*
X198760Y124208D01*
X198740Y124068D01*
X198716Y123929D01*
X198689Y123791D01*
X198657Y123654D01*
X198622Y123518D01*
X198583Y123382D01*
X198540Y123248D01*
X198493Y123115D01*
X198443Y122984D01*
X198388Y122854D01*
X198331Y122725D01*
X198269Y122598D01*
X198204Y122473D01*
X198136Y122350D01*
X198064Y122229D01*
X197989Y122110D01*
X197910Y121993D01*
X197828Y121878D01*
X197743Y121766D01*
X197655Y121656D01*
X197564Y121549D01*
X197470Y121444D01*
X197373Y121342D01*
X197273Y121243D01*
X197170Y121146D01*
X197065Y121053D01*
X196957Y120962D01*
X196846Y120875D01*
X196733Y120791D01*
X196618Y120710D01*
X196501Y120632D01*
X196381Y120558D01*
X196259Y120487D01*
X196136Y120419D01*
X196010Y120355D01*
X195883Y120295D01*
X195754Y120238D01*
X195624Y120184D01*
X195492Y120135D01*
X195358Y120089D01*
X195224Y120047D01*
X195088Y120009D01*
X194952Y119974D01*
X194814Y119944D01*
X194676Y119917D01*
X194537Y119895D01*
X194397Y119876D01*
X194257Y119861D01*
X194117Y119850D01*
X193976Y119843D01*
X193835Y119840D01*
X193694Y119841D01*
X193554Y119846D01*
X193413Y119855D01*
X193273Y119868D01*
X193133Y119885D01*
X192993Y119905D01*
X192855Y119930D01*
X192717Y119959D01*
X192580Y119991D01*
X192444Y120027D01*
X192309Y120068D01*
X192175Y120112D01*
X192042Y120159D01*
X191911Y120211D01*
X191781Y120266D01*
X191653Y120324D01*
X191527Y120387D01*
X191402Y120452D01*
X191280Y120522D01*
X191159Y120594D01*
X191040Y120670D01*
X190924Y120750D01*
X190810Y120833D01*
X190698Y120918D01*
X190589Y121007D01*
X190482Y121099D01*
X190378Y121194D01*
X190277Y121292D01*
X190178Y121393D01*
X190083Y121496D01*
X189990Y121602D01*
X189900Y121711D01*
X189814Y121822D01*
X189730Y121935D01*
X189650Y122051D01*
X189573Y122169D01*
X189500Y122289D01*
X189429Y122412D01*
X189363Y122536D01*
X189300Y122662D01*
X189240Y122789D01*
X189184Y122918D01*
X189132Y123049D01*
X189083Y123181D01*
X189038Y123315D01*
X188997Y123450D01*
X188960Y123586D01*
X188926Y123722D01*
X188897Y123860D01*
X188871Y123999D01*
X188850Y124138D01*
X188832Y124278D01*
X188818Y124418D01*
X188808Y124558D01*
X188802Y124699D01*
X188800Y124840D01*
X188250Y561000D02*
X188252Y561113D01*
X188258Y561227D01*
X188268Y561340D01*
X188282Y561452D01*
X188299Y561564D01*
X188321Y561676D01*
X188347Y561786D01*
X188376Y561896D01*
X188409Y562004D01*
X188446Y562112D01*
X188487Y562217D01*
X188531Y562322D01*
X188579Y562425D01*
X188630Y562526D01*
X188685Y562625D01*
X188744Y562722D01*
X188806Y562817D01*
X188871Y562910D01*
X188939Y563001D01*
X189010Y563089D01*
X189085Y563175D01*
X189162Y563258D01*
X189242Y563338D01*
X189325Y563415D01*
X189411Y563490D01*
X189499Y563561D01*
X189590Y563629D01*
X189683Y563694D01*
X189778Y563756D01*
X189875Y563815D01*
X189974Y563870D01*
X190075Y563921D01*
X190178Y563969D01*
X190283Y564013D01*
X190388Y564054D01*
X190496Y564091D01*
X190604Y564124D01*
X190714Y564153D01*
X190824Y564179D01*
X190936Y564201D01*
X191048Y564218D01*
X191160Y564232D01*
X191273Y564242D01*
X191387Y564248D01*
X191500Y564250D01*
X191613Y564248D01*
X191727Y564242D01*
X191840Y564232D01*
X191952Y564218D01*
X192064Y564201D01*
X192176Y564179D01*
X192286Y564153D01*
X192396Y564124D01*
X192504Y564091D01*
X192612Y564054D01*
X192717Y564013D01*
X192822Y563969D01*
X192925Y563921D01*
X193026Y563870D01*
X193125Y563815D01*
X193222Y563756D01*
X193317Y563694D01*
X193410Y563629D01*
X193501Y563561D01*
X193589Y563490D01*
X193675Y563415D01*
X193758Y563338D01*
X193838Y563258D01*
X193915Y563175D01*
X193990Y563089D01*
X194061Y563001D01*
X194129Y562910D01*
X194194Y562817D01*
X194256Y562722D01*
X194315Y562625D01*
X194370Y562526D01*
X194421Y562425D01*
X194469Y562322D01*
X194513Y562217D01*
X194554Y562112D01*
X194591Y562004D01*
X194624Y561896D01*
X194653Y561786D01*
X194679Y561676D01*
X194701Y561564D01*
X194718Y561452D01*
X194732Y561340D01*
X194742Y561227D01*
X194748Y561113D01*
X194750Y561000D01*
X194748Y560887D01*
X194742Y560773D01*
X194732Y560660D01*
X194718Y560548D01*
X194701Y560436D01*
X194679Y560324D01*
X194653Y560214D01*
X194624Y560104D01*
X194591Y559996D01*
X194554Y559888D01*
X194513Y559783D01*
X194469Y559678D01*
X194421Y559575D01*
X194370Y559474D01*
X194315Y559375D01*
X194256Y559278D01*
X194194Y559183D01*
X194129Y559090D01*
X194061Y558999D01*
X193990Y558911D01*
X193915Y558825D01*
X193838Y558742D01*
X193758Y558662D01*
X193675Y558585D01*
X193589Y558510D01*
X193501Y558439D01*
X193410Y558371D01*
X193317Y558306D01*
X193222Y558244D01*
X193125Y558185D01*
X193026Y558130D01*
X192925Y558079D01*
X192822Y558031D01*
X192717Y557987D01*
X192612Y557946D01*
X192504Y557909D01*
X192396Y557876D01*
X192286Y557847D01*
X192176Y557821D01*
X192064Y557799D01*
X191952Y557782D01*
X191840Y557768D01*
X191727Y557758D01*
X191613Y557752D01*
X191500Y557750D01*
X191387Y557752D01*
X191273Y557758D01*
X191160Y557768D01*
X191048Y557782D01*
X190936Y557799D01*
X190824Y557821D01*
X190714Y557847D01*
X190604Y557876D01*
X190496Y557909D01*
X190388Y557946D01*
X190283Y557987D01*
X190178Y558031D01*
X190075Y558079D01*
X189974Y558130D01*
X189875Y558185D01*
X189778Y558244D01*
X189683Y558306D01*
X189590Y558371D01*
X189499Y558439D01*
X189411Y558510D01*
X189325Y558585D01*
X189242Y558662D01*
X189162Y558742D01*
X189085Y558825D01*
X189010Y558911D01*
X188939Y558999D01*
X188871Y559090D01*
X188806Y559183D01*
X188744Y559278D01*
X188685Y559375D01*
X188630Y559474D01*
X188579Y559575D01*
X188531Y559678D01*
X188487Y559783D01*
X188446Y559888D01*
X188409Y559996D01*
X188376Y560104D01*
X188347Y560214D01*
X188321Y560324D01*
X188299Y560436D01*
X188282Y560548D01*
X188268Y560660D01*
X188258Y560773D01*
X188252Y560887D01*
X188250Y561000D01*
X123490Y610000D02*
X123495Y610405D01*
X123510Y610810D01*
X123535Y611215D01*
X123570Y611618D01*
X123614Y612021D01*
X123669Y612423D01*
X123733Y612823D01*
X123807Y613221D01*
X123891Y613617D01*
X123985Y614012D01*
X124088Y614403D01*
X124201Y614793D01*
X124323Y615179D01*
X124455Y615562D01*
X124596Y615942D01*
X124747Y616318D01*
X124906Y616691D01*
X125075Y617059D01*
X125253Y617423D01*
X125439Y617783D01*
X125635Y618138D01*
X125839Y618488D01*
X126051Y618833D01*
X126272Y619172D01*
X126502Y619507D01*
X126739Y619835D01*
X126984Y620157D01*
X127238Y620474D01*
X127498Y620784D01*
X127767Y621087D01*
X128043Y621384D01*
X128326Y621674D01*
X128616Y621957D01*
X128913Y622233D01*
X129216Y622502D01*
X129526Y622762D01*
X129843Y623016D01*
X130165Y623261D01*
X130493Y623498D01*
X130828Y623728D01*
X131167Y623949D01*
X131512Y624161D01*
X131862Y624365D01*
X132217Y624561D01*
X132577Y624747D01*
X132941Y624925D01*
X133309Y625094D01*
X133682Y625253D01*
X134058Y625404D01*
X134438Y625545D01*
X134821Y625677D01*
X135207Y625799D01*
X135597Y625912D01*
X135988Y626015D01*
X136383Y626109D01*
X136779Y626193D01*
X137177Y626267D01*
X137577Y626331D01*
X137979Y626386D01*
X138382Y626430D01*
X138785Y626465D01*
X139190Y626490D01*
X139595Y626505D01*
X140000Y626510D01*
X140405Y626505D01*
X140810Y626490D01*
X141215Y626465D01*
X141618Y626430D01*
X142021Y626386D01*
X142423Y626331D01*
X142823Y626267D01*
X143221Y626193D01*
X143617Y626109D01*
X144012Y626015D01*
X144403Y625912D01*
X144793Y625799D01*
X145179Y625677D01*
X145562Y625545D01*
X145942Y625404D01*
X146318Y625253D01*
X146691Y625094D01*
X147059Y624925D01*
X147423Y624747D01*
X147783Y624561D01*
X148138Y624365D01*
X148488Y624161D01*
X148833Y623949D01*
X149172Y623728D01*
X149507Y623498D01*
X149835Y623261D01*
X150157Y623016D01*
X150474Y622762D01*
X150784Y622502D01*
X151087Y622233D01*
X151384Y621957D01*
X151674Y621674D01*
X151957Y621384D01*
X152233Y621087D01*
X152502Y620784D01*
X152762Y620474D01*
X153016Y620157D01*
X153261Y619835D01*
X153498Y619507D01*
X153728Y619172D01*
X153949Y618833D01*
X154161Y618488D01*
X154365Y618138D01*
X154561Y617783D01*
X154747Y617423D01*
X154925Y617059D01*
X155094Y616691D01*
X155253Y616318D01*
X155404Y615942D01*
X155545Y615562D01*
X155677Y615179D01*
X155799Y614793D01*
X155912Y614403D01*
X156015Y614012D01*
X156109Y613617D01*
X156193Y613221D01*
X156267Y612823D01*
X156331Y612423D01*
X156386Y612021D01*
X156430Y611618D01*
X156465Y611215D01*
X156490Y610810D01*
X156505Y610405D01*
X156510Y610000D01*
X156505Y609595D01*
X156490Y609190D01*
X156465Y608785D01*
X156430Y608382D01*
X156386Y607979D01*
X156331Y607577D01*
X156267Y607177D01*
X156193Y606779D01*
X156109Y606383D01*
X156015Y605988D01*
X155912Y605597D01*
X155799Y605207D01*
X155677Y604821D01*
X155545Y604438D01*
X155404Y604058D01*
X155253Y603682D01*
X155094Y603309D01*
X154925Y602941D01*
X154747Y602577D01*
X154561Y602217D01*
X154365Y601862D01*
X154161Y601512D01*
X153949Y601167D01*
X153728Y600828D01*
X153498Y600493D01*
X153261Y600165D01*
X153016Y599843D01*
X152762Y599526D01*
X152502Y599216D01*
X152233Y598913D01*
X151957Y598616D01*
X151674Y598326D01*
X151384Y598043D01*
X151087Y597767D01*
X150784Y597498D01*
X150474Y597238D01*
X150157Y596984D01*
X149835Y596739D01*
X149507Y596502D01*
X149172Y596272D01*
X148833Y596051D01*
X148488Y595839D01*
X148138Y595635D01*
X147783Y595439D01*
X147423Y595253D01*
X147059Y595075D01*
X146691Y594906D01*
X146318Y594747D01*
X145942Y594596D01*
X145562Y594455D01*
X145179Y594323D01*
X144793Y594201D01*
X144403Y594088D01*
X144012Y593985D01*
X143617Y593891D01*
X143221Y593807D01*
X142823Y593733D01*
X142423Y593669D01*
X142021Y593614D01*
X141618Y593570D01*
X141215Y593535D01*
X140810Y593510D01*
X140405Y593495D01*
X140000Y593490D01*
X139595Y593495D01*
X139190Y593510D01*
X138785Y593535D01*
X138382Y593570D01*
X137979Y593614D01*
X137577Y593669D01*
X137177Y593733D01*
X136779Y593807D01*
X136383Y593891D01*
X135988Y593985D01*
X135597Y594088D01*
X135207Y594201D01*
X134821Y594323D01*
X134438Y594455D01*
X134058Y594596D01*
X133682Y594747D01*
X133309Y594906D01*
X132941Y595075D01*
X132577Y595253D01*
X132217Y595439D01*
X131862Y595635D01*
X131512Y595839D01*
X131167Y596051D01*
X130828Y596272D01*
X130493Y596502D01*
X130165Y596739D01*
X129843Y596984D01*
X129526Y597238D01*
X129216Y597498D01*
X128913Y597767D01*
X128616Y598043D01*
X128326Y598326D01*
X128043Y598616D01*
X127767Y598913D01*
X127498Y599216D01*
X127238Y599526D01*
X126984Y599843D01*
X126739Y600165D01*
X126502Y600493D01*
X126272Y600828D01*
X126051Y601167D01*
X125839Y601512D01*
X125635Y601862D01*
X125439Y602217D01*
X125253Y602577D01*
X125075Y602941D01*
X124906Y603309D01*
X124747Y603682D01*
X124596Y604058D01*
X124455Y604438D01*
X124323Y604821D01*
X124201Y605207D01*
X124088Y605597D01*
X123985Y605988D01*
X123891Y606383D01*
X123807Y606779D01*
X123733Y607177D01*
X123669Y607577D01*
X123614Y607979D01*
X123570Y608382D01*
X123535Y608785D01*
X123510Y609190D01*
X123495Y609595D01*
X123490Y610000D01*
X743490Y610000D02*
X743495Y610405D01*
X743510Y610810D01*
X743535Y611215D01*
X743570Y611618D01*
X743614Y612021D01*
X743669Y612423D01*
X743733Y612823D01*
X743807Y613221D01*
X743891Y613617D01*
X743985Y614012D01*
X744088Y614403D01*
X744201Y614793D01*
X744323Y615179D01*
X744455Y615562D01*
X744596Y615942D01*
X744747Y616318D01*
X744906Y616691D01*
X745075Y617059D01*
X745253Y617423D01*
X745439Y617783D01*
X745635Y618138D01*
X745839Y618488D01*
X746051Y618833D01*
X746272Y619172D01*
X746502Y619507D01*
X746739Y619835D01*
X746984Y620157D01*
X747238Y620474D01*
X747498Y620784D01*
X747767Y621087D01*
X748043Y621384D01*
X748326Y621674D01*
X748616Y621957D01*
X748913Y622233D01*
X749216Y622502D01*
X749526Y622762D01*
X749843Y623016D01*
X750165Y623261D01*
X750493Y623498D01*
X750828Y623728D01*
X751167Y623949D01*
X751512Y624161D01*
X751862Y624365D01*
X752217Y624561D01*
X752577Y624747D01*
X752941Y624925D01*
X753309Y625094D01*
X753682Y625253D01*
X754058Y625404D01*
X754438Y625545D01*
X754821Y625677D01*
X755207Y625799D01*
X755597Y625912D01*
X755988Y626015D01*
X756383Y626109D01*
X756779Y626193D01*
X757177Y626267D01*
X757577Y626331D01*
X757979Y626386D01*
X758382Y626430D01*
X758785Y626465D01*
X759190Y626490D01*
X759595Y626505D01*
X760000Y626510D01*
X760405Y626505D01*
X760810Y626490D01*
X761215Y626465D01*
X761618Y626430D01*
X762021Y626386D01*
X762423Y626331D01*
X762823Y626267D01*
X763221Y626193D01*
X763617Y626109D01*
X764012Y626015D01*
X764403Y625912D01*
X764793Y625799D01*
X765179Y625677D01*
X765562Y625545D01*
X765942Y625404D01*
X766318Y625253D01*
X766691Y625094D01*
X767059Y624925D01*
X767423Y624747D01*
X767783Y624561D01*
X768138Y624365D01*
X768488Y624161D01*
X768833Y623949D01*
X769172Y623728D01*
X769507Y623498D01*
X769835Y623261D01*
X770157Y623016D01*
X770474Y622762D01*
X770784Y622502D01*
X771087Y622233D01*
X771384Y621957D01*
X771674Y621674D01*
X771957Y621384D01*
X772233Y621087D01*
X772502Y620784D01*
X772762Y620474D01*
X773016Y620157D01*
X773261Y619835D01*
X773498Y619507D01*
X773728Y619172D01*
X773949Y618833D01*
X774161Y618488D01*
X774365Y618138D01*
X774561Y617783D01*
X774747Y617423D01*
X774925Y617059D01*
X775094Y616691D01*
X775253Y616318D01*
X775404Y615942D01*
X775545Y615562D01*
X775677Y615179D01*
X775799Y614793D01*
X775912Y614403D01*
X776015Y614012D01*
X776109Y613617D01*
X776193Y613221D01*
X776267Y612823D01*
X776331Y612423D01*
X776386Y612021D01*
X776430Y611618D01*
X776465Y611215D01*
X776490Y610810D01*
X776505Y610405D01*
X776510Y610000D01*
X776505Y609595D01*
X776490Y609190D01*
X776465Y608785D01*
X776430Y608382D01*
X776386Y607979D01*
X776331Y607577D01*
X776267Y607177D01*
X776193Y606779D01*
X776109Y606383D01*
X776015Y605988D01*
X775912Y605597D01*
X775799Y605207D01*
X775677Y604821D01*
X775545Y604438D01*
X775404Y604058D01*
X775253Y603682D01*
X775094Y603309D01*
X774925Y602941D01*
X774747Y602577D01*
X774561Y602217D01*
X774365Y601862D01*
X774161Y601512D01*
X773949Y601167D01*
X773728Y600828D01*
X773498Y600493D01*
X773261Y600165D01*
X773016Y599843D01*
X772762Y599526D01*
X772502Y599216D01*
X772233Y598913D01*
X771957Y598616D01*
X771674Y598326D01*
X771384Y598043D01*
X771087Y597767D01*
X770784Y597498D01*
X770474Y597238D01*
X770157Y596984D01*
X769835Y596739D01*
X769507Y596502D01*
X769172Y596272D01*
X768833Y596051D01*
X768488Y595839D01*
X768138Y595635D01*
X767783Y595439D01*
X767423Y595253D01*
X767059Y595075D01*
X766691Y594906D01*
X766318Y594747D01*
X765942Y594596D01*
X765562Y594455D01*
X765179Y594323D01*
X764793Y594201D01*
X764403Y594088D01*
X764012Y593985D01*
X763617Y593891D01*
X763221Y593807D01*
X762823Y593733D01*
X762423Y593669D01*
X762021Y593614D01*
X761618Y593570D01*
X761215Y593535D01*
X760810Y593510D01*
X760405Y593495D01*
X760000Y593490D01*
X759595Y593495D01*
X759190Y593510D01*
X758785Y593535D01*
X758382Y593570D01*
X757979Y593614D01*
X757577Y593669D01*
X757177Y593733D01*
X756779Y593807D01*
X756383Y593891D01*
X755988Y593985D01*
X755597Y594088D01*
X755207Y594201D01*
X754821Y594323D01*
X754438Y594455D01*
X754058Y594596D01*
X753682Y594747D01*
X753309Y594906D01*
X752941Y595075D01*
X752577Y595253D01*
X752217Y595439D01*
X751862Y595635D01*
X751512Y595839D01*
X751167Y596051D01*
X750828Y596272D01*
X750493Y596502D01*
X750165Y596739D01*
X749843Y596984D01*
X749526Y597238D01*
X749216Y597498D01*
X748913Y597767D01*
X748616Y598043D01*
X748326Y598326D01*
X748043Y598616D01*
X747767Y598913D01*
X747498Y599216D01*
X747238Y599526D01*
X746984Y599843D01*
X746739Y600165D01*
X746502Y600493D01*
X746272Y600828D01*
X746051Y601167D01*
X745839Y601512D01*
X745635Y601862D01*
X745439Y602217D01*
X745253Y602577D01*
X745075Y602941D01*
X744906Y603309D01*
X744747Y603682D01*
X744596Y604058D01*
X744455Y604438D01*
X744323Y604821D01*
X744201Y605207D01*
X744088Y605597D01*
X743985Y605988D01*
X743891Y606383D01*
X743807Y606779D01*
X743733Y607177D01*
X743669Y607577D01*
X743614Y607979D01*
X743570Y608382D01*
X743535Y608785D01*
X743510Y609190D01*
X743495Y609595D01*
X743490Y610000D01*
X123490Y140000D02*
X123495Y140405D01*
X123510Y140810D01*
X123535Y141215D01*
X123570Y141618D01*
X123614Y142021D01*
X123669Y142423D01*
X123733Y142823D01*
X123807Y143221D01*
X123891Y143617D01*
X123985Y144012D01*
X124088Y144403D01*
X124201Y144793D01*
X124323Y145179D01*
X124455Y145562D01*
X124596Y145942D01*
X124747Y146318D01*
X124906Y146691D01*
X125075Y147059D01*
X125253Y147423D01*
X125439Y147783D01*
X125635Y148138D01*
X125839Y148488D01*
X126051Y148833D01*
X126272Y149172D01*
X126502Y149507D01*
X126739Y149835D01*
X126984Y150157D01*
X127238Y150474D01*
X127498Y150784D01*
X127767Y151087D01*
X128043Y151384D01*
X128326Y151674D01*
X128616Y151957D01*
X128913Y152233D01*
X129216Y152502D01*
X129526Y152762D01*
X129843Y153016D01*
X130165Y153261D01*
X130493Y153498D01*
X130828Y153728D01*
X131167Y153949D01*
X131512Y154161D01*
X131862Y154365D01*
X132217Y154561D01*
X132577Y154747D01*
X132941Y154925D01*
X133309Y155094D01*
X133682Y155253D01*
X134058Y155404D01*
X134438Y155545D01*
X134821Y155677D01*
X135207Y155799D01*
X135597Y155912D01*
X135988Y156015D01*
X136383Y156109D01*
X136779Y156193D01*
X137177Y156267D01*
X137577Y156331D01*
X137979Y156386D01*
X138382Y156430D01*
X138785Y156465D01*
X139190Y156490D01*
X139595Y156505D01*
X140000Y156510D01*
X140405Y156505D01*
X140810Y156490D01*
X141215Y156465D01*
X141618Y156430D01*
X142021Y156386D01*
X142423Y156331D01*
X142823Y156267D01*
X143221Y156193D01*
X143617Y156109D01*
X144012Y156015D01*
X144403Y155912D01*
X144793Y155799D01*
X145179Y155677D01*
X145562Y155545D01*
X145942Y155404D01*
X146318Y155253D01*
X146691Y155094D01*
X147059Y154925D01*
X147423Y154747D01*
X147783Y154561D01*
X148138Y154365D01*
X148488Y154161D01*
X148833Y153949D01*
X149172Y153728D01*
X149507Y153498D01*
X149835Y153261D01*
X150157Y153016D01*
X150474Y152762D01*
X150784Y152502D01*
X151087Y152233D01*
X151384Y151957D01*
X151674Y151674D01*
X151957Y151384D01*
X152233Y151087D01*
X152502Y150784D01*
X152762Y150474D01*
X153016Y150157D01*
X153261Y149835D01*
X153498Y149507D01*
X153728Y149172D01*
X153949Y148833D01*
X154161Y148488D01*
X154365Y148138D01*
X154561Y147783D01*
X154747Y147423D01*
X154925Y147059D01*
X155094Y146691D01*
X155253Y146318D01*
X155404Y145942D01*
X155545Y145562D01*
X155677Y145179D01*
X155799Y144793D01*
X155912Y144403D01*
X156015Y144012D01*
X156109Y143617D01*
X156193Y143221D01*
X156267Y142823D01*
X156331Y142423D01*
X156386Y142021D01*
X156430Y141618D01*
X156465Y141215D01*
X156490Y140810D01*
X156505Y140405D01*
X156510Y140000D01*
X156505Y139595D01*
X156490Y139190D01*
X156465Y138785D01*
X156430Y138382D01*
X156386Y137979D01*
X156331Y137577D01*
X156267Y137177D01*
X156193Y136779D01*
X156109Y136383D01*
X156015Y135988D01*
X155912Y135597D01*
X155799Y135207D01*
X155677Y134821D01*
X155545Y134438D01*
X155404Y134058D01*
X155253Y133682D01*
X155094Y133309D01*
X154925Y132941D01*
X154747Y132577D01*
X154561Y132217D01*
X154365Y131862D01*
X154161Y131512D01*
X153949Y131167D01*
X153728Y130828D01*
X153498Y130493D01*
X153261Y130165D01*
X153016Y129843D01*
X152762Y129526D01*
X152502Y129216D01*
X152233Y128913D01*
X151957Y128616D01*
X151674Y128326D01*
X151384Y128043D01*
X151087Y127767D01*
X150784Y127498D01*
X150474Y127238D01*
X150157Y126984D01*
X149835Y126739D01*
X149507Y126502D01*
X149172Y126272D01*
X148833Y126051D01*
X148488Y125839D01*
X148138Y125635D01*
X147783Y125439D01*
X147423Y125253D01*
X147059Y125075D01*
X146691Y124906D01*
X146318Y124747D01*
X145942Y124596D01*
X145562Y124455D01*
X145179Y124323D01*
X144793Y124201D01*
X144403Y124088D01*
X144012Y123985D01*
X143617Y123891D01*
X143221Y123807D01*
X142823Y123733D01*
X142423Y123669D01*
X142021Y123614D01*
X141618Y123570D01*
X141215Y123535D01*
X140810Y123510D01*
X140405Y123495D01*
X140000Y123490D01*
X139595Y123495D01*
X139190Y123510D01*
X138785Y123535D01*
X138382Y123570D01*
X137979Y123614D01*
X137577Y123669D01*
X137177Y123733D01*
X136779Y123807D01*
X136383Y123891D01*
X135988Y123985D01*
X135597Y124088D01*
X135207Y124201D01*
X134821Y124323D01*
X134438Y124455D01*
X134058Y124596D01*
X133682Y124747D01*
X133309Y124906D01*
X132941Y125075D01*
X132577Y125253D01*
X132217Y125439D01*
X131862Y125635D01*
X131512Y125839D01*
X131167Y126051D01*
X130828Y126272D01*
X130493Y126502D01*
X130165Y126739D01*
X129843Y126984D01*
X129526Y127238D01*
X129216Y127498D01*
X128913Y127767D01*
X128616Y128043D01*
X128326Y128326D01*
X128043Y128616D01*
X127767Y128913D01*
X127498Y129216D01*
X127238Y129526D01*
X126984Y129843D01*
X126739Y130165D01*
X126502Y130493D01*
X126272Y130828D01*
X126051Y131167D01*
X125839Y131512D01*
X125635Y131862D01*
X125439Y132217D01*
X125253Y132577D01*
X125075Y132941D01*
X124906Y133309D01*
X124747Y133682D01*
X124596Y134058D01*
X124455Y134438D01*
X124323Y134821D01*
X124201Y135207D01*
X124088Y135597D01*
X123985Y135988D01*
X123891Y136383D01*
X123807Y136779D01*
X123733Y137177D01*
X123669Y137577D01*
X123614Y137979D01*
X123570Y138382D01*
X123535Y138785D01*
X123510Y139190D01*
X123495Y139595D01*
X123490Y140000D01*
X743490Y140000D02*
X743495Y140405D01*
X743510Y140810D01*
X743535Y141215D01*
X743570Y141618D01*
X743614Y142021D01*
X743669Y142423D01*
X743733Y142823D01*
X743807Y143221D01*
X743891Y143617D01*
X743985Y144012D01*
X744088Y144403D01*
X744201Y144793D01*
X744323Y145179D01*
X744455Y145562D01*
X744596Y145942D01*
X744747Y146318D01*
X744906Y146691D01*
X745075Y147059D01*
X745253Y147423D01*
X745439Y147783D01*
X745635Y148138D01*
X745839Y148488D01*
X746051Y148833D01*
X746272Y149172D01*
X746502Y149507D01*
X746739Y149835D01*
X746984Y150157D01*
X747238Y150474D01*
X747498Y150784D01*
X747767Y151087D01*
X748043Y151384D01*
X748326Y151674D01*
X748616Y151957D01*
X748913Y152233D01*
X749216Y152502D01*
X749526Y152762D01*
X749843Y153016D01*
X750165Y153261D01*
X750493Y153498D01*
X750828Y153728D01*
X751167Y153949D01*
X751512Y154161D01*
X751862Y154365D01*
X752217Y154561D01*
X752577Y154747D01*
X752941Y154925D01*
X753309Y155094D01*
X753682Y155253D01*
X754058Y155404D01*
X754438Y155545D01*
X754821Y155677D01*
X755207Y155799D01*
X755597Y155912D01*
X755988Y156015D01*
X756383Y156109D01*
X756779Y156193D01*
X757177Y156267D01*
X757577Y156331D01*
X757979Y156386D01*
X758382Y156430D01*
X758785Y156465D01*
X759190Y156490D01*
X759595Y156505D01*
X760000Y156510D01*
X760405Y156505D01*
X760810Y156490D01*
X761215Y156465D01*
X761618Y156430D01*
X762021Y156386D01*
X762423Y156331D01*
X762823Y156267D01*
X763221Y156193D01*
X763617Y156109D01*
X764012Y156015D01*
X764403Y155912D01*
X764793Y155799D01*
X765179Y155677D01*
X765562Y155545D01*
X765942Y155404D01*
X766318Y155253D01*
X766691Y155094D01*
X767059Y154925D01*
X767423Y154747D01*
X767783Y154561D01*
X768138Y154365D01*
X768488Y154161D01*
X768833Y153949D01*
X769172Y153728D01*
X769507Y153498D01*
X769835Y153261D01*
X770157Y153016D01*
X770474Y152762D01*
X770784Y152502D01*
X771087Y152233D01*
X771384Y151957D01*
X771674Y151674D01*
X771957Y151384D01*
X772233Y151087D01*
X772502Y150784D01*
X772762Y150474D01*
X773016Y150157D01*
X773261Y149835D01*
X773498Y149507D01*
X773728Y149172D01*
X773949Y148833D01*
X774161Y148488D01*
X774365Y148138D01*
X774561Y147783D01*
X774747Y147423D01*
X774925Y147059D01*
X775094Y146691D01*
X775253Y146318D01*
X775404Y145942D01*
X775545Y145562D01*
X775677Y145179D01*
X775799Y144793D01*
X775912Y144403D01*
X776015Y144012D01*
X776109Y143617D01*
X776193Y143221D01*
X776267Y142823D01*
X776331Y142423D01*
X776386Y142021D01*
X776430Y141618D01*
X776465Y141215D01*
X776490Y140810D01*
X776505Y140405D01*
X776510Y140000D01*
X776505Y139595D01*
X776490Y139190D01*
X776465Y138785D01*
X776430Y138382D01*
X776386Y137979D01*
X776331Y137577D01*
X776267Y137177D01*
X776193Y136779D01*
X776109Y136383D01*
X776015Y135988D01*
X775912Y135597D01*
X775799Y135207D01*
X775677Y134821D01*
X775545Y134438D01*
X775404Y134058D01*
X775253Y133682D01*
X775094Y133309D01*
X774925Y132941D01*
X774747Y132577D01*
X774561Y132217D01*
X774365Y131862D01*
X774161Y131512D01*
X773949Y131167D01*
X773728Y130828D01*
X773498Y130493D01*
X773261Y130165D01*
X773016Y129843D01*
X772762Y129526D01*
X772502Y129216D01*
X772233Y128913D01*
X771957Y128616D01*
X771674Y128326D01*
X771384Y128043D01*
X771087Y127767D01*
X770784Y127498D01*
X770474Y127238D01*
X770157Y126984D01*
X769835Y126739D01*
X769507Y126502D01*
X769172Y126272D01*
X768833Y126051D01*
X768488Y125839D01*
X768138Y125635D01*
X767783Y125439D01*
X767423Y125253D01*
X767059Y125075D01*
X766691Y124906D01*
X766318Y124747D01*
X765942Y124596D01*
X765562Y124455D01*
X765179Y124323D01*
X764793Y124201D01*
X764403Y124088D01*
X764012Y123985D01*
X763617Y123891D01*
X763221Y123807D01*
X762823Y123733D01*
X762423Y123669D01*
X762021Y123614D01*
X761618Y123570D01*
X761215Y123535D01*
X760810Y123510D01*
X760405Y123495D01*
X760000Y123490D01*
X759595Y123495D01*
X759190Y123510D01*
X758785Y123535D01*
X758382Y123570D01*
X757979Y123614D01*
X757577Y123669D01*
X757177Y123733D01*
X756779Y123807D01*
X756383Y123891D01*
X755988Y123985D01*
X755597Y124088D01*
X755207Y124201D01*
X754821Y124323D01*
X754438Y124455D01*
X754058Y124596D01*
X753682Y124747D01*
X753309Y124906D01*
X752941Y125075D01*
X752577Y125253D01*
X752217Y125439D01*
X751862Y125635D01*
X751512Y125839D01*
X751167Y126051D01*
X750828Y126272D01*
X750493Y126502D01*
X750165Y126739D01*
X749843Y126984D01*
X749526Y127238D01*
X749216Y127498D01*
X748913Y127767D01*
X748616Y128043D01*
X748326Y128326D01*
X748043Y128616D01*
X747767Y128913D01*
X747498Y129216D01*
X747238Y129526D01*
X746984Y129843D01*
X746739Y130165D01*
X746502Y130493D01*
X746272Y130828D01*
X746051Y131167D01*
X745839Y131512D01*
X745635Y131862D01*
X745439Y132217D01*
X745253Y132577D01*
X745075Y132941D01*
X744906Y133309D01*
X744747Y133682D01*
X744596Y134058D01*
X744455Y134438D01*
X744323Y134821D01*
X744201Y135207D01*
X744088Y135597D01*
X743985Y135988D01*
X743891Y136383D01*
X743807Y136779D01*
X743733Y137177D01*
X743669Y137577D01*
X743614Y137979D01*
X743570Y138382D01*
X743535Y138785D01*
X743510Y139190D01*
X743495Y139595D01*
X743490Y140000D01*
D10*
X589500Y100000D02*
X482500Y100000D01*
X612500Y102300D02*
X612500Y186800D01*
X592500Y155300D02*
X592500Y102300D01*
X589500Y100000D01*
X612500Y102300D02*
X615500Y100000D01*
X682500Y100000D01*
X592500Y155800D02*
X592500Y186800D01*
X592503Y187044D01*
X592512Y187287D01*
X592527Y187530D01*
X592547Y187773D01*
X592574Y188015D01*
X592607Y188256D01*
X592645Y188496D01*
X592689Y188736D01*
X592739Y188974D01*
X592795Y189211D01*
X592857Y189447D01*
X592924Y189681D01*
X592997Y189913D01*
X593076Y190144D01*
X593160Y190372D01*
X593250Y190599D01*
X593345Y190823D01*
X593446Y191045D01*
X593552Y191264D01*
X593663Y191480D01*
X593780Y191694D01*
X593901Y191905D01*
X594028Y192113D01*
X594160Y192318D01*
X594297Y192519D01*
X594439Y192717D01*
X594585Y192912D01*
X594736Y193103D01*
X594892Y193290D01*
X595052Y193473D01*
X595217Y193653D01*
X595386Y193828D01*
X595559Y193999D01*
X595737Y194166D01*
X595918Y194328D01*
X596103Y194486D01*
X596292Y194640D01*
X596485Y194789D01*
X596681Y194933D01*
X596881Y195072D01*
X597084Y195207D01*
X597291Y195336D01*
X597500Y195460D01*
X597712Y195579D01*
X597928Y195693D01*
X598145Y195802D01*
X598366Y195905D01*
X598589Y196003D01*
X598814Y196096D01*
X599042Y196183D01*
X599271Y196264D01*
X599503Y196340D01*
X599736Y196410D01*
X599971Y196475D01*
X600207Y196534D01*
X600445Y196587D01*
X600684Y196634D01*
X600924Y196675D01*
X601165Y196710D01*
X601406Y196740D01*
X601649Y196764D01*
X601892Y196781D01*
X602135Y196793D01*
X602378Y196799D01*
X602622Y196799D01*
X602865Y196793D01*
X603108Y196781D01*
X603351Y196764D01*
X603594Y196740D01*
X603835Y196710D01*
X604076Y196675D01*
X604316Y196634D01*
X604555Y196587D01*
X604793Y196534D01*
X605029Y196475D01*
X605264Y196410D01*
X605497Y196340D01*
X605729Y196264D01*
X605958Y196183D01*
X606186Y196096D01*
X606411Y196003D01*
X606634Y195905D01*
X606855Y195802D01*
X607072Y195693D01*
X607288Y195579D01*
X607500Y195460D01*
X607709Y195336D01*
X607916Y195207D01*
X608119Y195072D01*
X608319Y194933D01*
X608515Y194789D01*
X608708Y194640D01*
X608897Y194486D01*
X609082Y194328D01*
X609263Y194166D01*
X609441Y193999D01*
X609614Y193828D01*
X609783Y193653D01*
X609948Y193473D01*
X610108Y193290D01*
X610264Y193103D01*
X610415Y192912D01*
X610561Y192717D01*
X610703Y192519D01*
X610840Y192318D01*
X610972Y192113D01*
X611099Y191905D01*
X611220Y191694D01*
X611337Y191480D01*
X611448Y191264D01*
X611554Y191045D01*
X611655Y190823D01*
X611750Y190599D01*
X611840Y190372D01*
X611924Y190144D01*
X612003Y189913D01*
X612076Y189681D01*
X612143Y189447D01*
X612205Y189211D01*
X612261Y188974D01*
X612311Y188736D01*
X612355Y188496D01*
X612393Y188256D01*
X612426Y188015D01*
X612453Y187773D01*
X612473Y187530D01*
X612488Y187287D01*
X612497Y187044D01*
X612500Y186800D01*
M02*
