G04 EAGLE Gerber X2 export*
G75*
%MOMM*%
%FSLAX34Y34*%
%LPD*%
%AMOC8*
5,1,8,0,0,1.08239X$1,22.5*%
G01*
%ADD10C,0.280000*%


D10*
X489600Y154900D02*
X489600Y117700D01*
X485400Y117700D01*
X485400Y154900D01*
X489600Y154900D01*
X489600Y120499D02*
X485400Y120499D01*
X485400Y123298D02*
X489600Y123298D01*
X489600Y126097D02*
X485400Y126097D01*
X485400Y128896D02*
X489600Y128896D01*
X489600Y131695D02*
X485400Y131695D01*
X485400Y134494D02*
X489600Y134494D01*
X489600Y137293D02*
X485400Y137293D01*
X485400Y140092D02*
X489600Y140092D01*
X489600Y142891D02*
X485400Y142891D01*
X485400Y145690D02*
X489600Y145690D01*
X489600Y148489D02*
X485400Y148489D01*
X485400Y151288D02*
X489600Y151288D01*
X489600Y154087D02*
X485400Y154087D01*
X499600Y154900D02*
X499600Y117700D01*
X495400Y117700D01*
X495400Y154900D01*
X499600Y154900D01*
X499600Y120499D02*
X495400Y120499D01*
X495400Y123298D02*
X499600Y123298D01*
X499600Y126097D02*
X495400Y126097D01*
X495400Y128896D02*
X499600Y128896D01*
X499600Y131695D02*
X495400Y131695D01*
X495400Y134494D02*
X499600Y134494D01*
X499600Y137293D02*
X495400Y137293D01*
X495400Y140092D02*
X499600Y140092D01*
X499600Y142891D02*
X495400Y142891D01*
X495400Y145690D02*
X499600Y145690D01*
X499600Y148489D02*
X495400Y148489D01*
X495400Y151288D02*
X499600Y151288D01*
X499600Y154087D02*
X495400Y154087D01*
X509600Y154900D02*
X509600Y117700D01*
X505400Y117700D01*
X505400Y154900D01*
X509600Y154900D01*
X509600Y120499D02*
X505400Y120499D01*
X505400Y123298D02*
X509600Y123298D01*
X509600Y126097D02*
X505400Y126097D01*
X505400Y128896D02*
X509600Y128896D01*
X509600Y131695D02*
X505400Y131695D01*
X505400Y134494D02*
X509600Y134494D01*
X509600Y137293D02*
X505400Y137293D01*
X505400Y140092D02*
X509600Y140092D01*
X509600Y142891D02*
X505400Y142891D01*
X505400Y145690D02*
X509600Y145690D01*
X509600Y148489D02*
X505400Y148489D01*
X505400Y151288D02*
X509600Y151288D01*
X509600Y154087D02*
X505400Y154087D01*
X519600Y154900D02*
X519600Y117700D01*
X515400Y117700D01*
X515400Y154900D01*
X519600Y154900D01*
X519600Y120499D02*
X515400Y120499D01*
X515400Y123298D02*
X519600Y123298D01*
X519600Y126097D02*
X515400Y126097D01*
X515400Y128896D02*
X519600Y128896D01*
X519600Y131695D02*
X515400Y131695D01*
X515400Y134494D02*
X519600Y134494D01*
X519600Y137293D02*
X515400Y137293D01*
X515400Y140092D02*
X519600Y140092D01*
X519600Y142891D02*
X515400Y142891D01*
X515400Y145690D02*
X519600Y145690D01*
X519600Y148489D02*
X515400Y148489D01*
X515400Y151288D02*
X519600Y151288D01*
X519600Y154087D02*
X515400Y154087D01*
X529600Y154900D02*
X529600Y117700D01*
X525400Y117700D01*
X525400Y154900D01*
X529600Y154900D01*
X529600Y120499D02*
X525400Y120499D01*
X525400Y123298D02*
X529600Y123298D01*
X529600Y126097D02*
X525400Y126097D01*
X525400Y128896D02*
X529600Y128896D01*
X529600Y131695D02*
X525400Y131695D01*
X525400Y134494D02*
X529600Y134494D01*
X529600Y137293D02*
X525400Y137293D01*
X525400Y140092D02*
X529600Y140092D01*
X529600Y142891D02*
X525400Y142891D01*
X525400Y145690D02*
X529600Y145690D01*
X529600Y148489D02*
X525400Y148489D01*
X525400Y151288D02*
X529600Y151288D01*
X529600Y154087D02*
X525400Y154087D01*
X539600Y154900D02*
X539600Y117700D01*
X535400Y117700D01*
X535400Y154900D01*
X539600Y154900D01*
X539600Y120499D02*
X535400Y120499D01*
X535400Y123298D02*
X539600Y123298D01*
X539600Y126097D02*
X535400Y126097D01*
X535400Y128896D02*
X539600Y128896D01*
X539600Y131695D02*
X535400Y131695D01*
X535400Y134494D02*
X539600Y134494D01*
X539600Y137293D02*
X535400Y137293D01*
X535400Y140092D02*
X539600Y140092D01*
X539600Y142891D02*
X535400Y142891D01*
X535400Y145690D02*
X539600Y145690D01*
X539600Y148489D02*
X535400Y148489D01*
X535400Y151288D02*
X539600Y151288D01*
X539600Y154087D02*
X535400Y154087D01*
X549600Y154900D02*
X549600Y117700D01*
X545400Y117700D01*
X545400Y154900D01*
X549600Y154900D01*
X549600Y120499D02*
X545400Y120499D01*
X545400Y123298D02*
X549600Y123298D01*
X549600Y126097D02*
X545400Y126097D01*
X545400Y128896D02*
X549600Y128896D01*
X549600Y131695D02*
X545400Y131695D01*
X545400Y134494D02*
X549600Y134494D01*
X549600Y137293D02*
X545400Y137293D01*
X545400Y140092D02*
X549600Y140092D01*
X549600Y142891D02*
X545400Y142891D01*
X545400Y145690D02*
X549600Y145690D01*
X549600Y148489D02*
X545400Y148489D01*
X545400Y151288D02*
X549600Y151288D01*
X549600Y154087D02*
X545400Y154087D01*
X559600Y154900D02*
X559600Y117700D01*
X555400Y117700D01*
X555400Y154900D01*
X559600Y154900D01*
X559600Y120499D02*
X555400Y120499D01*
X555400Y123298D02*
X559600Y123298D01*
X559600Y126097D02*
X555400Y126097D01*
X555400Y128896D02*
X559600Y128896D01*
X559600Y131695D02*
X555400Y131695D01*
X555400Y134494D02*
X559600Y134494D01*
X559600Y137293D02*
X555400Y137293D01*
X555400Y140092D02*
X559600Y140092D01*
X559600Y142891D02*
X555400Y142891D01*
X555400Y145690D02*
X559600Y145690D01*
X559600Y148489D02*
X555400Y148489D01*
X555400Y151288D02*
X559600Y151288D01*
X559600Y154087D02*
X555400Y154087D01*
X569600Y154900D02*
X569600Y117700D01*
X565400Y117700D01*
X565400Y154900D01*
X569600Y154900D01*
X569600Y120499D02*
X565400Y120499D01*
X565400Y123298D02*
X569600Y123298D01*
X569600Y126097D02*
X565400Y126097D01*
X565400Y128896D02*
X569600Y128896D01*
X569600Y131695D02*
X565400Y131695D01*
X565400Y134494D02*
X569600Y134494D01*
X569600Y137293D02*
X565400Y137293D01*
X565400Y140092D02*
X569600Y140092D01*
X569600Y142891D02*
X565400Y142891D01*
X565400Y145690D02*
X569600Y145690D01*
X569600Y148489D02*
X565400Y148489D01*
X565400Y151288D02*
X569600Y151288D01*
X569600Y154087D02*
X565400Y154087D01*
X579600Y154900D02*
X579600Y117700D01*
X575400Y117700D01*
X575400Y154900D01*
X579600Y154900D01*
X579600Y120499D02*
X575400Y120499D01*
X575400Y123298D02*
X579600Y123298D01*
X579600Y126097D02*
X575400Y126097D01*
X575400Y128896D02*
X579600Y128896D01*
X579600Y131695D02*
X575400Y131695D01*
X575400Y134494D02*
X579600Y134494D01*
X579600Y137293D02*
X575400Y137293D01*
X575400Y140092D02*
X579600Y140092D01*
X579600Y142891D02*
X575400Y142891D01*
X575400Y145690D02*
X579600Y145690D01*
X579600Y148489D02*
X575400Y148489D01*
X575400Y151288D02*
X579600Y151288D01*
X579600Y154087D02*
X575400Y154087D01*
X589600Y154900D02*
X589600Y117700D01*
X585400Y117700D01*
X585400Y154900D01*
X589600Y154900D01*
X589600Y120499D02*
X585400Y120499D01*
X585400Y123298D02*
X589600Y123298D01*
X589600Y126097D02*
X585400Y126097D01*
X585400Y128896D02*
X589600Y128896D01*
X589600Y131695D02*
X585400Y131695D01*
X585400Y134494D02*
X589600Y134494D01*
X589600Y137293D02*
X585400Y137293D01*
X585400Y140092D02*
X589600Y140092D01*
X589600Y142891D02*
X585400Y142891D01*
X585400Y145690D02*
X589600Y145690D01*
X589600Y148489D02*
X585400Y148489D01*
X585400Y151288D02*
X589600Y151288D01*
X589600Y154087D02*
X585400Y154087D01*
X619600Y154900D02*
X619600Y117700D01*
X615400Y117700D01*
X615400Y154900D01*
X619600Y154900D01*
X619600Y120499D02*
X615400Y120499D01*
X615400Y123298D02*
X619600Y123298D01*
X619600Y126097D02*
X615400Y126097D01*
X615400Y128896D02*
X619600Y128896D01*
X619600Y131695D02*
X615400Y131695D01*
X615400Y134494D02*
X619600Y134494D01*
X619600Y137293D02*
X615400Y137293D01*
X615400Y140092D02*
X619600Y140092D01*
X619600Y142891D02*
X615400Y142891D01*
X615400Y145690D02*
X619600Y145690D01*
X619600Y148489D02*
X615400Y148489D01*
X615400Y151288D02*
X619600Y151288D01*
X619600Y154087D02*
X615400Y154087D01*
X629600Y154900D02*
X629600Y117700D01*
X625400Y117700D01*
X625400Y154900D01*
X629600Y154900D01*
X629600Y120499D02*
X625400Y120499D01*
X625400Y123298D02*
X629600Y123298D01*
X629600Y126097D02*
X625400Y126097D01*
X625400Y128896D02*
X629600Y128896D01*
X629600Y131695D02*
X625400Y131695D01*
X625400Y134494D02*
X629600Y134494D01*
X629600Y137293D02*
X625400Y137293D01*
X625400Y140092D02*
X629600Y140092D01*
X629600Y142891D02*
X625400Y142891D01*
X625400Y145690D02*
X629600Y145690D01*
X629600Y148489D02*
X625400Y148489D01*
X625400Y151288D02*
X629600Y151288D01*
X629600Y154087D02*
X625400Y154087D01*
X639600Y154900D02*
X639600Y117700D01*
X635400Y117700D01*
X635400Y154900D01*
X639600Y154900D01*
X639600Y120499D02*
X635400Y120499D01*
X635400Y123298D02*
X639600Y123298D01*
X639600Y126097D02*
X635400Y126097D01*
X635400Y128896D02*
X639600Y128896D01*
X639600Y131695D02*
X635400Y131695D01*
X635400Y134494D02*
X639600Y134494D01*
X639600Y137293D02*
X635400Y137293D01*
X635400Y140092D02*
X639600Y140092D01*
X639600Y142891D02*
X635400Y142891D01*
X635400Y145690D02*
X639600Y145690D01*
X639600Y148489D02*
X635400Y148489D01*
X635400Y151288D02*
X639600Y151288D01*
X639600Y154087D02*
X635400Y154087D01*
X649600Y154900D02*
X649600Y117700D01*
X645400Y117700D01*
X645400Y154900D01*
X649600Y154900D01*
X649600Y120499D02*
X645400Y120499D01*
X645400Y123298D02*
X649600Y123298D01*
X649600Y126097D02*
X645400Y126097D01*
X645400Y128896D02*
X649600Y128896D01*
X649600Y131695D02*
X645400Y131695D01*
X645400Y134494D02*
X649600Y134494D01*
X649600Y137293D02*
X645400Y137293D01*
X645400Y140092D02*
X649600Y140092D01*
X649600Y142891D02*
X645400Y142891D01*
X645400Y145690D02*
X649600Y145690D01*
X649600Y148489D02*
X645400Y148489D01*
X645400Y151288D02*
X649600Y151288D01*
X649600Y154087D02*
X645400Y154087D01*
X659600Y154900D02*
X659600Y117700D01*
X655400Y117700D01*
X655400Y154900D01*
X659600Y154900D01*
X659600Y120499D02*
X655400Y120499D01*
X655400Y123298D02*
X659600Y123298D01*
X659600Y126097D02*
X655400Y126097D01*
X655400Y128896D02*
X659600Y128896D01*
X659600Y131695D02*
X655400Y131695D01*
X655400Y134494D02*
X659600Y134494D01*
X659600Y137293D02*
X655400Y137293D01*
X655400Y140092D02*
X659600Y140092D01*
X659600Y142891D02*
X655400Y142891D01*
X655400Y145690D02*
X659600Y145690D01*
X659600Y148489D02*
X655400Y148489D01*
X655400Y151288D02*
X659600Y151288D01*
X659600Y154087D02*
X655400Y154087D01*
X669600Y154900D02*
X669600Y117700D01*
X665400Y117700D01*
X665400Y154900D01*
X669600Y154900D01*
X669600Y120499D02*
X665400Y120499D01*
X665400Y123298D02*
X669600Y123298D01*
X669600Y126097D02*
X665400Y126097D01*
X665400Y128896D02*
X669600Y128896D01*
X669600Y131695D02*
X665400Y131695D01*
X665400Y134494D02*
X669600Y134494D01*
X669600Y137293D02*
X665400Y137293D01*
X665400Y140092D02*
X669600Y140092D01*
X669600Y142891D02*
X665400Y142891D01*
X665400Y145690D02*
X669600Y145690D01*
X669600Y148489D02*
X665400Y148489D01*
X665400Y151288D02*
X669600Y151288D01*
X669600Y154087D02*
X665400Y154087D01*
X679600Y154900D02*
X679600Y117700D01*
X675400Y117700D01*
X675400Y154900D01*
X679600Y154900D01*
X679600Y120499D02*
X675400Y120499D01*
X675400Y123298D02*
X679600Y123298D01*
X679600Y126097D02*
X675400Y126097D01*
X675400Y128896D02*
X679600Y128896D01*
X679600Y131695D02*
X675400Y131695D01*
X675400Y134494D02*
X679600Y134494D01*
X679600Y137293D02*
X675400Y137293D01*
X675400Y140092D02*
X679600Y140092D01*
X679600Y142891D02*
X675400Y142891D01*
X675400Y145690D02*
X679600Y145690D01*
X679600Y148489D02*
X675400Y148489D01*
X675400Y151288D02*
X679600Y151288D01*
X679600Y154087D02*
X675400Y154087D01*
M02*
