G04 EAGLE Gerber X2 export*
G75*
%MOMM*%
%FSLAX34Y34*%
%LPD*%
%AMOC8*
5,1,8,0,0,1.08239X$1,22.5*%
G01*
%ADD10C,1.127000*%
%ADD11C,0.927000*%
%ADD12C,0.777000*%
%ADD13R,1.327000X1.327000*%
%ADD14C,1.327000*%
%ADD15C,3.429000*%
%ADD16C,0.330800*%


D10*
X270000Y135000D03*
X193800Y145160D03*
X193800Y124840D03*
D11*
X123500Y569900D02*
X115500Y569900D01*
D12*
X191500Y561000D03*
D11*
X123500Y480100D02*
X115500Y480100D01*
X175000Y483700D02*
X183000Y483700D01*
X183000Y566300D02*
X175000Y566300D01*
D13*
X870000Y365000D03*
D14*
X850000Y365000D03*
X870000Y385000D03*
X850000Y385000D03*
X870000Y405000D03*
X850000Y405000D03*
X870000Y425000D03*
X850000Y425000D03*
X870000Y445000D03*
X850000Y445000D03*
X870000Y465000D03*
X850000Y465000D03*
X870000Y485000D03*
X850000Y485000D03*
X870000Y505000D03*
X850000Y505000D03*
X870000Y525000D03*
X850000Y525000D03*
X870000Y545000D03*
X850000Y545000D03*
X870000Y565000D03*
X850000Y565000D03*
X870000Y585000D03*
X850000Y585000D03*
D13*
X870000Y165000D03*
D14*
X850000Y165000D03*
X870000Y185000D03*
X850000Y185000D03*
X870000Y205000D03*
X850000Y205000D03*
X870000Y225000D03*
X850000Y225000D03*
X870000Y245000D03*
X850000Y245000D03*
X870000Y265000D03*
X850000Y265000D03*
X870000Y285000D03*
X850000Y285000D03*
X870000Y305000D03*
X850000Y305000D03*
D15*
X140000Y610000D03*
X760000Y610000D03*
X140000Y140000D03*
X760000Y140000D03*
D16*
X489981Y155281D02*
X489981Y117319D01*
X485019Y117319D01*
X485019Y155281D01*
X489981Y155281D01*
X489981Y120626D02*
X485019Y120626D01*
X485019Y123933D02*
X489981Y123933D01*
X489981Y127240D02*
X485019Y127240D01*
X485019Y130547D02*
X489981Y130547D01*
X489981Y133854D02*
X485019Y133854D01*
X485019Y137161D02*
X489981Y137161D01*
X489981Y140468D02*
X485019Y140468D01*
X485019Y143775D02*
X489981Y143775D01*
X489981Y147082D02*
X485019Y147082D01*
X485019Y150389D02*
X489981Y150389D01*
X489981Y153696D02*
X485019Y153696D01*
X499981Y155281D02*
X499981Y117319D01*
X495019Y117319D01*
X495019Y155281D01*
X499981Y155281D01*
X499981Y120626D02*
X495019Y120626D01*
X495019Y123933D02*
X499981Y123933D01*
X499981Y127240D02*
X495019Y127240D01*
X495019Y130547D02*
X499981Y130547D01*
X499981Y133854D02*
X495019Y133854D01*
X495019Y137161D02*
X499981Y137161D01*
X499981Y140468D02*
X495019Y140468D01*
X495019Y143775D02*
X499981Y143775D01*
X499981Y147082D02*
X495019Y147082D01*
X495019Y150389D02*
X499981Y150389D01*
X499981Y153696D02*
X495019Y153696D01*
X509981Y155281D02*
X509981Y117319D01*
X505019Y117319D01*
X505019Y155281D01*
X509981Y155281D01*
X509981Y120626D02*
X505019Y120626D01*
X505019Y123933D02*
X509981Y123933D01*
X509981Y127240D02*
X505019Y127240D01*
X505019Y130547D02*
X509981Y130547D01*
X509981Y133854D02*
X505019Y133854D01*
X505019Y137161D02*
X509981Y137161D01*
X509981Y140468D02*
X505019Y140468D01*
X505019Y143775D02*
X509981Y143775D01*
X509981Y147082D02*
X505019Y147082D01*
X505019Y150389D02*
X509981Y150389D01*
X509981Y153696D02*
X505019Y153696D01*
X519981Y155281D02*
X519981Y117319D01*
X515019Y117319D01*
X515019Y155281D01*
X519981Y155281D01*
X519981Y120626D02*
X515019Y120626D01*
X515019Y123933D02*
X519981Y123933D01*
X519981Y127240D02*
X515019Y127240D01*
X515019Y130547D02*
X519981Y130547D01*
X519981Y133854D02*
X515019Y133854D01*
X515019Y137161D02*
X519981Y137161D01*
X519981Y140468D02*
X515019Y140468D01*
X515019Y143775D02*
X519981Y143775D01*
X519981Y147082D02*
X515019Y147082D01*
X515019Y150389D02*
X519981Y150389D01*
X519981Y153696D02*
X515019Y153696D01*
X529981Y155281D02*
X529981Y117319D01*
X525019Y117319D01*
X525019Y155281D01*
X529981Y155281D01*
X529981Y120626D02*
X525019Y120626D01*
X525019Y123933D02*
X529981Y123933D01*
X529981Y127240D02*
X525019Y127240D01*
X525019Y130547D02*
X529981Y130547D01*
X529981Y133854D02*
X525019Y133854D01*
X525019Y137161D02*
X529981Y137161D01*
X529981Y140468D02*
X525019Y140468D01*
X525019Y143775D02*
X529981Y143775D01*
X529981Y147082D02*
X525019Y147082D01*
X525019Y150389D02*
X529981Y150389D01*
X529981Y153696D02*
X525019Y153696D01*
X539981Y155281D02*
X539981Y117319D01*
X535019Y117319D01*
X535019Y155281D01*
X539981Y155281D01*
X539981Y120626D02*
X535019Y120626D01*
X535019Y123933D02*
X539981Y123933D01*
X539981Y127240D02*
X535019Y127240D01*
X535019Y130547D02*
X539981Y130547D01*
X539981Y133854D02*
X535019Y133854D01*
X535019Y137161D02*
X539981Y137161D01*
X539981Y140468D02*
X535019Y140468D01*
X535019Y143775D02*
X539981Y143775D01*
X539981Y147082D02*
X535019Y147082D01*
X535019Y150389D02*
X539981Y150389D01*
X539981Y153696D02*
X535019Y153696D01*
X549981Y155281D02*
X549981Y117319D01*
X545019Y117319D01*
X545019Y155281D01*
X549981Y155281D01*
X549981Y120626D02*
X545019Y120626D01*
X545019Y123933D02*
X549981Y123933D01*
X549981Y127240D02*
X545019Y127240D01*
X545019Y130547D02*
X549981Y130547D01*
X549981Y133854D02*
X545019Y133854D01*
X545019Y137161D02*
X549981Y137161D01*
X549981Y140468D02*
X545019Y140468D01*
X545019Y143775D02*
X549981Y143775D01*
X549981Y147082D02*
X545019Y147082D01*
X545019Y150389D02*
X549981Y150389D01*
X549981Y153696D02*
X545019Y153696D01*
X559981Y155281D02*
X559981Y117319D01*
X555019Y117319D01*
X555019Y155281D01*
X559981Y155281D01*
X559981Y120626D02*
X555019Y120626D01*
X555019Y123933D02*
X559981Y123933D01*
X559981Y127240D02*
X555019Y127240D01*
X555019Y130547D02*
X559981Y130547D01*
X559981Y133854D02*
X555019Y133854D01*
X555019Y137161D02*
X559981Y137161D01*
X559981Y140468D02*
X555019Y140468D01*
X555019Y143775D02*
X559981Y143775D01*
X559981Y147082D02*
X555019Y147082D01*
X555019Y150389D02*
X559981Y150389D01*
X559981Y153696D02*
X555019Y153696D01*
X569981Y155281D02*
X569981Y117319D01*
X565019Y117319D01*
X565019Y155281D01*
X569981Y155281D01*
X569981Y120626D02*
X565019Y120626D01*
X565019Y123933D02*
X569981Y123933D01*
X569981Y127240D02*
X565019Y127240D01*
X565019Y130547D02*
X569981Y130547D01*
X569981Y133854D02*
X565019Y133854D01*
X565019Y137161D02*
X569981Y137161D01*
X569981Y140468D02*
X565019Y140468D01*
X565019Y143775D02*
X569981Y143775D01*
X569981Y147082D02*
X565019Y147082D01*
X565019Y150389D02*
X569981Y150389D01*
X569981Y153696D02*
X565019Y153696D01*
X579981Y155281D02*
X579981Y117319D01*
X575019Y117319D01*
X575019Y155281D01*
X579981Y155281D01*
X579981Y120626D02*
X575019Y120626D01*
X575019Y123933D02*
X579981Y123933D01*
X579981Y127240D02*
X575019Y127240D01*
X575019Y130547D02*
X579981Y130547D01*
X579981Y133854D02*
X575019Y133854D01*
X575019Y137161D02*
X579981Y137161D01*
X579981Y140468D02*
X575019Y140468D01*
X575019Y143775D02*
X579981Y143775D01*
X579981Y147082D02*
X575019Y147082D01*
X575019Y150389D02*
X579981Y150389D01*
X579981Y153696D02*
X575019Y153696D01*
X589981Y155281D02*
X589981Y117319D01*
X585019Y117319D01*
X585019Y155281D01*
X589981Y155281D01*
X589981Y120626D02*
X585019Y120626D01*
X585019Y123933D02*
X589981Y123933D01*
X589981Y127240D02*
X585019Y127240D01*
X585019Y130547D02*
X589981Y130547D01*
X589981Y133854D02*
X585019Y133854D01*
X585019Y137161D02*
X589981Y137161D01*
X589981Y140468D02*
X585019Y140468D01*
X585019Y143775D02*
X589981Y143775D01*
X589981Y147082D02*
X585019Y147082D01*
X585019Y150389D02*
X589981Y150389D01*
X589981Y153696D02*
X585019Y153696D01*
X619981Y155281D02*
X619981Y117319D01*
X615019Y117319D01*
X615019Y155281D01*
X619981Y155281D01*
X619981Y120626D02*
X615019Y120626D01*
X615019Y123933D02*
X619981Y123933D01*
X619981Y127240D02*
X615019Y127240D01*
X615019Y130547D02*
X619981Y130547D01*
X619981Y133854D02*
X615019Y133854D01*
X615019Y137161D02*
X619981Y137161D01*
X619981Y140468D02*
X615019Y140468D01*
X615019Y143775D02*
X619981Y143775D01*
X619981Y147082D02*
X615019Y147082D01*
X615019Y150389D02*
X619981Y150389D01*
X619981Y153696D02*
X615019Y153696D01*
X629981Y155281D02*
X629981Y117319D01*
X625019Y117319D01*
X625019Y155281D01*
X629981Y155281D01*
X629981Y120626D02*
X625019Y120626D01*
X625019Y123933D02*
X629981Y123933D01*
X629981Y127240D02*
X625019Y127240D01*
X625019Y130547D02*
X629981Y130547D01*
X629981Y133854D02*
X625019Y133854D01*
X625019Y137161D02*
X629981Y137161D01*
X629981Y140468D02*
X625019Y140468D01*
X625019Y143775D02*
X629981Y143775D01*
X629981Y147082D02*
X625019Y147082D01*
X625019Y150389D02*
X629981Y150389D01*
X629981Y153696D02*
X625019Y153696D01*
X639981Y155281D02*
X639981Y117319D01*
X635019Y117319D01*
X635019Y155281D01*
X639981Y155281D01*
X639981Y120626D02*
X635019Y120626D01*
X635019Y123933D02*
X639981Y123933D01*
X639981Y127240D02*
X635019Y127240D01*
X635019Y130547D02*
X639981Y130547D01*
X639981Y133854D02*
X635019Y133854D01*
X635019Y137161D02*
X639981Y137161D01*
X639981Y140468D02*
X635019Y140468D01*
X635019Y143775D02*
X639981Y143775D01*
X639981Y147082D02*
X635019Y147082D01*
X635019Y150389D02*
X639981Y150389D01*
X639981Y153696D02*
X635019Y153696D01*
X649981Y155281D02*
X649981Y117319D01*
X645019Y117319D01*
X645019Y155281D01*
X649981Y155281D01*
X649981Y120626D02*
X645019Y120626D01*
X645019Y123933D02*
X649981Y123933D01*
X649981Y127240D02*
X645019Y127240D01*
X645019Y130547D02*
X649981Y130547D01*
X649981Y133854D02*
X645019Y133854D01*
X645019Y137161D02*
X649981Y137161D01*
X649981Y140468D02*
X645019Y140468D01*
X645019Y143775D02*
X649981Y143775D01*
X649981Y147082D02*
X645019Y147082D01*
X645019Y150389D02*
X649981Y150389D01*
X649981Y153696D02*
X645019Y153696D01*
X659981Y155281D02*
X659981Y117319D01*
X655019Y117319D01*
X655019Y155281D01*
X659981Y155281D01*
X659981Y120626D02*
X655019Y120626D01*
X655019Y123933D02*
X659981Y123933D01*
X659981Y127240D02*
X655019Y127240D01*
X655019Y130547D02*
X659981Y130547D01*
X659981Y133854D02*
X655019Y133854D01*
X655019Y137161D02*
X659981Y137161D01*
X659981Y140468D02*
X655019Y140468D01*
X655019Y143775D02*
X659981Y143775D01*
X659981Y147082D02*
X655019Y147082D01*
X655019Y150389D02*
X659981Y150389D01*
X659981Y153696D02*
X655019Y153696D01*
X669981Y155281D02*
X669981Y117319D01*
X665019Y117319D01*
X665019Y155281D01*
X669981Y155281D01*
X669981Y120626D02*
X665019Y120626D01*
X665019Y123933D02*
X669981Y123933D01*
X669981Y127240D02*
X665019Y127240D01*
X665019Y130547D02*
X669981Y130547D01*
X669981Y133854D02*
X665019Y133854D01*
X665019Y137161D02*
X669981Y137161D01*
X669981Y140468D02*
X665019Y140468D01*
X665019Y143775D02*
X669981Y143775D01*
X669981Y147082D02*
X665019Y147082D01*
X665019Y150389D02*
X669981Y150389D01*
X669981Y153696D02*
X665019Y153696D01*
X679981Y155281D02*
X679981Y117319D01*
X675019Y117319D01*
X675019Y155281D01*
X679981Y155281D01*
X679981Y120626D02*
X675019Y120626D01*
X675019Y123933D02*
X679981Y123933D01*
X679981Y127240D02*
X675019Y127240D01*
X675019Y130547D02*
X679981Y130547D01*
X679981Y133854D02*
X675019Y133854D01*
X675019Y137161D02*
X679981Y137161D01*
X679981Y140468D02*
X675019Y140468D01*
X675019Y143775D02*
X679981Y143775D01*
X679981Y147082D02*
X675019Y147082D01*
X675019Y150389D02*
X679981Y150389D01*
X679981Y153696D02*
X675019Y153696D01*
M02*
