M48
;GenerationSoftware,Autodesk,EAGLE,9.0.0*%
;CreationDate,2020-04-13T01:43:13Z*%
FMAT,2
ICI,OFF
METRIC,TZ,000.000
T6C0.350
T5C0.500
T4C0.650
T3C0.800
T2C1.000
T1C3.302
%
G90
M71
T1
X76000Y61000
X14000Y14000
X14000Y61000
X76000Y14000
T2
X27000Y13500
X19380Y14516
X19380Y12484
T3
X87000Y26500
X85000Y30500
X85000Y26500
X87000Y28500
X85000Y28500
X87000Y30500
X87000Y36500
X85000Y36500
X87000Y38500
X85000Y38500
X87000Y40500
X85000Y40500
X87000Y42500
X85000Y42500
X87000Y44500
X85000Y44500
X87000Y46500
X85000Y46500
X87000Y48500
X85000Y48500
X87000Y50500
X85000Y50500
X87000Y52500
X85000Y52500
X87000Y54500
X85000Y54500
X87000Y56500
X85000Y56500
X87000Y58500
X85000Y58500
X87000Y16500
X85000Y16500
X87000Y18500
X85000Y18500
X87000Y20500
X85000Y20500
X87000Y22500
X85000Y22500
X87000Y24500
X85000Y24500
T4
X19150Y56100
T5
X11950Y56990
X11950Y48010
X17900Y48370
X17900Y56630
T6
X20574Y58658
X21574Y58658
X22574Y58658
X23574Y58658
X24574Y58658
X25574Y58658
X26574Y58658
X23574Y59658
X24574Y59658
X25574Y59658
X26574Y59658
X28114Y35768
X29614Y35768
X30606Y35768
X30606Y34268
X29614Y34268
X28114Y34268
X28114Y32768
X29614Y32768
X30606Y32768
X29614Y31268
X32376Y36760
X31360Y39403
X32479Y35077
X73406Y25019
X75692Y25019
X29083Y45339
X31877Y49149
X30607Y49911
X35814Y49530
X32550Y55715
X29876Y58658
X31019Y58658
X32035Y58658
X32035Y57642
X31019Y57642
X29876Y57642
X32035Y56753
X32797Y56753
X32797Y57642
X32797Y58658
X44958Y27686
X40513Y47244
X43561Y45720
X41783Y43942
X40132Y45720
X41783Y47371
X41780Y45750
X52324Y56134
X52451Y55245
X52451Y54356
X51562Y55372
X56769Y55880
X24384Y11430
X23114Y15494
X20574Y15621
X30607Y17145
X30607Y18161
X37084Y16129
X26543Y25908
X24384Y36449
X13716Y37338
X12319Y39624
X20320Y36195
X43307Y36703
X47752Y39624
X50800Y32004
X14351Y24257
X11684Y22606
X47411Y53300
X42679Y55767
X61976Y18288
X58750Y23252
X80010Y32258
X73152Y36449
X79883Y29591
X64770Y23749
X67691Y30988
X59817Y35687
X62230Y33274
X40005Y24765
X44069Y25654
X25908Y53467
X25146Y53467
X34948Y24894
X34821Y23751
X78486Y44450
X77851Y47117
X81026Y46355
X67437Y46101
X67183Y51689
X67056Y48641
X67691Y49784
X64516Y42672
X65532Y42672
X65532Y43688
X67056Y44958
X68072Y44958
X68072Y43815
X67056Y43815
X67183Y40640
X68199Y40640
X69342Y40640
X70358Y40640
X71374Y40640
X72263Y40640
X37750Y54086
X38258Y53070
X39782Y53070
X38893Y54086
X40290Y54086
X41433Y54086
X42576Y54086
X42576Y53070
X41306Y53070
X39655Y55229
X41179Y55229
X40417Y56499
X34321Y46847
X35591Y46847
X32416Y46847
X58801Y45339
X63246Y40386
X64262Y40386
X65405Y40386
X63246Y39116
X64262Y39116
X65405Y39116
X63246Y37846
X64262Y37846
X65405Y37846
X67183Y39370
X68199Y39370
X69342Y39370
X70358Y39370
X71374Y39370
X72263Y39370
X67183Y38100
X68199Y38100
X69342Y38100
X70358Y38100
X71374Y38100
X72263Y38100
X67183Y36830
X68199Y36830
X69342Y36830
X70358Y36830
X71374Y36830
X72263Y36830
X67183Y35687
X68199Y35687
X69342Y35687
X67183Y34417
X68199Y34417
X67437Y32766
X58516Y16637
X34798Y53746
X51003Y52019
X48412Y55728
X59309Y52578
X15875Y32258
X29845Y28829
X28575Y20574
X22860Y60198
X13843Y45466
X41783Y15670
X36576Y48768
X40640Y52070
X44323Y51181
X44069Y47625
X41529Y24765
X55626Y30861
X48895Y35442
X56577Y34609
X63373Y24257
X35814Y44196
X36145Y41529
X38735Y44577
X46736Y62103
X59154Y56868
X61087Y62103
X51435Y48641
X65659Y27940
X68834Y33147
X81407Y36449
X75946Y32766
X78260Y47780
X73914Y46990
X62372Y46972
X65024Y41529
X56388Y44323
X61722Y39751
X62611Y41529
X53854Y38233
X77597Y30861
X78486Y26289
X39497Y39878
X45720Y41783
X47498Y46736
X27051Y15367
X30277Y54610
X29362Y53797
X17323Y52984
X20676Y52273
X25146Y48006
X33528Y48209
X38764Y51689
X22606Y53340
X25451Y45974
X20777Y53238
X25603Y49276
X28956Y49428
X35001Y51308
X16662Y51765
X23825Y49225
X16408Y50444
X25552Y46787
X17278Y54328
X23470Y56591
X17342Y55087
X22883Y56106
X17272Y51206
X22911Y51054
X22911Y50190
X17221Y50343
X16713Y52527
X24762Y47317
X33477Y47299
X39522Y51562
X36249Y54486
X37795Y50038
X35712Y53950
X37033Y49784
X50292Y25781
X69723Y27686
X50546Y25023
X70612Y28067
X52197Y27559
X65913Y29591
X37211Y28194
X66802Y27940
X36957Y25781
X68834Y27432
X31344Y12751
X33782Y20015
X62103Y19558
X28092Y26213
X24931Y15455
X33909Y21463
X61087Y21082
X32893Y21209
X59436Y21082
X65532Y19685
X38354Y18669
X72136Y29684
X40513Y20066
X65659Y21844
X60452Y52451
X55753Y43053
X56515Y43561
X61087Y52959
X61722Y52238
X57531Y44069
X62484Y51943
X59055Y44196
X59817Y46101
X59690Y57404
X60452Y57785
X60325Y46736
X61083Y46609
X61341Y57785
X62099Y57912
X61699Y47371
X56233Y59916
X63754Y43942
X64262Y44704
X56642Y60579
X64925Y45113
X57178Y61115
X65588Y45522
X57912Y61722
X58170Y52070
X50800Y50546
X57404Y59436
X52705Y61341
X50038Y52023
X50673Y48387
X59436Y54991
X59817Y44958
X51439Y61849
X64770Y33274
X52197Y61976
X65405Y31623
X51232Y61091
X64262Y34544
X63040Y35102
X50668Y61600
X50546Y59309
X61440Y35913
X59613Y37007
X49788Y59509
X49030Y59436
X58393Y37438
X56261Y38735
X48173Y58714
X48795Y57304
X34798Y20015
X52705Y49911
X62484Y48768
X49603Y53317
X48108Y47650
X50140Y52781
X48514Y48463
X34159Y49403
X30226Y44958
X21463Y53835
X14859Y52324
X24384Y44450
X47625Y37592
X33147Y59563
X59192Y51820
X54483Y62865
X17145Y17653
X37973Y39624
X35433Y48514
X47371Y45339
X62357Y42418
X58928Y32893
X67183Y27051
X70231Y33655
X77089Y38735
X58674Y46908
X39878Y48006
X32210Y24234
X41961Y33376
X48717Y28550
X60833Y28550
X35154Y34087
X31496Y23876
X59182Y29261
X32715Y23622
X41961Y32512
X60071Y29618
X56896Y27432
X59309Y30480
X32639Y22225
X31699Y21387
X35306Y35255
X56769Y30861
X33147Y22860
X55753Y27432
X37084Y54864
X36195Y51562
X35941Y50419
X38100Y55372
X28194Y44958
X33147Y49403
X29718Y49403
X26543Y44196
X27178Y44704
X30988Y49149
X74000Y38000
X66421Y50927
X66068Y31214
X70866Y61468
X55880Y37592
X69374Y62230
X68485Y62230
X67727Y62230
X66961Y62230
X66199Y62230
X79248Y41939
X65437Y62230
X58547Y50165
X56388Y41148
X62357Y51054
X25547Y51328
X25654Y55372
X39370Y31750
X31750Y20629
X26924Y19939
X28829Y24765
X28829Y24003
X28829Y23241
X27940Y22860
X27940Y23622
X27813Y24384
X26924Y23241
X26035Y22479
X25527Y21590
X25527Y20193
X20828Y49530
X21590Y49530
X22352Y49530
X20828Y48768
X21590Y48768
X22352Y48768
X22352Y48006
X21590Y48006
X23114Y48006
X23114Y48768
X23876Y48006
X21463Y55880
X21463Y56769
X20574Y56769
X20574Y55880
X20574Y57658
X21463Y57658
X22352Y57658
X23241Y57658
X24130Y57658
X19685Y57658
X18796Y57658
X16256Y54610
X15367Y54102
X14732Y53467
X21463Y45974
X22352Y45974
X20447Y45974
X19431Y45974
X18431Y45974
X17431Y45974
X16431Y45974
X15431Y45974
X70136Y62230
M30